<svg width="40" height="40" viewBox="0 0 40 40" fill="none" xmlns="http://www.w3.org/2000/svg">
<path d="M30.8943 24.8966C30.0396 23.0663 28.71 21.4659 27.0033 20.2746C27.6954 19.2195 28.1517 17.9964 28.286 16.6776C29.0408 16.6776 29.5268 16.38 29.8085 16.1175C30.2257 15.7286 30.4557 15.1817 30.4557 14.5777C30.4557 13.4295 29.4935 12.4941 28.307 12.4845L28.2818 8.39238C28.2535 3.84413 25.9647 3.37158 24.2934 3.02665C23.5691 2.87707 22.9436 2.74798 22.5838 2.35129C21.5759 1.2402 18.8073 1.11495 16.4113 2.07217C13.528 3.22437 11.9127 5.54415 11.98 8.43704L12.0765 12.5026C11.0561 12.6926 10.2581 13.5659 10.2581 14.5777C10.2581 15.6546 11.1044 16.5444 12.1883 16.6588C12.307 18.0135 12.7972 19.2796 13.5461 20.3682C11.8988 21.5516 10.6121 23.1193 9.77955 24.907C6.01281 25.9248 2.85693 28.6848 2.85693 32.709V38.7741C2.85693 39.0568 3.08583 39.2858 3.36839 39.2858C3.65095 39.2858 3.87985 39.0568 3.87985 38.7741V32.709C3.87985 29.4704 6.278 27.1683 9.29611 26.1244C8.94571 27.1726 8.74657 28.2655 8.70468 29.37C7.65671 29.6125 6.87246 30.5518 6.87246 31.6728V34.2221C6.87244 34.2893 6.88565 34.3559 6.91135 34.418C6.93704 34.48 6.97472 34.5365 7.02221 34.584C7.06971 34.6315 7.1261 34.6692 7.18816 34.6949C7.25022 34.7206 7.31674 34.7338 7.38391 34.7338H8.41665C8.69921 34.7338 8.92811 34.5048 8.92811 34.2221C8.92811 33.9395 8.69921 33.7105 8.41665 33.7105H7.89537V31.6728C7.89537 30.9327 8.49722 30.3305 9.23713 30.3305C9.97704 30.3305 10.579 30.9326 10.579 31.6728V33.7105H10.0576C9.77504 33.7105 9.54614 33.9395 9.54614 34.2221C9.54614 34.5048 9.77504 34.7338 10.0576 34.7338H11.0905C11.1577 34.7338 11.2242 34.7206 11.2862 34.6949C11.3483 34.6692 11.4047 34.6315 11.4522 34.584C11.4997 34.5365 11.5374 34.48 11.5631 34.418C11.5887 34.3559 11.602 34.2893 11.6019 34.2221V31.6728C11.6019 30.5368 10.7971 29.586 9.72804 29.3592C9.78088 28.1288 10.0478 26.917 10.5169 25.7783C11.2573 25.6123 12.0186 25.5166 12.7787 25.4987L14.1104 27.4367L12.4107 29.613C12.3497 29.6912 12.3127 29.7853 12.3042 29.8841C12.2957 29.9828 12.316 30.0819 12.3627 30.1694L17.0934 39.0154C17.1251 39.0747 17.1681 39.1271 17.22 39.1698C17.272 39.2124 17.3318 39.2444 17.3961 39.2639C17.4604 39.2834 17.5279 39.29 17.5947 39.2834C17.6616 39.2767 17.7265 39.257 17.7857 39.2253C17.9053 39.1612 17.9946 39.0523 18.0339 38.9224C18.0732 38.7926 18.0594 38.6524 17.9954 38.5327L13.4217 29.9805L15.1472 27.771C15.2141 27.6852 15.252 27.5804 15.2553 27.4716C15.2586 27.3629 15.2272 27.2559 15.1657 27.1662L13.7465 25.1009L15.7818 23.5918L18.436 38.8618C18.4475 38.928 18.4719 38.9912 18.5079 39.048C18.5438 39.1047 18.5906 39.1538 18.6455 39.1925C18.7004 39.2311 18.7624 39.2586 18.8279 39.2733C18.8934 39.288 18.9612 39.2896 19.0274 39.2781C19.0935 39.2666 19.1568 39.2422 19.2135 39.2063C19.2703 39.1703 19.3194 39.1236 19.358 39.0686C19.3967 39.0137 19.4241 38.9516 19.4388 38.8861C19.4535 38.8205 19.4551 38.7527 19.4436 38.6865L16.7378 23.119C17.8056 23.6398 18.9958 23.9393 20.2437 23.9393C21.6244 23.9393 22.9218 23.5854 24.0599 22.9724L21.2704 38.6846C21.2573 38.7583 21.2606 38.8339 21.2799 38.9062C21.2992 38.9785 21.3342 39.0456 21.3823 39.1029C21.4303 39.1603 21.4904 39.2063 21.5582 39.2379C21.626 39.2695 21.6999 39.2858 21.7747 39.2857C21.8947 39.2856 22.0108 39.2432 22.1028 39.166C22.1947 39.0888 22.2566 38.9818 22.2776 38.8635L24.9824 23.629L26.9675 25.1009L25.5483 27.1662C25.4866 27.2559 25.4552 27.3628 25.4585 27.4716C25.4618 27.5804 25.4997 27.6852 25.5666 27.771L27.2921 29.9805L22.7184 38.5327C22.6569 38.6522 22.6449 38.791 22.6848 38.9192C22.7248 39.0474 22.8135 39.1548 22.9319 39.2181C23.0503 39.2815 23.1888 39.2957 23.3176 39.2578C23.4464 39.2199 23.5551 39.1328 23.6203 39.0154L28.3511 30.1694C28.3978 30.0819 28.4181 29.9828 28.4096 29.8841C28.4011 29.7853 28.3641 29.6912 28.3031 29.613L26.6036 27.4367L27.9354 25.4987C28.6823 25.5163 29.4303 25.6091 30.1586 25.7697C30.6403 26.9368 30.9095 28.1806 30.9536 29.4425C30.1002 29.7216 29.4815 30.5245 29.4815 31.4702C29.4815 32.6469 30.4384 33.6041 31.6144 33.6041C32.7905 33.6041 33.7475 32.6469 33.7475 31.4702C33.7475 30.4165 32.9793 29.5412 31.9743 29.3693C31.9321 28.2602 31.7314 27.1629 31.3781 26.1108C34.4149 27.1481 36.834 29.4562 36.834 32.709V38.7741C36.834 39.0568 37.0629 39.2858 37.3455 39.2858C37.628 39.2858 37.8569 39.0568 37.8569 38.7741V32.709C37.8569 28.6705 34.6785 25.9056 30.8943 24.8966ZM28.3143 13.5079C28.9334 13.5209 29.4328 13.9957 29.4328 14.5776C29.4328 14.8946 29.3186 15.1754 29.1113 15.3686C28.9187 15.5483 28.6498 15.6453 28.3266 15.6535L28.3133 13.5078C28.3136 13.5079 28.314 13.5079 28.3143 13.5079ZM11.2811 14.5777C11.2811 14.1192 11.6337 13.7052 12.1016 13.5511L12.1507 15.6166C11.6519 15.5012 11.2811 15.0792 11.2811 14.5777ZM32.7246 31.4702C32.7246 32.0826 32.2266 32.5807 31.6144 32.5807C31.0025 32.5807 30.5045 32.0826 30.5045 31.4702C30.5045 30.858 31.0024 30.3598 31.6144 30.3598C32.2266 30.3598 32.7246 30.8579 32.7246 31.4702ZM13.0026 8.413C12.925 5.07094 15.3427 3.60109 16.7907 3.02244C17.7869 2.62435 18.8232 2.44919 19.7066 2.44919C20.6937 2.44919 21.4898 2.6679 21.8263 3.03878C22.4102 3.68265 23.2626 3.85855 24.0867 4.02876C25.7063 4.36304 27.236 4.67883 27.259 8.39866L27.2798 11.758C27.166 11.405 27.0804 10.9121 26.9912 10.2515C26.8033 8.86315 26.5681 7.14442 24.9054 7.18191C23.6252 7.21969 23.4758 6.93222 23.3652 6.72356C23.259 6.52318 23.0382 6.10498 22.4167 6.13825C22.0245 6.15844 21.7839 6.46033 21.5716 6.72689C21.3506 7.00423 21.1855 7.1794 21.0064 7.17807C20.1946 7.14538 19.5192 7.13259 18.8993 7.12091C17.92 7.10243 17.0742 7.08623 16.0492 6.99699C15.4991 6.949 15.0504 7.07278 14.7215 7.36587C14.1041 7.91598 14.0768 8.86389 14.048 9.86754C14.0056 11.3479 13.8873 12.1438 13.0968 12.3847L13.0026 8.413ZM12.8722 24.4756C12.2705 24.4841 11.6676 24.5361 11.0719 24.6314C11.828 23.2828 12.8795 22.0988 14.1754 21.1752C14.6002 21.6526 15.0817 22.0784 15.607 22.4479L12.8722 24.4756ZM13.1826 15.9936L13.1217 13.4297C14.9792 13.0762 15.0334 11.1874 15.0704 9.89705C15.0917 9.15454 15.1138 8.38676 15.4017 8.13026C15.443 8.09381 15.5684 7.98149 15.9603 8.01647C17.0201 8.10889 17.882 8.12523 18.8799 8.14423C19.4934 8.15569 20.1619 8.16841 20.9654 8.2005C21.4473 8.2198 21.8674 7.93247 22.179 7.59013C22.2094 7.55671 22.4931 7.26177 22.4779 7.23367C22.7501 7.7352 23.2088 8.25396 24.9339 8.20501C25.6117 8.17751 25.7749 8.89021 25.9773 10.3887C26.1254 11.4833 26.3155 12.8917 27.2896 13.3618L27.3049 15.8536C27.3041 19.748 24.1368 22.916 20.2439 22.916C16.4163 22.9159 13.1827 19.7513 13.1826 15.9936ZM27.8418 24.4756L25.0091 22.3752C25.5178 22.0024 25.9783 21.5701 26.3871 21.0911C27.7135 22.0093 28.8134 23.2178 29.6034 24.6248C29.0204 24.5336 28.4318 24.4837 27.8418 24.4756Z" fill="#001C15"/>
</svg>
