<svg width="57" height="57" viewBox="0 0 57 57" fill="none" xmlns="http://www.w3.org/2000/svg">
<path d="M56.497 37.0442L56.0088 19.8131C55.9621 18.1611 54.2963 16.682 52.5219 16.711C51.6616 16.7248 48.8562 17.1935 48.8769 22.6461L48.9125 32.0065C48.9138 32.3335 48.8829 32.6463 48.8187 32.9486C48.7042 32.778 48.5733 32.6189 48.4279 32.4736C47.2389 31.2846 45.2901 31.271 43.9907 32.4423C43.9614 32.4687 43.9339 32.497 43.9085 32.5271C42.3916 34.3206 40.5316 35.8882 39.0371 37.1477C38.5154 37.5874 38.0227 38.0026 37.6191 38.3665C35.9554 39.8658 35.7338 41.9437 35.7363 43.7785L35.7533 55.6259C35.7537 55.8577 35.846 56.0799 36.01 56.2437C36.1741 56.4076 36.3965 56.4996 36.6283 56.4996L46.1814 56.4997C46.4135 56.4996 46.636 56.4074 46.8001 56.2433C46.9642 56.0792 47.0564 55.8567 47.0564 55.6247V49.3072L54.594 41.7695C55.8897 40.4743 56.5478 38.8402 56.497 37.0442ZM53.3565 40.5321L45.5626 48.3261C45.4813 48.4073 45.4169 48.5038 45.3729 48.61C45.329 48.7161 45.3063 48.8299 45.3063 48.9448V54.7498L37.502 54.7497L37.4862 43.7761C37.4841 42.2541 37.6406 40.7029 38.7906 39.6664C39.1726 39.3222 39.6323 38.9347 40.1647 38.486C41.6961 37.1955 43.5987 35.5921 45.2022 33.7075C45.8169 33.1854 46.663 33.1839 47.1905 33.7113C47.4606 33.9812 47.6081 34.3713 47.6059 34.7511C47.6035 35.1601 47.4066 35.4336 47.1597 35.7375L41.1811 41.7162C41.0999 41.7975 41.0355 41.8939 40.9915 42.0001C40.9475 42.1062 40.9249 42.22 40.9249 42.3349C40.9249 42.4498 40.9476 42.5636 40.9915 42.6697C41.0355 42.7759 41.1 42.8723 41.1813 42.9536C41.2624 43.035 41.3588 43.0995 41.465 43.1435C41.5712 43.1874 41.685 43.21 41.7999 43.2098C41.9148 43.21 42.0286 43.1874 42.1348 43.1434C42.241 43.0995 42.3374 43.0349 42.4186 42.9536L48.4281 36.944C48.7164 36.6554 48.9507 36.3081 49.2077 35.9916C50.1922 34.7799 50.6681 33.4742 50.6625 32L50.6269 22.6397C50.617 20.0426 51.3358 18.4804 52.5499 18.4609L52.5728 18.4608C53.3925 18.4608 54.2396 19.1618 54.2594 19.8628L54.7477 37.0937C54.785 38.4151 54.317 39.5719 53.3565 40.5321ZM19.3809 38.3668C18.9773 38.0029 18.4844 37.5875 17.9626 37.1478C16.4681 35.8883 14.6082 34.3208 13.0914 32.5274C13.0659 32.4973 13.0385 32.469 13.0092 32.4426C11.7101 31.2712 9.76088 31.2849 8.57209 32.4739C8.42666 32.6192 8.29574 32.7783 8.18118 32.9489C8.11687 32.6466 8.08603 32.3338 8.08734 32.0068L8.12299 22.6465C8.14356 17.1938 5.33831 16.7251 4.47796 16.7113C4.46108 16.7111 4.4442 16.711 4.42732 16.711C2.66846 16.711 1.03735 18.1772 0.991088 19.8134L0.502728 37.0445C0.451978 38.8404 1.11009 40.4745 2.40563 41.7699L9.94332 49.3076V55.625C9.94338 55.857 10.0356 56.0796 10.1997 56.2437C10.3637 56.4077 10.5863 56.4999 10.8183 56.5L20.3715 56.4999C20.6033 56.4999 20.8257 56.4079 20.9897 56.2441C21.1538 56.0803 21.2461 55.858 21.2465 55.6262L21.2635 43.7788C21.266 41.9439 21.0444 39.8661 19.3809 38.3668ZM19.4977 54.7499L11.6933 54.75L11.6934 48.945C11.6934 48.8301 11.6708 48.7163 11.6268 48.6102C11.5829 48.504 11.5184 48.4076 11.4372 48.3263L3.6431 40.5323C2.68279 39.5721 2.21467 38.4153 2.25207 37.0939L2.74032 19.8628C2.76012 19.1617 3.60723 18.4609 4.42688 18.4609L4.44985 18.461C5.66392 18.4805 6.38273 20.0426 6.37288 22.6398L6.33723 32.0001C6.33165 33.4743 6.80754 34.78 7.79202 35.9919C8.04982 36.3093 8.28793 36.6495 8.57329 36.9456L14.5811 42.9537C14.6623 43.0351 14.7587 43.0996 14.8649 43.1436C14.9711 43.1876 15.085 43.2101 15.1999 43.21C15.3148 43.2101 15.4286 43.1876 15.5348 43.1436C15.6409 43.0996 15.7374 43.0351 15.8185 42.9537C15.8998 42.8725 15.9642 42.776 16.0082 42.6699C16.0522 42.5637 16.0748 42.4499 16.0749 42.335C16.0749 42.2201 16.0522 42.1063 16.0083 42.0002C15.9643 41.894 15.8999 41.7976 15.8186 41.7163L9.83985 35.7373C9.69034 35.5534 9.54695 35.3893 9.47017 35.1605C9.3026 34.6613 9.43845 34.0824 9.80934 33.7114C10.3366 33.184 11.183 33.1856 11.7976 33.7077C13.401 35.5922 15.3036 37.1956 16.8347 38.4862C17.3671 38.9349 17.8271 39.3224 18.2091 39.6669C19.3591 40.7033 19.5155 42.2545 19.5134 43.7764L19.4977 54.7499ZM39.4381 20.7219V31.4531C39.4381 31.6852 39.5303 31.9077 39.6944 32.0718C39.8585 32.2359 40.0811 32.3281 40.3131 32.3281C40.5452 32.3281 40.7678 32.2359 40.9319 32.0718C41.096 31.9077 41.1881 31.6852 41.1881 31.4531V20.7219C41.1881 18.0365 39.1215 15.9839 35.5181 15.0901C33.8821 14.6842 32.2481 14.4186 30.6211 14.2931C32.9932 13.1911 34.6908 10.2961 34.6908 6.90686C34.6909 2.95492 32.3186 0.5 28.4999 0.5C24.6812 0.5 22.3088 2.95492 22.3088 6.90686C22.3088 10.2893 23.9998 13.1794 26.3643 14.2863C24.7137 14.4095 23.0772 14.6791 21.4743 15.0919C17.8226 16.0307 15.8116 18.0301 15.8116 20.7219V31.4531C15.8116 31.6852 15.9038 31.9077 16.0679 32.0718C16.232 32.2359 16.4546 32.3281 16.6866 32.3281C16.9187 32.3281 17.1412 32.2359 17.3053 32.0718C17.4694 31.9077 17.5616 31.6852 17.5616 31.4531V20.7219C17.5616 18.3934 19.9263 17.2968 21.9102 16.7868C26.204 15.6826 30.6407 15.6832 35.0968 16.7887C36.7182 17.1908 39.4381 18.2366 39.4381 20.7219ZM24.0588 6.90686C24.0588 2.85495 26.8413 2.25 28.4999 2.25C30.1584 2.25 32.9409 2.85495 32.9409 6.90686C32.9409 10.2769 30.9487 13.0186 28.4999 13.0186C26.0511 13.0186 24.0588 10.2769 24.0588 6.90686ZM22.9296 23.1888V31.4531C22.9296 31.6852 22.8374 31.9077 22.6734 32.0718C22.5093 32.2359 22.2867 32.3281 22.0546 32.3281C21.8226 32.3281 21.6 32.2359 21.4359 32.0718C21.2718 31.9077 21.1796 31.6852 21.1796 31.4531V23.1888C21.1796 22.9567 21.2718 22.7341 21.4359 22.57C21.6 22.4059 21.8226 22.3138 22.0546 22.3138C22.2867 22.3138 22.5093 22.4059 22.6734 22.57C22.8374 22.7341 22.9296 22.9567 22.9296 23.1888ZM35.82 31.4531C35.82 31.6852 35.7278 31.9077 35.5637 32.0718C35.3996 32.2359 35.1771 32.3281 34.945 32.3281C34.713 32.3281 34.4904 32.2359 34.3263 32.0718C34.1622 31.9077 34.07 31.6852 34.07 31.4531V23.1888C34.07 22.9567 34.1622 22.7341 34.3263 22.57C34.4904 22.4059 34.713 22.3138 34.945 22.3138C35.1771 22.3138 35.3996 22.4059 35.5637 22.57C35.7278 22.7341 35.82 22.9567 35.82 23.1888V31.4531Z" fill="#02C898"/>
</svg>
