<svg width="20" height="35" viewBox="0 0 20 35" fill="none" xmlns="http://www.w3.org/2000/svg">
<path d="M0.543026 16.1343L15.6926 0.559142C16.043 0.198616 16.5108 0 17.0095 0C17.5082 0 17.976 0.198616 18.3264 0.559142L19.442 1.70588C20.168 2.45311 20.168 3.66757 19.442 4.41366L6.72055 17.4927L19.4561 30.5863C19.8065 30.9469 20 31.4275 20 31.9399C20 32.453 19.8065 32.9336 19.4561 33.2944L18.3405 34.4409C17.9898 34.8014 17.5223 35 17.0236 35C16.5249 35 16.0571 34.8014 15.7067 34.4409L0.543026 18.8515C0.191805 18.4898 -0.00110435 18.0069 3.8147e-06 17.4936C-0.00110435 16.9783 0.191805 16.4957 0.543026 16.1343Z" fill="#02C898"/>
</svg>
