<svg width="60" height="60" viewBox="0 0 60 60" fill="none" xmlns="http://www.w3.org/2000/svg">
<path d="M0 30C0 13.44 13.44 0 30 0C46.56 0 60 13.44 60 30C60 46.56 46.56 60 30 60C13.44 60 0 46.56 0 30Z" fill="#B3B3B3"/>
<path d="M29.25 9.375C34.23 9.375 38.25 13.395 38.25 18.375C38.25 23.355 34.23 27.375 29.25 27.375C24.27 27.375 20.25 23.355 20.25 18.375C20.25 13.395 24.27 9.375 29.25 9.375ZM29.25 51.975C21.75 51.975 15.12 48.135 11.25 42.315C11.34 36.345 23.25 33.075 29.25 33.075C35.22 33.075 47.16 36.345 47.25 42.315C43.38 48.135 36.75 51.975 29.25 51.975Z" fill="white"/>
</svg>
