<svg width="45" height="53" viewBox="0 0 45 53" fill="none" xmlns="http://www.w3.org/2000/svg">
<path d="M35.5649 26.7495C35.3032 26.7488 35.0519 26.8458 34.8663 27.0192C34.6806 27.1926 34.5757 27.4283 34.5747 27.6744C34.4033 32.7558 33.3437 37.7761 31.4381 42.5337C30.8418 44.3145 29.812 45.94 28.4307 47.2809C27.0493 48.6217 25.3545 49.641 23.4809 50.2577C13.8334 53.0964 5.5187 39.8575 2.99528 31.8568C6.52736 30.1767 9.37203 27.4482 11.0888 24.0937C11.209 23.8749 11.2318 23.6202 11.1523 23.3855C11.0728 23.1508 10.8974 22.9555 10.6648 22.8425C10.4321 22.7294 10.1613 22.7079 9.9118 22.7827C9.66231 22.8575 9.45463 23.0225 9.33445 23.2413C7.84557 26.1192 5.44317 28.4911 2.4592 30.0293C2.34089 29.5946 2.22997 29.1581 2.12649 28.72C1.42949 25.7801 3.29738 21.7193 4.1326 20.111C4.1941 20.0011 4.23152 19.8806 4.24262 19.7568C4.25373 19.633 4.23831 19.5083 4.19727 19.3902C4.15622 19.2721 4.0904 19.1629 4.00369 19.0692C3.91698 18.9754 3.81114 18.899 3.69246 18.8445C3.57378 18.7899 3.44466 18.7583 3.31275 18.7515C3.18084 18.7447 3.04882 18.7629 2.92452 18.805C2.80022 18.8471 2.68616 18.9122 2.58911 18.9965C2.49205 19.0808 2.41397 19.1825 2.35948 19.2957C1.20834 21.5132 -0.603274 25.7383 0.198378 29.1202C2.41872 39.2753 12.0721 55.4615 24.0633 52.0313C26.2314 51.3282 28.1952 50.1591 29.7988 48.6171C31.4024 47.0751 32.6016 45.2027 33.3011 43.1484C35.2802 38.1952 36.3776 32.969 36.5492 27.68C36.5497 27.4338 36.4463 27.1976 36.2617 27.0231C36.0772 26.8487 35.8265 26.7503 35.5649 26.7495ZM44.0898 18.486L43.3366 17.7478L43.7236 17.5398C44.1148 17.2393 44.4103 16.8431 44.5775 16.3949C44.7447 15.9466 44.7772 15.4636 44.6713 14.9991C44.3893 14.2306 43.8268 13.5809 43.0838 13.1654C42.3408 12.75 41.4653 12.5956 40.6127 12.7297L38.7577 13.467H36.8542L36.33 13.297L37.1099 13.1262C38.0172 12.9314 38.8116 12.419 39.3318 11.6932C39.8521 10.9674 40.059 10.0826 39.9107 9.21848C39.7624 8.35434 39.27 7.57571 38.5334 7.04073C37.7968 6.50575 36.8713 6.25456 35.945 6.33816L31.06 6.7616C31.3084 6.12627 31.3454 5.43486 31.1658 4.77932C30.9863 4.12378 30.5988 3.53518 30.055 3.09181C28.1555 1.2142 24.786 2.56437 24.3615 5.05671L24.0949 6.32795C24.0881 6.36173 24.0832 6.39582 24.0801 6.43009C24.077 6.89415 23.9503 7.35008 23.7114 7.75613C23.4725 8.16219 23.1292 8.5054 22.7128 8.75435L17.9265 11.7834C18.4957 10.5079 19.2313 9.30387 20.1163 8.19906C20.6109 7.57319 21.0157 7.13025 21.1618 6.97425C21.558 6.64723 21.8715 6.24105 22.0794 5.78541C22.2873 5.32977 22.3843 4.83619 22.3633 4.34076C22.2211 1.55499 18.9405 0.725758 18.8141 0.695114C15.5798 -0.33005 11.9882 2.85502 10.222 6.26387C8.65818 4.72984 6.17819 1.01455 3.60441 3.23574L0.864776 5.87851C-2.30827 9.52416 6.30456 10.9347 4.0003 16.0336C3.92237 16.2651 3.94397 16.5161 4.06047 16.7329C4.17698 16.9496 4.37911 17.1148 4.62355 17.193C4.86798 17.2712 5.13527 17.2562 5.36811 17.1513C5.60096 17.0463 5.78083 16.8598 5.86918 16.6316C7.23357 12.8587 5.47921 11.074 3.25887 8.81471C3.00021 8.40613 1.75824 7.73383 2.27557 7.17761L5.01027 4.53948C5.09911 4.46117 5.21429 4.41458 5.33583 4.4078C5.45738 4.40101 5.57761 4.43446 5.67568 4.50234C7.12821 5.74126 8.46249 7.09755 9.66321 8.55564C9.77085 8.68234 9.91165 8.78056 10.0718 8.84067C10.232 8.90078 10.406 8.92071 10.5768 8.89852C10.7476 8.87633 10.9093 8.81278 11.0462 8.71409C11.183 8.6154 11.2902 8.48496 11.3573 8.33556C11.816 7.34686 12.3705 6.40002 13.014 5.50707C14.1764 6.91089 15.8284 7.88364 17.6787 8.25384C16.5325 9.81106 15.7656 11.5869 15.4327 13.4549C13.8287 14.8093 12.7075 16.596 12.2222 18.5714C12.1932 18.8124 12.2657 19.0545 12.424 19.2459C12.5823 19.4373 12.8139 19.5628 13.0694 19.5957C13.3248 19.6286 13.5838 19.5661 13.791 19.4218C13.9981 19.2774 14.137 19.0625 14.1779 18.8231C14.6427 17.1879 15.6209 15.7226 16.9847 14.6184L23.7918 10.3097C24.4459 9.90594 24.9903 9.36353 25.3812 8.72605C25.7721 8.08857 25.9987 7.37377 26.0428 6.63902L26.3005 5.41607C26.5147 4.33426 27.8189 3.56817 28.7133 4.45126C28.9665 4.65024 29.149 4.91718 29.2365 5.21637C29.324 5.51556 29.3123 5.83274 29.203 6.12551C29.1339 6.21837 28.9068 7.49054 28.8723 7.62612C28.8451 7.76725 28.8528 7.91237 28.8948 8.05026C28.9368 8.18814 29.0119 8.31509 29.1144 8.42128C29.2169 8.52748 29.344 8.61007 29.4859 8.66267C29.6278 8.71528 29.7806 8.73648 29.9326 8.72464L36.1266 8.18791C36.3606 8.16682 36.5967 8.19229 36.8195 8.26269C37.0423 8.33308 37.2469 8.44682 37.4199 8.59649C37.6443 8.79301 37.8078 9.04298 37.8933 9.31988C37.9788 9.59679 37.983 9.89029 37.9055 10.1693C37.8279 10.4482 37.6716 10.7022 37.4529 10.9044C37.2343 11.1065 36.9616 11.2492 36.6637 11.3173L32.6811 12.1883C31.4816 12.1354 24.7495 12.2496 20.3285 20.2652C20.2132 20.4832 20.1935 20.7352 20.2738 20.9668C20.354 21.1983 20.5278 21.391 20.7577 21.5031C20.9875 21.6153 21.2551 21.6381 21.5026 21.5665C21.7501 21.4949 21.9578 21.3347 22.0809 21.1204C25.9796 14.0529 31.7215 14.0074 32.5695 14.0417C32.6633 14.051 36.6963 15.4346 36.6903 15.3232C37.5753 15.3568 38.4617 15.3326 39.3431 15.2508L41.1478 14.533C41.7727 14.5952 43.2181 15.0121 42.6386 15.9844L41.2594 16.7282C41.1302 16.7991 41.0196 16.8965 40.9361 17.0133C40.8525 17.13 40.7981 17.2629 40.7768 17.4022C40.7556 17.5415 40.768 17.6835 40.8133 17.8176C40.8586 17.9517 40.9354 18.0745 41.0382 18.1768L42.6672 19.7721C42.8944 20.0049 43.0227 20.3081 43.0276 20.6241C43.0325 20.9401 42.9138 21.2467 42.694 21.4857C42.4742 21.7247 42.1686 21.8793 41.8354 21.9202C41.5023 21.961 41.1648 21.8853 40.8872 21.7073L36.7042 18.8927C34.7218 17.8109 30.3492 17.1098 27.5029 21.7286C27.3814 21.9416 27.353 22.1908 27.4236 22.4232C27.4943 22.6556 27.6586 22.8529 27.8815 22.9732C28.1044 23.0935 28.3684 23.1273 28.6173 23.0674C28.8663 23.0075 29.0807 22.8587 29.2148 22.6526C30.4479 20.631 31.9495 20.0339 33.1984 19.9643C33.7414 21.2942 34.1174 22.6791 34.319 24.091C34.3629 24.3279 34.5029 24.5396 34.7094 24.6815C34.916 24.8233 35.173 24.8842 35.4264 24.8513C35.6797 24.8185 35.9096 24.6944 36.0677 24.5053C36.2257 24.3162 36.2996 24.0768 36.2737 23.8375C36.1017 22.6585 35.8223 21.4957 35.4385 20.3617C35.5076 20.3915 35.5678 20.4175 35.6083 20.4379L39.738 23.2172C40.416 23.6638 41.246 23.858 42.0674 23.7622C42.8889 23.6665 43.6433 23.2875 44.1849 22.6988C44.7265 22.11 45.0166 21.3533 44.9993 20.5749C44.9819 19.7965 44.6582 19.0519 44.0908 18.4851L44.0898 18.486ZM14.3211 3.97211C15.6726 2.66187 17.0074 2.15393 18.3076 2.48915C18.3274 2.4938 20.3197 3.01659 20.3907 4.42526C20.4352 5.35385 19.671 5.66215 18.9118 6.62417C15.7269 6.01315 14.6587 4.6472 14.3211 3.97211Z" fill="#02C898"/>
</svg>
