<svg width="40" height="40" viewBox="0 0 40 40" fill="none" xmlns="http://www.w3.org/2000/svg">
<path d="M29.6891 20.1784C29.5022 20.1778 29.3227 20.2471 29.1901 20.371C29.0575 20.4949 28.9826 20.6632 28.9818 20.839C28.8595 24.4686 28.1025 28.0545 26.7415 31.4528C26.3155 32.7248 25.58 33.8859 24.5933 34.8436C23.6066 35.8014 22.396 36.5294 21.0577 36.9699C14.1666 38.9976 8.22758 29.5412 6.42513 23.8264C8.94804 22.6263 10.9799 20.6774 12.2062 18.2814C12.2921 18.1251 12.3084 17.9431 12.2516 17.7755C12.1948 17.6079 12.0695 17.4684 11.9033 17.3876C11.7372 17.3069 11.5437 17.2915 11.3655 17.345C11.1873 17.3984 11.039 17.5162 10.9531 17.6725C9.88963 19.7281 8.17362 21.4224 6.04221 22.5211C5.95771 22.2105 5.87848 21.8988 5.80457 21.5858C5.30671 19.4859 6.64091 16.5854 7.2375 15.4366C7.28143 15.358 7.30816 15.272 7.31609 15.1836C7.32403 15.0951 7.31301 15.0061 7.28369 14.9217C7.25438 14.8373 7.20736 14.7594 7.14542 14.6924C7.08348 14.6255 7.00789 14.5709 6.92312 14.5319C6.83834 14.4929 6.74611 14.4703 6.65189 14.4655C6.55767 14.4606 6.46337 14.4736 6.37459 14.5037C6.2858 14.5337 6.20433 14.5803 6.13501 14.6405C6.06568 14.7007 6.00991 14.7734 5.97099 14.8542C5.14875 16.4381 3.85473 19.4561 4.42734 21.8717C6.0133 29.1253 12.9086 40.687 21.4737 38.2368C23.0223 37.7345 24.425 36.8995 25.5705 35.7981C26.7159 34.6967 27.5725 33.3592 28.0721 31.8919C29.4858 28.3539 30.2696 24.6208 30.3922 20.843C30.3926 20.6672 30.3187 20.4984 30.1869 20.3738C30.0551 20.2492 29.876 20.1789 29.6891 20.1784ZM35.7784 14.2758L35.2403 13.7485L35.5168 13.6C35.7962 13.3854 36.0073 13.1024 36.1267 12.7822C36.2462 12.462 36.2693 12.117 36.1937 11.7852C35.9923 11.2363 35.5905 10.7722 35.0598 10.4755C34.5291 10.1787 33.9037 10.0684 33.2947 10.1642L31.9697 10.6908H30.6101L30.2356 10.5694L30.7927 10.4474C31.4408 10.3083 32.0082 9.94231 32.3798 9.42388C32.7514 8.90546 32.8992 8.27343 32.7933 7.65619C32.6874 7.03896 32.3356 6.48279 31.8095 6.10066C31.2834 5.71854 30.6223 5.53911 29.9606 5.59883L26.4714 5.90128C26.6488 5.44747 26.6752 4.95361 26.5469 4.48537C26.4187 4.01712 26.142 3.5967 25.7535 3.28C24.3967 1.93885 21.9899 2.90326 21.6867 4.6835L21.4963 5.59153C21.4914 5.61566 21.4879 5.64001 21.4857 5.66449C21.4835 5.99596 21.393 6.32162 21.2223 6.61166C21.0517 6.9017 20.8065 7.14685 20.509 7.32468L17.0903 9.4883C17.4969 8.5772 18.0223 7.71719 18.6544 6.92804C19.0077 6.48099 19.2968 6.1646 19.4012 6.05317C19.6842 5.81959 19.9082 5.52946 20.0567 5.204C20.2051 4.87855 20.2744 4.52599 20.2594 4.17211C20.1579 2.18228 17.8145 1.58997 17.7243 1.56808C15.4141 0.835818 12.8486 3.11087 11.5871 5.54576C10.4701 4.45003 8.69864 1.79625 6.86023 3.38281L4.90334 5.2705C2.63688 7.87454 8.7889 8.88206 7.143 12.5241C7.08734 12.6895 7.10277 12.8688 7.18598 13.0236C7.2692 13.1784 7.41358 13.2964 7.58818 13.3523C7.76277 13.4081 7.95369 13.3974 8.12001 13.3225C8.28633 13.2475 8.41481 13.1143 8.47792 12.9513C9.45248 10.2564 8.19937 8.98155 6.61341 7.36779C6.42865 7.07595 5.54153 6.59574 5.91105 6.19843L7.86441 4.31405C7.92786 4.25812 8.01014 4.22484 8.09696 4.21999C8.18377 4.21515 8.26965 4.23904 8.3397 4.28752C9.37722 5.17247 10.3303 6.14125 11.1879 7.18274C11.2648 7.27324 11.3654 7.34339 11.4798 7.38633C11.5942 7.42927 11.7185 7.44351 11.8405 7.42766C11.9625 7.41181 12.078 7.36641 12.1758 7.29592C12.2735 7.22543 12.3501 7.13226 12.398 7.02554C12.7256 6.31932 13.1217 5.64301 13.5813 5.00519C14.4116 6.00792 15.5916 6.70274 16.9133 6.96717C16.0946 8.07947 15.5468 9.34795 15.309 10.6822C14.1633 11.6496 13.3625 12.9258 13.0158 14.3369C12.9951 14.509 13.0468 14.6819 13.1599 14.8186C13.273 14.9553 13.4385 15.045 13.6209 15.0685C13.8034 15.092 13.9884 15.0474 14.1363 14.9443C14.2843 14.8411 14.3835 14.6876 14.4127 14.5166C14.7447 13.3487 15.4434 12.302 16.4176 11.5133L21.2798 8.43567C21.747 8.14724 22.1359 7.75981 22.4151 7.30446C22.6943 6.84912 22.8562 6.33855 22.8876 5.81373L23.0717 4.94019C23.2247 4.16747 24.1563 3.62026 24.7952 4.25104C24.976 4.39317 25.1064 4.58384 25.1689 4.79754C25.2314 5.01125 25.223 5.23781 25.1449 5.44694C25.0956 5.51326 24.9334 6.42196 24.9087 6.51879C24.8893 6.6196 24.8948 6.72326 24.9248 6.82175C24.9548 6.92024 25.0085 7.01092 25.0817 7.08677C25.1549 7.16262 25.2457 7.22162 25.347 7.25919C25.4483 7.29677 25.5575 7.31191 25.6661 7.30345L30.0904 6.92008C30.2575 6.90501 30.4261 6.92321 30.5853 6.97349C30.7445 7.02377 30.8906 7.10501 31.0142 7.21192C31.1744 7.35229 31.2913 7.53084 31.3523 7.72863C31.4134 7.92642 31.4164 8.13606 31.361 8.33532C31.3056 8.53458 31.1939 8.71603 31.0377 8.8604C30.8816 9.00477 30.6868 9.10668 30.474 9.15533L27.6293 9.77749C26.7725 9.73968 21.9638 9.82126 18.806 15.5467C18.7236 15.7024 18.7096 15.8824 18.7669 16.0478C18.8242 16.2132 18.9484 16.3508 19.1126 16.431C19.2768 16.5111 19.4678 16.5273 19.6446 16.4762C19.8214 16.4251 19.9698 16.3106 20.0577 16.1576C22.8425 11.1094 26.9438 11.0768 27.5496 11.1014C27.6166 11.108 30.4973 12.0963 30.493 12.0167C31.1252 12.0407 31.7583 12.0234 32.3879 11.965L33.6769 11.4523C34.1233 11.4967 35.1557 11.7945 34.7418 12.489L33.7566 13.0203C33.6643 13.0709 33.5854 13.1405 33.5257 13.2239C33.466 13.3073 33.4271 13.4022 33.412 13.5017C33.3968 13.6012 33.4057 13.7027 33.438 13.7984C33.4703 13.8942 33.5252 13.9819 33.5987 14.055L34.7622 15.1945C34.9245 15.3608 35.0161 15.5774 35.0196 15.8031C35.0232 16.0288 34.9384 16.2478 34.7813 16.4185C34.6243 16.5892 34.4061 16.6997 34.1681 16.7288C33.9301 16.758 33.6891 16.7039 33.4908 16.5768L30.5029 14.5664C29.0869 13.7936 25.9636 13.2929 23.9306 16.592C23.8438 16.7441 23.8235 16.9221 23.874 17.0881C23.9244 17.2541 24.0418 17.395 24.201 17.481C24.3602 17.5669 24.5488 17.5911 24.7266 17.5483C24.9044 17.5055 25.0575 17.3992 25.1534 17.252C26.0342 15.808 27.1067 15.3815 27.9988 15.3318C28.3866 16.2817 28.6552 17.2709 28.7992 18.2794C28.8306 18.4487 28.9306 18.5999 29.0781 18.7012C29.2256 18.8025 29.4092 18.846 29.5902 18.8225C29.7712 18.7991 29.9354 18.7105 30.0483 18.5754C30.1612 18.4403 30.2139 18.2693 30.1954 18.0983C30.0726 17.2562 29.873 16.4256 29.5989 15.6157C29.6482 15.6369 29.6912 15.6555 29.7202 15.6701L32.6699 17.6553C33.1542 17.9743 33.7471 18.113 34.3338 18.0446C34.9205 17.9762 35.4595 17.7055 35.8463 17.285C36.2331 16.8644 36.4404 16.3239 36.428 15.7679C36.4156 15.212 36.1844 14.6801 35.7791 14.2752L35.7784 14.2758ZM14.515 3.90879C15.4804 2.9729 16.4338 2.61009 17.3625 2.84953C17.3766 2.85285 18.7997 3.22628 18.8505 4.23247C18.8822 4.89575 18.3364 5.11596 17.7941 5.80312C15.5192 5.36668 14.7562 4.39099 14.515 3.90879Z" fill="#001C15"/>
<path d="M21.813 20.5595C21.8165 20.5515 21.8242 20.5462 21.8278 20.5383L22.6973 18.3813C22.7555 18.2186 22.7444 18.0411 22.6664 17.8859C22.5883 17.7308 22.4494 17.6102 22.2787 17.5494C22.1081 17.4886 21.9191 17.4923 21.7513 17.5599C21.5836 17.6275 21.4502 17.7536 21.3793 17.9117L20.5725 19.9115C19.083 20.9407 17.4014 21.6982 15.6151 22.1447C14.778 22.1593 9.74515 22.3689 9.50539 25.3086C9.49337 25.4828 9.55484 25.6544 9.67648 25.7862C9.79811 25.9181 9.9701 25.9995 10.1551 26.0128C10.3402 26.0262 10.5234 25.9704 10.665 25.8576C10.8066 25.7447 10.8951 25.5839 10.9115 25.41C11.0004 24.3196 12.6745 23.8115 14.1032 23.6006C13.1025 24.8522 11.8586 26.7996 12.2048 28.4273C12.2468 28.5947 12.3563 28.7401 12.5101 28.833C12.664 28.926 12.8502 28.959 13.0294 28.9253C13.2087 28.8916 13.3671 28.7937 13.4711 28.6523C13.5751 28.5109 13.6167 28.337 13.587 28.1673C13.2746 26.6968 15.2054 24.3269 16.1151 23.3857C17.2673 23.0581 18.3873 22.6376 19.4626 22.1288C18.6145 23.8086 17.9696 25.5727 17.5402 27.3879C17.1214 28.9513 17.0255 32.2863 15.5516 32.8905C15.3868 32.9319 15.2435 33.0279 15.1481 33.1609C15.0527 33.2938 15.0117 33.4548 15.0325 33.614C15.0534 33.7732 15.1348 33.9199 15.2617 34.0271C15.3886 34.1343 15.5525 34.1947 15.723 34.1972C16.1557 34.1042 16.5576 33.913 16.8934 33.6401C17.2293 33.3672 17.4889 33.021 17.6495 32.6318C18.2648 33.6799 19.0974 34.6012 20.0979 35.3413C20.252 35.4411 20.4418 35.4793 20.6258 35.4475C20.8097 35.4157 20.9727 35.3164 21.0789 35.1715C21.185 35.0267 21.2256 34.8481 21.1917 34.675C21.1579 34.502 21.0523 34.3487 20.8983 34.2489C19.7795 33.3553 18.8867 32.2382 18.2849 30.9789C18.5374 29.9999 18.5148 29.7373 18.6601 29.0209C19.7411 30.1114 21.3087 31.2575 23.2064 31.3756C23.3931 31.387 23.5771 31.3282 23.7177 31.2121C23.8584 31.096 23.9442 30.932 23.9564 30.7564C23.9685 30.5808 23.906 30.4078 23.7825 30.2755C23.6591 30.1432 23.4848 30.0624 23.2981 30.051C21.4223 29.9349 19.8645 28.4081 19.0021 27.3515C19.2819 26.2221 19.6551 25.115 20.1184 24.0404C20.9349 24.9481 21.5629 25.9921 21.9695 27.118C22.0178 27.288 22.1358 27.433 22.2976 27.5213C22.4594 27.6095 22.6518 27.6339 22.8326 27.5889C24.3424 27.1598 21.9533 24.181 21.5231 23.5801C23.1895 23.8122 24.6224 24.3694 24.7218 25.4001C24.7389 25.5753 24.8292 25.737 24.9729 25.8495C25.1167 25.9621 25.3021 26.0164 25.4884 26.0004C25.6746 25.9844 25.8465 25.8994 25.9662 25.7642C26.0859 25.629 26.1436 25.4546 26.1266 25.2794C25.9065 23.011 22.9913 22.3636 20.9949 22.1865L21.8052 20.588C21.8094 20.5794 21.8094 20.5694 21.813 20.5595Z" fill="#001C15"/>
</svg>
