<svg width="12" height="16" viewBox="0 0 12 16" fill="none" xmlns="http://www.w3.org/2000/svg">
<path d="M9.45484 4.2916C9.42515 4.22902 9.37196 4.18067 9.30684 4.15707C9.24172 4.13347 9.16991 4.13651 9.10702 4.16554C9.04413 4.19457 8.99522 4.24723 8.97093 4.3121C8.94664 4.37697 8.94892 4.44881 8.97728 4.512C9.17631 4.94322 9.27725 5.40475 9.27725 5.88379C9.27725 7.69088 7.80709 9.16103 6.00003 9.16103C4.19293 9.16103 2.72278 7.69088 2.72278 5.88379C2.72278 4.07672 4.19293 2.60654 6.00003 2.60654C6.92418 2.60654 7.81015 2.99982 8.43068 3.68554C8.45379 3.71139 8.48178 3.73243 8.51305 3.74743C8.54431 3.76243 8.57824 3.7711 8.61287 3.77293C8.6475 3.77477 8.68215 3.76974 8.71482 3.75814C8.7475 3.74653 8.77756 3.72858 8.80328 3.70531C8.82899 3.68204 8.84984 3.65391 8.86465 3.62255C8.87945 3.59119 8.8879 3.55721 8.88952 3.52257C8.89113 3.48793 8.88589 3.45332 8.87407 3.42071C8.86226 3.38811 8.84411 3.35816 8.82068 3.3326C8.10059 2.53691 7.0725 2.08057 6.00003 2.08057C3.9029 2.08057 2.19678 3.78669 2.19678 5.88382C2.19678 7.98094 3.9029 9.68707 6.00003 9.68707C8.09712 9.68707 9.80325 7.98094 9.80325 5.88382C9.80322 5.32813 9.686 4.79241 9.45484 4.2916Z" fill="#053D4C"/>
<path d="M11.2528 5.88394C11.2528 5.68262 11.3409 5.44947 11.4342 5.20262C11.5751 4.82997 11.7208 4.44459 11.5976 4.06534C11.4693 3.67022 11.1006 3.43006 10.7754 3.21809C10.5618 3.07891 10.3599 2.94747 10.25 2.79638C10.1377 2.64209 10.0739 2.40712 10.0063 2.15838C9.90516 1.78634 9.79056 1.36469 9.45922 1.12356C9.13122 0.884875 8.71566 0.904469 8.31384 0.923406C8.05428 0.935656 7.80913 0.947219 7.62381 0.887031C7.45134 0.831031 7.26694 0.681969 7.07172 0.524156C6.76769 0.278531 6.4231 0 6.00022 0C5.57731 0 5.23272 0.278531 4.92869 0.524281C4.73347 0.682063 4.54906 0.831125 4.37666 0.887125C4.19134 0.947313 3.94616 0.935719 3.68659 0.9235C3.28478 0.904531 2.86919 0.884938 2.54119 1.12366C2.20984 1.36478 2.09528 1.78644 1.99416 2.15847C1.92656 2.40722 1.86269 2.64219 1.75041 2.79647C1.64047 2.94753 1.43866 3.079 1.22503 3.21819C0.899751 3.43009 0.531095 3.67028 0.402845 4.06537C0.279689 4.44462 0.425345 4.83 0.56622 5.20269C0.659501 5.44953 0.747626 5.68269 0.747626 5.884C0.747626 6.08531 0.659501 6.31847 0.566189 6.56531C0.425314 6.938 0.279658 7.32337 0.402814 7.70262C0.531126 8.09772 0.899783 8.33791 1.22503 8.54981C1.43866 8.689 1.64047 8.82047 1.75041 8.97153C1.86269 9.12581 1.92653 9.36081 1.99416 9.60953C2.09525 9.98156 2.20984 10.4032 2.54119 10.6443C2.86916 10.883 3.28472 10.8634 3.68656 10.8445C3.9461 10.8322 4.19128 10.8207 4.3766 10.8809C4.54906 10.9369 4.73347 11.0859 4.92872 11.2437C5.07563 11.3625 5.23216 11.4886 5.40225 11.5876L4.39394 15.2044L3.46338 14.1674C3.42991 14.1301 3.3865 14.1032 3.33825 14.0897C3.28999 14.0763 3.2389 14.0769 3.19097 14.0914L1.85863 14.4974L2.69397 11.5018C2.71212 11.4348 2.70305 11.3634 2.66873 11.303C2.63441 11.2427 2.57763 11.1984 2.51076 11.1797C2.4439 11.1611 2.37237 11.1696 2.31178 11.2035C2.25119 11.2374 2.20645 11.2938 2.18731 11.3605L1.2231 14.8182C1.21044 14.8636 1.21023 14.9116 1.22248 14.9571C1.23472 15.0026 1.25898 15.044 1.29272 15.077C1.32645 15.1099 1.36842 15.1332 1.41422 15.1443C1.46003 15.1555 1.50799 15.1541 1.5531 15.1404L3.18385 14.6435L4.32269 15.9126C4.35417 15.9477 4.39452 15.9737 4.4395 15.9879C4.48448 16.002 4.53243 16.0038 4.57835 15.9931C4.62425 15.9823 4.66643 15.9594 4.70047 15.9268C4.73451 15.8942 4.75915 15.853 4.77181 15.8076L5.89956 11.762C5.93297 11.7657 5.96655 11.7676 6.00016 11.7678C6.03416 11.7678 6.06753 11.7654 6.10056 11.762L7.22878 15.8076C7.24146 15.853 7.26611 15.8942 7.30015 15.9268C7.33418 15.9594 7.37636 15.9823 7.42226 15.993C7.46816 16.0037 7.5161 16.0019 7.56107 15.9878C7.60604 15.9736 7.64638 15.9477 7.67788 15.9126L8.81635 14.6434L10.4474 15.1403C10.4925 15.1541 10.5405 15.1554 10.5863 15.1443C10.6321 15.1331 10.6741 15.1099 10.7078 15.0769C10.7415 15.044 10.7658 15.0026 10.778 14.9571C10.7903 14.9115 10.7901 14.8636 10.7774 14.8182L9.58322 10.5353C9.82125 10.2883 9.91891 9.9305 10.0062 9.60938C10.0738 9.36063 10.1376 9.12566 10.2499 8.97138C10.3598 8.82031 10.5617 8.68884 10.7753 8.54966C11.1006 8.33775 11.4692 8.09756 11.5975 7.7025C11.7206 7.32325 11.575 6.93787 11.4341 6.56519C11.3409 6.31841 11.2528 6.08528 11.2528 5.88394ZM10.142 14.4974L8.80925 14.0914C8.76132 14.0768 8.71021 14.0762 8.66195 14.0897C8.61368 14.1031 8.57026 14.1301 8.53681 14.1674L7.60663 15.2044L6.59797 11.5875C6.76816 11.4886 6.92472 11.3624 7.07169 11.2436C7.26691 11.0858 7.45131 10.9368 7.62378 10.8807C7.80916 10.8205 8.05431 10.8321 8.31384 10.8443C8.5841 10.8571 8.86041 10.8698 9.11225 10.8043L10.142 14.4974ZM11.0973 7.54016C11.0264 7.75844 10.765 7.92875 10.4882 8.10906C10.2441 8.26812 9.99163 8.43259 9.82469 8.662C9.65547 8.89453 9.57572 9.18787 9.49866 9.47156C9.41269 9.78794 9.33147 10.0867 9.14972 10.219C8.97122 10.3489 8.66397 10.3344 8.3386 10.3191C8.04335 10.3052 7.738 10.2907 7.46131 10.3806C7.19631 10.4666 6.96488 10.6537 6.74103 10.8346C6.48184 11.0441 6.23709 11.2419 6.00019 11.2419C5.76328 11.2419 5.51847 11.0441 5.25931 10.8346C5.0355 10.6537 4.804 10.4665 4.53903 10.3805C4.36453 10.3239 4.17863 10.3087 3.99106 10.3087C3.88125 10.3087 3.77081 10.3139 3.66178 10.319C3.33647 10.3344 3.02919 10.3489 2.85069 10.219C2.66894 10.0867 2.58772 9.78791 2.50175 9.47153C2.42469 9.18784 2.34494 8.89447 2.17572 8.66197C2.00881 8.43259 1.75638 8.26813 1.51219 8.10903C1.23541 7.92872 0.974001 7.75838 0.903126 7.54009C0.837033 7.33653 0.944501 7.05222 1.05825 6.75125C1.16416 6.47106 1.27366 6.18138 1.27366 5.884C1.27366 5.58662 1.16416 5.29688 1.05828 5.01675C0.944501 4.71578 0.837064 4.43147 0.903158 4.22788C0.974033 4.00959 1.23544 3.83928 1.51222 3.65897C1.75635 3.49991 2.00881 3.33544 2.17575 3.10609C2.34497 2.87356 2.42472 2.58022 2.50178 2.29653C2.58775 1.98016 2.66897 1.68138 2.85072 1.54906C3.02919 1.41919 3.33653 1.43366 3.66185 1.44903C3.95706 1.46294 4.26244 1.47738 4.53913 1.38753C4.80413 1.30147 5.03556 1.11441 5.25941 0.9335C5.51853 0.723938 5.76335 0.526062 6.00022 0.526062C6.2371 0.526062 6.48194 0.723938 6.74106 0.933375C6.96488 1.11431 7.19638 1.30141 7.46134 1.38744C7.73803 1.47728 8.04331 1.46291 8.3386 1.44894C8.66391 1.43362 8.97122 1.41913 9.14969 1.54897C9.33144 1.68125 9.41266 1.98006 9.49863 2.29644C9.57569 2.58013 9.65544 2.8735 9.82466 3.106C9.99156 3.33537 10.244 3.49984 10.4882 3.65887C10.7649 3.83919 11.0263 4.0095 11.0973 4.22781C11.1633 4.43141 11.0559 4.71569 10.9421 5.01669C10.8362 5.29684 10.7267 5.58656 10.7267 5.88394C10.7267 6.18134 10.8363 6.471 10.9422 6.75119C11.0559 7.05219 11.1634 7.3365 11.0973 7.54016Z" fill="#053D4C"/>
<path d="M7.01604 4.24805H4.98448C4.91472 4.24805 4.84783 4.27576 4.79851 4.32508C4.74919 4.3744 4.72148 4.44129 4.72148 4.51105C4.72148 4.5808 4.74919 4.64769 4.79851 4.69702C4.84783 4.74634 4.91472 4.77405 4.98448 4.77405H7.01604C7.08579 4.77405 7.15269 4.74634 7.20201 4.69702C7.25133 4.64769 7.27904 4.5808 7.27904 4.51105C7.27904 4.44129 7.25133 4.3744 7.20201 4.32508C7.15269 4.27576 7.08579 4.24805 7.01604 4.24805ZM7.01604 6.99336H4.98448C4.91472 6.99336 4.84783 7.02107 4.79851 7.07039C4.74919 7.11971 4.72148 7.18661 4.72148 7.25636C4.72148 7.32611 4.74919 7.39301 4.79851 7.44233C4.84783 7.49165 4.91472 7.51936 4.98448 7.51936H7.01604C7.08579 7.51936 7.15269 7.49165 7.20201 7.44233C7.25133 7.39301 7.27904 7.32611 7.27904 7.25636C7.27904 7.18661 7.25133 7.11971 7.20201 7.07039C7.15269 7.02107 7.08579 6.99336 7.01604 6.99336ZM7.74432 5.6207H6.9521C6.88235 5.6207 6.81545 5.64841 6.76613 5.69773C6.71681 5.74706 6.6891 5.81395 6.6891 5.8837C6.6891 5.95345 6.71681 6.02035 6.76613 6.06967C6.81545 6.11899 6.88235 6.1467 6.9521 6.1467H7.74432C7.81407 6.1467 7.88097 6.11899 7.93029 6.06967C7.97961 6.02035 8.00732 5.95345 8.00732 5.8837C8.00732 5.81395 7.97961 5.74706 7.93029 5.69773C7.88097 5.64841 7.81407 5.6207 7.74432 5.6207ZM6.12848 5.6207H4.25616C4.18641 5.6207 4.11952 5.64841 4.07019 5.69773C4.02087 5.74706 3.99316 5.81395 3.99316 5.8837C3.99316 5.95345 4.02087 6.02035 4.07019 6.06967C4.11952 6.11899 4.18641 6.1467 4.25616 6.1467H6.12848C6.19823 6.1467 6.26512 6.11899 6.31445 6.06967C6.36377 6.02035 6.39148 5.95345 6.39148 5.8837C6.39148 5.81395 6.36377 5.74706 6.31445 5.69773C6.26512 5.64841 6.19823 5.6207 6.12848 5.6207Z" fill="#053D4C"/>
</svg>
