<svg width="40" height="40" viewBox="0 0 40 40" fill="none" xmlns="http://www.w3.org/2000/svg">
<mask id="path-1-inside-1_667_2237" fill="white">
<path d="M7.1812 28.7692C7.86341 29.6438 8.23539 30.7205 8.23859 31.8297V36.7145C8.23859 37.207 8.43426 37.6794 8.78256 38.0276C9.13086 38.3759 9.60326 38.5716 10.0958 38.5716H22.4774C22.97 38.5716 23.4424 38.3759 23.7907 38.0276C24.139 37.6794 24.3347 37.207 24.3347 36.7145V35.3278C26.3583 35.0386 28.2843 34.2729 29.954 33.0938L34.9376 38.0832C35.2555 38.3957 35.6837 38.5705 36.1295 38.5698C36.5753 38.5691 37.0029 38.393 37.3199 38.0794L38.0819 37.318C38.3957 37.0002 38.5716 36.5717 38.5716 36.1252C38.5716 35.6786 38.3957 35.2501 38.0819 34.9323L33.0959 29.9528C34.2551 28.3154 35.0184 26.4314 35.3256 24.4489C35.6329 22.4664 35.4757 20.4397 34.8664 18.5283C34.2572 16.6169 33.2125 14.8731 31.8146 13.434C30.4168 11.995 28.704 10.9 26.811 10.2354V7.10557C26.8185 6.32394 26.5376 5.56696 26.0221 4.97939C25.5065 4.39181 24.7925 4.01487 24.0165 3.92065C23.5882 3.87868 23.1558 3.92648 22.747 4.06099C22.3382 4.1955 21.962 4.41377 21.6423 4.70187C21.4722 4.22646 21.1875 3.80035 20.8132 3.46135C20.439 3.12234 19.987 2.8809 19.4971 2.75844C19.0072 2.63598 18.4947 2.63629 18.005 2.75933C17.5152 2.88237 17.0634 3.12435 16.6896 3.4638C16.5194 2.98766 16.2341 2.56099 15.8591 2.22172C15.4841 1.88246 15.0311 1.64114 14.5403 1.51922C14.0496 1.3973 13.5363 1.39857 13.0461 1.52291C12.5559 1.64726 12.1041 1.89082 11.7308 2.23193C11.4815 2.45774 11.2709 2.72291 11.1074 3.01686C11.0528 2.95939 10.996 2.90405 10.9372 2.85096C10.6171 2.56136 10.2402 2.34175 9.83038 2.20616C9.42061 2.07057 8.98704 2.022 8.55741 2.06355C7.78128 2.15764 7.06707 2.53452 6.55139 3.12211C6.03571 3.70969 5.75476 4.46675 5.76227 5.24847V7.65836C4.56599 7.81067 3.46618 8.39355 2.66857 9.29797C1.87096 10.2024 1.43019 11.3664 1.42871 12.5722V19.3135C1.43261 20.6993 1.89737 22.0445 2.74983 23.1373L7.1812 28.7692ZM37.2066 36.4452L36.4451 37.206C36.3603 37.2891 36.2463 37.3356 36.1275 37.3356C36.0088 37.3356 35.8947 37.2891 35.8099 37.206L32.6217 34.0143L34.0146 32.6214L37.2029 35.8057C37.2865 35.8905 37.3337 36.0046 37.3342 36.1236C37.3348 36.2426 37.2888 36.3572 37.2059 36.4427L37.2066 36.4452ZM33.138 31.7449L31.7463 33.1365L30.9378 32.3268C31.4353 31.8986 31.9 31.4339 32.3282 30.9364L33.138 31.7449ZM34.2399 22.4767C34.2399 24.803 33.5501 27.077 32.2576 29.0111C30.9651 30.9453 29.1281 32.4528 26.9787 33.343C24.8294 34.2333 22.4644 34.4662 20.1827 34.0124C17.901 33.5585 15.8051 32.4383 14.1601 30.7935C12.5151 29.1486 11.3948 27.0528 10.9409 24.7713C10.4871 22.4898 10.72 20.1249 11.6103 17.9758C12.5006 15.8266 14.0082 13.9897 15.9425 12.6973C17.8769 11.4049 20.151 10.7151 22.4774 10.7151C25.596 10.7186 28.5858 11.9589 30.791 14.1638C32.9961 16.3688 34.2365 19.3584 34.2399 22.4767ZM2.66687 12.5722C2.6685 11.6953 2.98004 10.8473 3.54646 10.1778C4.11287 9.50835 4.8977 9.06063 5.76227 8.91376V17.5245C5.76227 17.6887 5.82749 17.8461 5.94359 17.9622C6.05969 18.0783 6.21716 18.1435 6.38135 18.1435C6.54554 18.1435 6.703 18.0783 6.8191 17.9622C6.9352 17.8461 7.00043 17.6887 7.00043 17.5245V5.24847C6.99082 4.77393 7.15641 4.31249 7.46556 3.95232C7.77471 3.59215 8.20573 3.35851 8.67628 3.29604C8.93428 3.26953 9.19498 3.29779 9.44131 3.37897C9.68764 3.46015 9.91405 3.59242 10.1057 3.76713C10.2974 3.94163 10.4506 4.1542 10.5555 4.39126C10.6604 4.62831 10.7147 4.88463 10.7149 5.14385C10.7149 5.30803 10.7801 5.46548 10.8962 5.58158C11.0123 5.69767 11.1698 5.76289 11.334 5.76289C11.4982 5.76289 11.6556 5.69767 11.7717 5.58158C11.8878 5.46548 11.9531 5.30803 11.9531 5.14385V4.52482C11.9532 4.26568 12.0076 4.00943 12.1127 3.77256C12.2178 3.53569 12.3713 3.32344 12.5634 3.14946C12.7555 2.97548 12.9818 2.84361 13.2279 2.76235C13.474 2.6811 13.7344 2.65224 13.9923 2.67763C14.4626 2.74023 14.8934 2.97384 15.2024 3.33386C15.5114 3.69389 15.677 4.1551 15.6675 4.62944V5.76289C15.6675 5.92706 15.7328 6.08452 15.8489 6.20061C15.965 6.3167 16.1224 6.38192 16.2866 6.38192C16.4508 6.38192 16.6083 6.3167 16.7244 6.20061C16.8405 6.08452 16.9057 5.92706 16.9057 5.76289C16.906 5.50377 16.9603 5.24756 17.0652 5.01062C17.1701 4.77368 17.3233 4.56121 17.5149 4.38678C17.7066 4.21189 17.9331 4.07951 18.1795 3.99832C18.426 3.91713 18.6868 3.88898 18.945 3.91569C19.4153 3.97829 19.8461 4.2119 20.1551 4.57193C20.4641 4.93195 20.6297 5.39316 20.6202 5.8675V7.00095C20.6202 7.16513 20.6854 7.32258 20.8015 7.43867C20.9176 7.55476 21.0751 7.61998 21.2393 7.61998C21.4035 7.61998 21.5609 7.55476 21.677 7.43867C21.7931 7.32258 21.8583 7.16513 21.8583 7.00095C21.8586 6.74183 21.913 6.48563 22.0179 6.24869C22.1228 6.01175 22.2759 5.79928 22.4675 5.62484C22.6594 5.45018 22.8859 5.31795 23.1323 5.23678C23.3787 5.15561 23.6395 5.12732 23.8976 5.15376C24.3679 5.21635 24.7987 5.44997 25.1077 5.80999C25.4167 6.17001 25.5823 6.63123 25.5728 7.10557V9.86521C23.7873 9.42627 21.929 9.3712 20.1207 9.70365C18.3124 10.0361 16.5952 10.7485 15.0826 11.7937C13.57 12.839 12.2965 14.1933 11.3462 15.7672C10.3959 17.3411 9.7904 19.0988 9.5698 20.924C9.3492 22.7492 9.51848 24.6005 10.0665 26.3554C10.6144 28.1104 11.5286 29.7291 12.7487 31.1046C13.9687 32.48 15.4667 33.581 17.1438 34.3346C18.8208 35.0882 20.6388 35.4774 22.4774 35.4764C22.6867 35.4764 22.8897 35.4547 23.0965 35.4448V36.7145C23.0965 36.8787 23.0313 37.0361 22.9152 37.1522C22.7991 37.2683 22.6416 37.3335 22.4774 37.3335H10.0958C9.93164 37.3335 9.77417 37.2683 9.65807 37.1522C9.54197 37.0361 9.47675 36.8787 9.47675 36.7145V31.8297C9.47285 30.4438 9.00808 29.0987 8.15563 28.0059L3.72426 22.3727C3.04231 21.4984 2.67035 20.4223 2.66687 19.3135V12.5722Z"/>
<path d="M11.9531 22.4767C11.9533 24.445 12.5055 26.3737 13.547 28.0438C14.5885 29.7139 16.0775 31.0585 17.8449 31.9249C19.6123 32.7912 21.5873 33.1446 23.5455 32.9448C25.5037 32.7451 27.3666 32.0002 28.9227 30.7949C30.4788 29.5895 31.6656 27.972 32.3484 26.1259C33.0311 24.2799 33.1825 22.2795 32.7852 20.3518C32.388 18.4241 31.458 16.6464 30.101 15.2206C28.744 13.7949 27.0144 12.7783 25.1085 12.2862C24.951 12.2492 24.7852 12.2753 24.6466 12.359C24.5081 12.4427 24.4079 12.5774 24.3674 12.734C24.3269 12.8907 24.3495 13.0571 24.4301 13.1974C24.5108 13.3377 24.6432 13.4408 24.799 13.4847C25.0619 13.5528 25.3198 13.6318 25.5728 13.7218V20.8054C25.5742 21.412 25.4477 22.0121 25.2014 22.5665L23.5813 26.2151C23.2621 26.928 23.097 27.7003 23.0965 28.4814V31.7307C22.891 31.7443 22.6867 31.7622 22.4774 31.7622C20.0146 31.7622 17.6526 30.7839 15.9111 29.0426C14.1696 27.3012 13.1912 24.9394 13.1912 22.4767C13.1912 20.0141 14.1696 17.6523 15.9111 15.9109C17.6526 14.1696 20.0146 13.1913 22.4774 13.1913C22.6416 13.1913 22.7991 13.126 22.9152 13.01C23.0313 12.8939 23.0965 12.7364 23.0965 12.5722C23.0965 12.4081 23.0313 12.2506 22.9152 12.1345C22.7991 12.0184 22.6416 11.9532 22.4774 11.9532C19.6872 11.9563 17.0121 13.066 15.039 15.0389C13.066 17.0118 11.9562 19.6867 11.9531 22.4767ZM24.3347 28.4814C24.3333 27.8747 24.4598 27.2746 24.7061 26.7202L26.3262 23.0716C26.6454 22.3587 26.8105 21.5865 26.811 20.8054V14.2684C28.5036 15.1622 29.8786 16.5571 30.7479 18.2623C31.6171 19.9675 31.9382 21.8996 31.6671 23.7942C31.3961 25.6889 30.5461 27.4535 29.2335 28.8466C27.921 30.2397 26.21 31.1931 24.3347 31.5765V28.4814Z"/>
<path d="M21.2393 27.429C21.0751 27.429 20.9176 27.4942 20.8015 27.6103C20.6854 27.7264 20.6202 27.8839 20.6202 28.048V28.6671C20.6202 28.8312 20.6854 28.9887 20.8015 29.1048C20.9176 29.2209 21.0751 29.2861 21.2393 29.2861C21.4035 29.2861 21.5609 29.2209 21.677 29.1048C21.7931 28.9887 21.8584 28.8312 21.8584 28.6671V28.048C21.8584 27.8839 21.7931 27.7264 21.677 27.6103C21.5609 27.4942 21.4035 27.429 21.2393 27.429ZM21.8584 24.9529C21.8584 24.7887 21.7931 24.6312 21.677 24.5152C21.5609 24.3991 21.4035 24.3338 21.2393 24.3338C21.0751 24.3338 20.9176 24.3991 20.8015 24.5152C20.6854 24.6312 20.6202 24.7887 20.6202 24.9529V25.5719C20.6202 25.7361 20.6854 25.8935 20.8015 26.0096C20.9176 26.1257 21.0751 26.1909 21.2393 26.1909C21.4035 26.1909 21.5609 26.1257 21.677 26.0096C21.7931 25.8935 21.8584 25.7361 21.8584 25.5719V24.9529ZM21.8584 21.8577C21.8584 21.6935 21.7931 21.5361 21.677 21.42C21.5609 21.3039 21.4035 21.2387 21.2393 21.2387C21.0751 21.2387 20.9176 21.3039 20.8015 21.42C20.6854 21.5361 20.6202 21.6935 20.6202 21.8577V22.4767C20.6202 22.6409 20.6854 22.7984 20.8015 22.9145C20.9176 23.0306 21.0751 23.0958 21.2393 23.0958C21.4035 23.0958 21.5609 23.0306 21.677 22.9145C21.7931 22.7984 21.8584 22.6409 21.8584 22.4767V21.8577ZM21.8584 18.7626C21.8584 18.5984 21.7931 18.4409 21.677 18.3248C21.5609 18.2087 21.4035 18.1435 21.2393 18.1435C21.0751 18.1435 20.9176 18.2087 20.8015 18.3248C20.6854 18.4409 20.6202 18.5984 20.6202 18.7626V19.3816C20.6202 19.5458 20.6854 19.7032 20.8015 19.8193C20.9176 19.9354 21.0751 20.0006 21.2393 20.0006C21.4035 20.0006 21.5609 19.9354 21.677 19.8193C21.7931 19.7032 21.8584 19.5458 21.8584 19.3816V18.7626ZM21.8584 15.6674C21.8584 15.5032 21.7931 15.3458 21.677 15.2297C21.5609 15.1136 21.4035 15.0484 21.2393 15.0484C21.0751 15.0484 20.9176 15.1136 20.8015 15.2297C20.6854 15.3458 20.6202 15.5032 20.6202 15.6674V16.2864C20.6202 16.4506 20.6854 16.6081 20.8015 16.7241C20.9176 16.8402 21.0751 16.9055 21.2393 16.9055C21.4035 16.9055 21.5609 16.8402 21.677 16.7241C21.7931 16.6081 21.8584 16.4506 21.8584 16.2864V15.6674ZM23.7156 20.6197C23.5514 20.6197 23.3939 20.6849 23.2778 20.801C23.1617 20.9171 23.0965 21.0745 23.0965 21.2387V21.8577C23.0965 22.0219 23.1617 22.1793 23.2778 22.2954C23.3939 22.4115 23.5514 22.4767 23.7156 22.4767C23.8798 22.4767 24.0372 22.4115 24.1533 22.2954C24.2694 22.1793 24.3347 22.0219 24.3347 21.8577V21.2387C24.3347 21.0745 24.2694 20.9171 24.1533 20.801C24.0372 20.6849 23.8798 20.6197 23.7156 20.6197ZM24.3347 18.1435C24.3347 17.9793 24.2694 17.8219 24.1533 17.7058C24.0372 17.5897 23.8798 17.5245 23.7156 17.5245C23.5514 17.5245 23.3939 17.5897 23.2778 17.7058C23.1617 17.8219 23.0965 17.9793 23.0965 18.1435V18.7626C23.0965 18.9267 23.1617 19.0842 23.2778 19.2003C23.3939 19.3164 23.5514 19.3816 23.7156 19.3816C23.8798 19.3816 24.0372 19.3164 24.1533 19.2003C24.2694 19.0842 24.3347 18.9267 24.3347 18.7626V18.1435ZM23.0965 15.6674C23.0965 15.8316 23.1617 15.989 23.2778 16.1051C23.3939 16.2212 23.5514 16.2864 23.7156 16.2864C23.8798 16.2864 24.0372 16.2212 24.1533 16.1051C24.2694 15.989 24.3347 15.8316 24.3347 15.6674V15.0484C24.3347 14.8842 24.2694 14.7267 24.1533 14.6106C24.0372 14.4946 23.8798 14.4293 23.7156 14.4293C23.5514 14.4293 23.3939 14.4946 23.2778 14.6106C23.1617 14.7267 23.0965 14.8842 23.0965 15.0484V15.6674ZM19.382 23.0958C19.382 22.9316 19.3168 22.7741 19.2007 22.6581C19.0846 22.542 18.9271 22.4767 18.763 22.4767C18.5988 22.4767 18.4413 22.542 18.3252 22.6581C18.2091 22.7741 18.1439 22.9316 18.1439 23.0958V23.7148C18.1439 23.879 18.2091 24.0364 18.3252 24.1525C18.4413 24.2686 18.5988 24.3338 18.763 24.3338C18.9271 24.3338 19.0846 24.2686 19.2007 24.1525C19.3168 24.0364 19.382 23.879 19.382 23.7148V23.0958ZM18.763 25.5719C18.5988 25.5719 18.4413 25.6371 18.3252 25.7532C18.2091 25.8693 18.1439 26.0268 18.1439 26.1909V26.81C18.1439 26.9741 18.2091 27.1316 18.3252 27.2477C18.4413 27.3638 18.5988 27.429 18.763 27.429C18.9271 27.429 19.0846 27.3638 19.2007 27.2477C19.3168 27.1316 19.382 26.9741 19.382 26.81V26.1909C19.382 26.0268 19.3168 25.8693 19.2007 25.7532C19.0846 25.6371 18.9271 25.5719 18.763 25.5719ZM19.382 20.0006C19.382 19.8364 19.3168 19.679 19.2007 19.5629C19.0846 19.4468 18.9271 19.3816 18.763 19.3816C18.5988 19.3816 18.4413 19.4468 18.3252 19.5629C18.2091 19.679 18.1439 19.8364 18.1439 20.0006V20.6197C18.1439 20.7838 18.2091 20.9413 18.3252 21.0574C18.4413 21.1735 18.5988 21.2387 18.763 21.2387C18.9271 21.2387 19.0846 21.1735 19.2007 21.0574C19.3168 20.9413 19.382 20.7838 19.382 20.6197V20.0006ZM16.9057 22.4767C16.9057 22.3126 16.8405 22.1551 16.7244 22.039C16.6083 21.9229 16.4508 21.8577 16.2866 21.8577C16.1224 21.8577 15.965 21.9229 15.8489 22.039C15.7328 22.1551 15.6676 22.3126 15.6676 22.4767V23.0958C15.6676 23.26 15.7328 23.4174 15.8489 23.5335C15.965 23.6496 16.1224 23.7148 16.2866 23.7148C16.4508 23.7148 16.6083 23.6496 16.7244 23.5335C16.8405 23.4174 16.9057 23.26 16.9057 23.0958V22.4767ZM16.2866 24.9529C16.1224 24.9529 15.965 25.0181 15.8489 25.1342C15.7328 25.2503 15.6676 25.4077 15.6676 25.5719V26.1909C15.6676 26.3551 15.7328 26.5126 15.8489 26.6287C15.965 26.7448 16.1224 26.81 16.2866 26.81C16.4508 26.81 16.6083 26.7448 16.7244 26.6287C16.8405 26.5126 16.9057 26.3551 16.9057 26.1909V25.5719C16.9057 25.4077 16.8405 25.2503 16.7244 25.1342C16.6083 25.0181 16.4508 24.9529 16.2866 24.9529ZM16.9057 19.3816C16.9057 19.2174 16.8405 19.06 16.7244 18.9439C16.6083 18.8278 16.4508 18.7626 16.2866 18.7626C16.1224 18.7626 15.965 18.8278 15.8489 18.9439C15.7328 19.06 15.6676 19.2174 15.6676 19.3816V20.0006C15.6676 20.1648 15.7328 20.3222 15.8489 20.4383C15.965 20.5544 16.1224 20.6197 16.2866 20.6197C16.4508 20.6197 16.6083 20.5544 16.7244 20.4383C16.8405 20.3222 16.9057 20.1648 16.9057 20.0006V19.3816ZM19.382 16.9055C19.382 16.7413 19.3168 16.5838 19.2007 16.4677C19.0846 16.3516 18.9271 16.2864 18.763 16.2864C18.5988 16.2864 18.4413 16.3516 18.3252 16.4677C18.2091 16.5838 18.1439 16.7413 18.1439 16.9055V17.5245C18.1439 17.6887 18.2091 17.8461 18.3252 17.9622C18.4413 18.0783 18.5988 18.1435 18.763 18.1435C18.9271 18.1435 19.0846 18.0783 19.2007 17.9622C19.3168 17.8461 19.382 17.6887 19.382 17.5245V16.9055Z"/>
</mask>
<path d="M7.1812 28.7692C7.86341 29.6438 8.23539 30.7205 8.23859 31.8297V36.7145C8.23859 37.207 8.43426 37.6794 8.78256 38.0276C9.13086 38.3759 9.60326 38.5716 10.0958 38.5716H22.4774C22.97 38.5716 23.4424 38.3759 23.7907 38.0276C24.139 37.6794 24.3347 37.207 24.3347 36.7145V35.3278C26.3583 35.0386 28.2843 34.2729 29.954 33.0938L34.9376 38.0832C35.2555 38.3957 35.6837 38.5705 36.1295 38.5698C36.5753 38.5691 37.0029 38.393 37.3199 38.0794L38.0819 37.318C38.3957 37.0002 38.5716 36.5717 38.5716 36.1252C38.5716 35.6786 38.3957 35.2501 38.0819 34.9323L33.0959 29.9528C34.2551 28.3154 35.0184 26.4314 35.3256 24.4489C35.6329 22.4664 35.4757 20.4397 34.8664 18.5283C34.2572 16.6169 33.2125 14.8731 31.8146 13.434C30.4168 11.995 28.704 10.9 26.811 10.2354V7.10557C26.8185 6.32394 26.5376 5.56696 26.0221 4.97939C25.5065 4.39181 24.7925 4.01487 24.0165 3.92065C23.5882 3.87868 23.1558 3.92648 22.747 4.06099C22.3382 4.1955 21.962 4.41377 21.6423 4.70187C21.4722 4.22646 21.1875 3.80035 20.8132 3.46135C20.439 3.12234 19.987 2.8809 19.4971 2.75844C19.0072 2.63598 18.4947 2.63629 18.005 2.75933C17.5152 2.88237 17.0634 3.12435 16.6896 3.4638C16.5194 2.98766 16.2341 2.56099 15.8591 2.22172C15.4841 1.88246 15.0311 1.64114 14.5403 1.51922C14.0496 1.3973 13.5363 1.39857 13.0461 1.52291C12.5559 1.64726 12.1041 1.89082 11.7308 2.23193C11.4815 2.45774 11.2709 2.72291 11.1074 3.01686C11.0528 2.95939 10.996 2.90405 10.9372 2.85096C10.6171 2.56136 10.2402 2.34175 9.83038 2.20616C9.42061 2.07057 8.98704 2.022 8.55741 2.06355C7.78128 2.15764 7.06707 2.53452 6.55139 3.12211C6.03571 3.70969 5.75476 4.46675 5.76227 5.24847V7.65836C4.56599 7.81067 3.46618 8.39355 2.66857 9.29797C1.87096 10.2024 1.43019 11.3664 1.42871 12.5722V19.3135C1.43261 20.6993 1.89737 22.0445 2.74983 23.1373L7.1812 28.7692ZM37.2066 36.4452L36.4451 37.206C36.3603 37.2891 36.2463 37.3356 36.1275 37.3356C36.0088 37.3356 35.8947 37.2891 35.8099 37.206L32.6217 34.0143L34.0146 32.6214L37.2029 35.8057C37.2865 35.8905 37.3337 36.0046 37.3342 36.1236C37.3348 36.2426 37.2888 36.3572 37.2059 36.4427L37.2066 36.4452ZM33.138 31.7449L31.7463 33.1365L30.9378 32.3268C31.4353 31.8986 31.9 31.4339 32.3282 30.9364L33.138 31.7449ZM34.2399 22.4767C34.2399 24.803 33.5501 27.077 32.2576 29.0111C30.9651 30.9453 29.1281 32.4528 26.9787 33.343C24.8294 34.2333 22.4644 34.4662 20.1827 34.0124C17.901 33.5585 15.8051 32.4383 14.1601 30.7935C12.5151 29.1486 11.3948 27.0528 10.9409 24.7713C10.4871 22.4898 10.72 20.1249 11.6103 17.9758C12.5006 15.8266 14.0082 13.9897 15.9425 12.6973C17.8769 11.4049 20.151 10.7151 22.4774 10.7151C25.596 10.7186 28.5858 11.9589 30.791 14.1638C32.9961 16.3688 34.2365 19.3584 34.2399 22.4767ZM2.66687 12.5722C2.6685 11.6953 2.98004 10.8473 3.54646 10.1778C4.11287 9.50835 4.8977 9.06063 5.76227 8.91376V17.5245C5.76227 17.6887 5.82749 17.8461 5.94359 17.9622C6.05969 18.0783 6.21716 18.1435 6.38135 18.1435C6.54554 18.1435 6.703 18.0783 6.8191 17.9622C6.9352 17.8461 7.00043 17.6887 7.00043 17.5245V5.24847C6.99082 4.77393 7.15641 4.31249 7.46556 3.95232C7.77471 3.59215 8.20573 3.35851 8.67628 3.29604C8.93428 3.26953 9.19498 3.29779 9.44131 3.37897C9.68764 3.46015 9.91405 3.59242 10.1057 3.76713C10.2974 3.94163 10.4506 4.1542 10.5555 4.39126C10.6604 4.62831 10.7147 4.88463 10.7149 5.14385C10.7149 5.30803 10.7801 5.46548 10.8962 5.58158C11.0123 5.69767 11.1698 5.76289 11.334 5.76289C11.4982 5.76289 11.6556 5.69767 11.7717 5.58158C11.8878 5.46548 11.9531 5.30803 11.9531 5.14385V4.52482C11.9532 4.26568 12.0076 4.00943 12.1127 3.77256C12.2178 3.53569 12.3713 3.32344 12.5634 3.14946C12.7555 2.97548 12.9818 2.84361 13.2279 2.76235C13.474 2.6811 13.7344 2.65224 13.9923 2.67763C14.4626 2.74023 14.8934 2.97384 15.2024 3.33386C15.5114 3.69389 15.677 4.1551 15.6675 4.62944V5.76289C15.6675 5.92706 15.7328 6.08452 15.8489 6.20061C15.965 6.3167 16.1224 6.38192 16.2866 6.38192C16.4508 6.38192 16.6083 6.3167 16.7244 6.20061C16.8405 6.08452 16.9057 5.92706 16.9057 5.76289C16.906 5.50377 16.9603 5.24756 17.0652 5.01062C17.1701 4.77368 17.3233 4.56121 17.5149 4.38678C17.7066 4.21189 17.9331 4.07951 18.1795 3.99832C18.426 3.91713 18.6868 3.88898 18.945 3.91569C19.4153 3.97829 19.8461 4.2119 20.1551 4.57193C20.4641 4.93195 20.6297 5.39316 20.6202 5.8675V7.00095C20.6202 7.16513 20.6854 7.32258 20.8015 7.43867C20.9176 7.55476 21.0751 7.61998 21.2393 7.61998C21.4035 7.61998 21.5609 7.55476 21.677 7.43867C21.7931 7.32258 21.8583 7.16513 21.8583 7.00095C21.8586 6.74183 21.913 6.48563 22.0179 6.24869C22.1228 6.01175 22.2759 5.79928 22.4675 5.62484C22.6594 5.45018 22.8859 5.31795 23.1323 5.23678C23.3787 5.15561 23.6395 5.12732 23.8976 5.15376C24.3679 5.21635 24.7987 5.44997 25.1077 5.80999C25.4167 6.17001 25.5823 6.63123 25.5728 7.10557V9.86521C23.7873 9.42627 21.929 9.3712 20.1207 9.70365C18.3124 10.0361 16.5952 10.7485 15.0826 11.7937C13.57 12.839 12.2965 14.1933 11.3462 15.7672C10.3959 17.3411 9.7904 19.0988 9.5698 20.924C9.3492 22.7492 9.51848 24.6005 10.0665 26.3554C10.6144 28.1104 11.5286 29.7291 12.7487 31.1046C13.9687 32.48 15.4667 33.581 17.1438 34.3346C18.8208 35.0882 20.6388 35.4774 22.4774 35.4764C22.6867 35.4764 22.8897 35.4547 23.0965 35.4448V36.7145C23.0965 36.8787 23.0313 37.0361 22.9152 37.1522C22.7991 37.2683 22.6416 37.3335 22.4774 37.3335H10.0958C9.93164 37.3335 9.77417 37.2683 9.65807 37.1522C9.54197 37.0361 9.47675 36.8787 9.47675 36.7145V31.8297C9.47285 30.4438 9.00808 29.0987 8.15563 28.0059L3.72426 22.3727C3.04231 21.4984 2.67035 20.4223 2.66687 19.3135V12.5722Z" fill="#001C15"/>
<path d="M11.9531 22.4767C11.9533 24.445 12.5055 26.3737 13.547 28.0438C14.5885 29.7139 16.0775 31.0585 17.8449 31.9249C19.6123 32.7912 21.5873 33.1446 23.5455 32.9448C25.5037 32.7451 27.3666 32.0002 28.9227 30.7949C30.4788 29.5895 31.6656 27.972 32.3484 26.1259C33.0311 24.2799 33.1825 22.2795 32.7852 20.3518C32.388 18.4241 31.458 16.6464 30.101 15.2206C28.744 13.7949 27.0144 12.7783 25.1085 12.2862C24.951 12.2492 24.7852 12.2753 24.6466 12.359C24.5081 12.4427 24.4079 12.5774 24.3674 12.734C24.3269 12.8907 24.3495 13.0571 24.4301 13.1974C24.5108 13.3377 24.6432 13.4408 24.799 13.4847C25.0619 13.5528 25.3198 13.6318 25.5728 13.7218V20.8054C25.5742 21.412 25.4477 22.0121 25.2014 22.5665L23.5813 26.2151C23.2621 26.928 23.097 27.7003 23.0965 28.4814V31.7307C22.891 31.7443 22.6867 31.7622 22.4774 31.7622C20.0146 31.7622 17.6526 30.7839 15.9111 29.0426C14.1696 27.3012 13.1912 24.9394 13.1912 22.4767C13.1912 20.0141 14.1696 17.6523 15.9111 15.9109C17.6526 14.1696 20.0146 13.1913 22.4774 13.1913C22.6416 13.1913 22.7991 13.126 22.9152 13.01C23.0313 12.8939 23.0965 12.7364 23.0965 12.5722C23.0965 12.4081 23.0313 12.2506 22.9152 12.1345C22.7991 12.0184 22.6416 11.9532 22.4774 11.9532C19.6872 11.9563 17.0121 13.066 15.039 15.0389C13.066 17.0118 11.9562 19.6867 11.9531 22.4767ZM24.3347 28.4814C24.3333 27.8747 24.4598 27.2746 24.7061 26.7202L26.3262 23.0716C26.6454 22.3587 26.8105 21.5865 26.811 20.8054V14.2684C28.5036 15.1622 29.8786 16.5571 30.7479 18.2623C31.6171 19.9675 31.9382 21.8996 31.6671 23.7942C31.3961 25.6889 30.5461 27.4535 29.2335 28.8466C27.921 30.2397 26.21 31.1931 24.3347 31.5765V28.4814Z" fill="#001C15"/>
<path d="M21.2393 27.429C21.0751 27.429 20.9176 27.4942 20.8015 27.6103C20.6854 27.7264 20.6202 27.8839 20.6202 28.048V28.6671C20.6202 28.8312 20.6854 28.9887 20.8015 29.1048C20.9176 29.2209 21.0751 29.2861 21.2393 29.2861C21.4035 29.2861 21.5609 29.2209 21.677 29.1048C21.7931 28.9887 21.8584 28.8312 21.8584 28.6671V28.048C21.8584 27.8839 21.7931 27.7264 21.677 27.6103C21.5609 27.4942 21.4035 27.429 21.2393 27.429ZM21.8584 24.9529C21.8584 24.7887 21.7931 24.6312 21.677 24.5152C21.5609 24.3991 21.4035 24.3338 21.2393 24.3338C21.0751 24.3338 20.9176 24.3991 20.8015 24.5152C20.6854 24.6312 20.6202 24.7887 20.6202 24.9529V25.5719C20.6202 25.7361 20.6854 25.8935 20.8015 26.0096C20.9176 26.1257 21.0751 26.1909 21.2393 26.1909C21.4035 26.1909 21.5609 26.1257 21.677 26.0096C21.7931 25.8935 21.8584 25.7361 21.8584 25.5719V24.9529ZM21.8584 21.8577C21.8584 21.6935 21.7931 21.5361 21.677 21.42C21.5609 21.3039 21.4035 21.2387 21.2393 21.2387C21.0751 21.2387 20.9176 21.3039 20.8015 21.42C20.6854 21.5361 20.6202 21.6935 20.6202 21.8577V22.4767C20.6202 22.6409 20.6854 22.7984 20.8015 22.9145C20.9176 23.0306 21.0751 23.0958 21.2393 23.0958C21.4035 23.0958 21.5609 23.0306 21.677 22.9145C21.7931 22.7984 21.8584 22.6409 21.8584 22.4767V21.8577ZM21.8584 18.7626C21.8584 18.5984 21.7931 18.4409 21.677 18.3248C21.5609 18.2087 21.4035 18.1435 21.2393 18.1435C21.0751 18.1435 20.9176 18.2087 20.8015 18.3248C20.6854 18.4409 20.6202 18.5984 20.6202 18.7626V19.3816C20.6202 19.5458 20.6854 19.7032 20.8015 19.8193C20.9176 19.9354 21.0751 20.0006 21.2393 20.0006C21.4035 20.0006 21.5609 19.9354 21.677 19.8193C21.7931 19.7032 21.8584 19.5458 21.8584 19.3816V18.7626ZM21.8584 15.6674C21.8584 15.5032 21.7931 15.3458 21.677 15.2297C21.5609 15.1136 21.4035 15.0484 21.2393 15.0484C21.0751 15.0484 20.9176 15.1136 20.8015 15.2297C20.6854 15.3458 20.6202 15.5032 20.6202 15.6674V16.2864C20.6202 16.4506 20.6854 16.6081 20.8015 16.7241C20.9176 16.8402 21.0751 16.9055 21.2393 16.9055C21.4035 16.9055 21.5609 16.8402 21.677 16.7241C21.7931 16.6081 21.8584 16.4506 21.8584 16.2864V15.6674ZM23.7156 20.6197C23.5514 20.6197 23.3939 20.6849 23.2778 20.801C23.1617 20.9171 23.0965 21.0745 23.0965 21.2387V21.8577C23.0965 22.0219 23.1617 22.1793 23.2778 22.2954C23.3939 22.4115 23.5514 22.4767 23.7156 22.4767C23.8798 22.4767 24.0372 22.4115 24.1533 22.2954C24.2694 22.1793 24.3347 22.0219 24.3347 21.8577V21.2387C24.3347 21.0745 24.2694 20.9171 24.1533 20.801C24.0372 20.6849 23.8798 20.6197 23.7156 20.6197ZM24.3347 18.1435C24.3347 17.9793 24.2694 17.8219 24.1533 17.7058C24.0372 17.5897 23.8798 17.5245 23.7156 17.5245C23.5514 17.5245 23.3939 17.5897 23.2778 17.7058C23.1617 17.8219 23.0965 17.9793 23.0965 18.1435V18.7626C23.0965 18.9267 23.1617 19.0842 23.2778 19.2003C23.3939 19.3164 23.5514 19.3816 23.7156 19.3816C23.8798 19.3816 24.0372 19.3164 24.1533 19.2003C24.2694 19.0842 24.3347 18.9267 24.3347 18.7626V18.1435ZM23.0965 15.6674C23.0965 15.8316 23.1617 15.989 23.2778 16.1051C23.3939 16.2212 23.5514 16.2864 23.7156 16.2864C23.8798 16.2864 24.0372 16.2212 24.1533 16.1051C24.2694 15.989 24.3347 15.8316 24.3347 15.6674V15.0484C24.3347 14.8842 24.2694 14.7267 24.1533 14.6106C24.0372 14.4946 23.8798 14.4293 23.7156 14.4293C23.5514 14.4293 23.3939 14.4946 23.2778 14.6106C23.1617 14.7267 23.0965 14.8842 23.0965 15.0484V15.6674ZM19.382 23.0958C19.382 22.9316 19.3168 22.7741 19.2007 22.6581C19.0846 22.542 18.9271 22.4767 18.763 22.4767C18.5988 22.4767 18.4413 22.542 18.3252 22.6581C18.2091 22.7741 18.1439 22.9316 18.1439 23.0958V23.7148C18.1439 23.879 18.2091 24.0364 18.3252 24.1525C18.4413 24.2686 18.5988 24.3338 18.763 24.3338C18.9271 24.3338 19.0846 24.2686 19.2007 24.1525C19.3168 24.0364 19.382 23.879 19.382 23.7148V23.0958ZM18.763 25.5719C18.5988 25.5719 18.4413 25.6371 18.3252 25.7532C18.2091 25.8693 18.1439 26.0268 18.1439 26.1909V26.81C18.1439 26.9741 18.2091 27.1316 18.3252 27.2477C18.4413 27.3638 18.5988 27.429 18.763 27.429C18.9271 27.429 19.0846 27.3638 19.2007 27.2477C19.3168 27.1316 19.382 26.9741 19.382 26.81V26.1909C19.382 26.0268 19.3168 25.8693 19.2007 25.7532C19.0846 25.6371 18.9271 25.5719 18.763 25.5719ZM19.382 20.0006C19.382 19.8364 19.3168 19.679 19.2007 19.5629C19.0846 19.4468 18.9271 19.3816 18.763 19.3816C18.5988 19.3816 18.4413 19.4468 18.3252 19.5629C18.2091 19.679 18.1439 19.8364 18.1439 20.0006V20.6197C18.1439 20.7838 18.2091 20.9413 18.3252 21.0574C18.4413 21.1735 18.5988 21.2387 18.763 21.2387C18.9271 21.2387 19.0846 21.1735 19.2007 21.0574C19.3168 20.9413 19.382 20.7838 19.382 20.6197V20.0006ZM16.9057 22.4767C16.9057 22.3126 16.8405 22.1551 16.7244 22.039C16.6083 21.9229 16.4508 21.8577 16.2866 21.8577C16.1224 21.8577 15.965 21.9229 15.8489 22.039C15.7328 22.1551 15.6676 22.3126 15.6676 22.4767V23.0958C15.6676 23.26 15.7328 23.4174 15.8489 23.5335C15.965 23.6496 16.1224 23.7148 16.2866 23.7148C16.4508 23.7148 16.6083 23.6496 16.7244 23.5335C16.8405 23.4174 16.9057 23.26 16.9057 23.0958V22.4767ZM16.2866 24.9529C16.1224 24.9529 15.965 25.0181 15.8489 25.1342C15.7328 25.2503 15.6676 25.4077 15.6676 25.5719V26.1909C15.6676 26.3551 15.7328 26.5126 15.8489 26.6287C15.965 26.7448 16.1224 26.81 16.2866 26.81C16.4508 26.81 16.6083 26.7448 16.7244 26.6287C16.8405 26.5126 16.9057 26.3551 16.9057 26.1909V25.5719C16.9057 25.4077 16.8405 25.2503 16.7244 25.1342C16.6083 25.0181 16.4508 24.9529 16.2866 24.9529ZM16.9057 19.3816C16.9057 19.2174 16.8405 19.06 16.7244 18.9439C16.6083 18.8278 16.4508 18.7626 16.2866 18.7626C16.1224 18.7626 15.965 18.8278 15.8489 18.9439C15.7328 19.06 15.6676 19.2174 15.6676 19.3816V20.0006C15.6676 20.1648 15.7328 20.3222 15.8489 20.4383C15.965 20.5544 16.1224 20.6197 16.2866 20.6197C16.4508 20.6197 16.6083 20.5544 16.7244 20.4383C16.8405 20.3222 16.9057 20.1648 16.9057 20.0006V19.3816ZM19.382 16.9055C19.382 16.7413 19.3168 16.5838 19.2007 16.4677C19.0846 16.3516 18.9271 16.2864 18.763 16.2864C18.5988 16.2864 18.4413 16.3516 18.3252 16.4677C18.2091 16.5838 18.1439 16.7413 18.1439 16.9055V17.5245C18.1439 17.6887 18.2091 17.8461 18.3252 17.9622C18.4413 18.0783 18.5988 18.1435 18.763 18.1435C18.9271 18.1435 19.0846 18.0783 19.2007 17.9622C19.3168 17.8461 19.382 17.6887 19.382 17.5245V16.9055Z" fill="#001C15"/>
<path d="M7.1812 28.7692C7.86341 29.6438 8.23539 30.7205 8.23859 31.8297V36.7145C8.23859 37.207 8.43426 37.6794 8.78256 38.0276C9.13086 38.3759 9.60326 38.5716 10.0958 38.5716H22.4774C22.97 38.5716 23.4424 38.3759 23.7907 38.0276C24.139 37.6794 24.3347 37.207 24.3347 36.7145V35.3278C26.3583 35.0386 28.2843 34.2729 29.954 33.0938L34.9376 38.0832C35.2555 38.3957 35.6837 38.5705 36.1295 38.5698C36.5753 38.5691 37.0029 38.393 37.3199 38.0794L38.0819 37.318C38.3957 37.0002 38.5716 36.5717 38.5716 36.1252C38.5716 35.6786 38.3957 35.2501 38.0819 34.9323L33.0959 29.9528C34.2551 28.3154 35.0184 26.4314 35.3256 24.4489C35.6329 22.4664 35.4757 20.4397 34.8664 18.5283C34.2572 16.6169 33.2125 14.8731 31.8146 13.434C30.4168 11.995 28.704 10.9 26.811 10.2354V7.10557C26.8185 6.32394 26.5376 5.56696 26.0221 4.97939C25.5065 4.39181 24.7925 4.01487 24.0165 3.92065C23.5882 3.87868 23.1558 3.92648 22.747 4.06099C22.3382 4.1955 21.962 4.41377 21.6423 4.70187C21.4722 4.22646 21.1875 3.80035 20.8132 3.46135C20.439 3.12234 19.987 2.8809 19.4971 2.75844C19.0072 2.63598 18.4947 2.63629 18.005 2.75933C17.5152 2.88237 17.0634 3.12435 16.6896 3.4638C16.5194 2.98766 16.2341 2.56099 15.8591 2.22172C15.4841 1.88246 15.0311 1.64114 14.5403 1.51922C14.0496 1.3973 13.5363 1.39857 13.0461 1.52291C12.5559 1.64726 12.1041 1.89082 11.7308 2.23193C11.4815 2.45774 11.2709 2.72291 11.1074 3.01686C11.0528 2.95939 10.996 2.90405 10.9372 2.85096C10.6171 2.56136 10.2402 2.34175 9.83038 2.20616C9.42061 2.07057 8.98704 2.022 8.55741 2.06355C7.78128 2.15764 7.06707 2.53452 6.55139 3.12211C6.03571 3.70969 5.75476 4.46675 5.76227 5.24847V7.65836C4.56599 7.81067 3.46618 8.39355 2.66857 9.29797C1.87096 10.2024 1.43019 11.3664 1.42871 12.5722V19.3135C1.43261 20.6993 1.89737 22.0445 2.74983 23.1373L7.1812 28.7692ZM37.2066 36.4452L36.4451 37.206C36.3603 37.2891 36.2463 37.3356 36.1275 37.3356C36.0088 37.3356 35.8947 37.2891 35.8099 37.206L32.6217 34.0143L34.0146 32.6214L37.2029 35.8057C37.2865 35.8905 37.3337 36.0046 37.3342 36.1236C37.3348 36.2426 37.2888 36.3572 37.2059 36.4427L37.2066 36.4452ZM33.138 31.7449L31.7463 33.1365L30.9378 32.3268C31.4353 31.8986 31.9 31.4339 32.3282 30.9364L33.138 31.7449ZM34.2399 22.4767C34.2399 24.803 33.5501 27.077 32.2576 29.0111C30.9651 30.9453 29.1281 32.4528 26.9787 33.343C24.8294 34.2333 22.4644 34.4662 20.1827 34.0124C17.901 33.5585 15.8051 32.4383 14.1601 30.7935C12.5151 29.1486 11.3948 27.0528 10.9409 24.7713C10.4871 22.4898 10.72 20.1249 11.6103 17.9758C12.5006 15.8266 14.0082 13.9897 15.9425 12.6973C17.8769 11.4049 20.151 10.7151 22.4774 10.7151C25.596 10.7186 28.5858 11.9589 30.791 14.1638C32.9961 16.3688 34.2365 19.3584 34.2399 22.4767ZM2.66687 12.5722C2.6685 11.6953 2.98004 10.8473 3.54646 10.1778C4.11287 9.50835 4.8977 9.06063 5.76227 8.91376V17.5245C5.76227 17.6887 5.82749 17.8461 5.94359 17.9622C6.05969 18.0783 6.21716 18.1435 6.38135 18.1435C6.54554 18.1435 6.703 18.0783 6.8191 17.9622C6.9352 17.8461 7.00043 17.6887 7.00043 17.5245V5.24847C6.99082 4.77393 7.15641 4.31249 7.46556 3.95232C7.77471 3.59215 8.20573 3.35851 8.67628 3.29604C8.93428 3.26953 9.19498 3.29779 9.44131 3.37897C9.68764 3.46015 9.91405 3.59242 10.1057 3.76713C10.2974 3.94163 10.4506 4.1542 10.5555 4.39126C10.6604 4.62831 10.7147 4.88463 10.7149 5.14385C10.7149 5.30803 10.7801 5.46548 10.8962 5.58158C11.0123 5.69767 11.1698 5.76289 11.334 5.76289C11.4982 5.76289 11.6556 5.69767 11.7717 5.58158C11.8878 5.46548 11.9531 5.30803 11.9531 5.14385V4.52482C11.9532 4.26568 12.0076 4.00943 12.1127 3.77256C12.2178 3.53569 12.3713 3.32344 12.5634 3.14946C12.7555 2.97548 12.9818 2.84361 13.2279 2.76235C13.474 2.6811 13.7344 2.65224 13.9923 2.67763C14.4626 2.74023 14.8934 2.97384 15.2024 3.33386C15.5114 3.69389 15.677 4.1551 15.6675 4.62944V5.76289C15.6675 5.92706 15.7328 6.08452 15.8489 6.20061C15.965 6.3167 16.1224 6.38192 16.2866 6.38192C16.4508 6.38192 16.6083 6.3167 16.7244 6.20061C16.8405 6.08452 16.9057 5.92706 16.9057 5.76289C16.906 5.50377 16.9603 5.24756 17.0652 5.01062C17.1701 4.77368 17.3233 4.56121 17.5149 4.38678C17.7066 4.21189 17.9331 4.07951 18.1795 3.99832C18.426 3.91713 18.6868 3.88898 18.945 3.91569C19.4153 3.97829 19.8461 4.2119 20.1551 4.57193C20.4641 4.93195 20.6297 5.39316 20.6202 5.8675V7.00095C20.6202 7.16513 20.6854 7.32258 20.8015 7.43867C20.9176 7.55476 21.0751 7.61998 21.2393 7.61998C21.4035 7.61998 21.5609 7.55476 21.677 7.43867C21.7931 7.32258 21.8583 7.16513 21.8583 7.00095C21.8586 6.74183 21.913 6.48563 22.0179 6.24869C22.1228 6.01175 22.2759 5.79928 22.4675 5.62484C22.6594 5.45018 22.8859 5.31795 23.1323 5.23678C23.3787 5.15561 23.6395 5.12732 23.8976 5.15376C24.3679 5.21635 24.7987 5.44997 25.1077 5.80999C25.4167 6.17001 25.5823 6.63123 25.5728 7.10557V9.86521C23.7873 9.42627 21.929 9.3712 20.1207 9.70365C18.3124 10.0361 16.5952 10.7485 15.0826 11.7937C13.57 12.839 12.2965 14.1933 11.3462 15.7672C10.3959 17.3411 9.7904 19.0988 9.5698 20.924C9.3492 22.7492 9.51848 24.6005 10.0665 26.3554C10.6144 28.1104 11.5286 29.7291 12.7487 31.1046C13.9687 32.48 15.4667 33.581 17.1438 34.3346C18.8208 35.0882 20.6388 35.4774 22.4774 35.4764C22.6867 35.4764 22.8897 35.4547 23.0965 35.4448V36.7145C23.0965 36.8787 23.0313 37.0361 22.9152 37.1522C22.7991 37.2683 22.6416 37.3335 22.4774 37.3335H10.0958C9.93164 37.3335 9.77417 37.2683 9.65807 37.1522C9.54197 37.0361 9.47675 36.8787 9.47675 36.7145V31.8297C9.47285 30.4438 9.00808 29.0987 8.15563 28.0059L3.72426 22.3727C3.04231 21.4984 2.67035 20.4223 2.66687 19.3135V12.5722Z" stroke="#001C15" stroke-width="17.0667" mask="url(#path-1-inside-1_667_2237)"/>
<path d="M11.9531 22.4767C11.9533 24.445 12.5055 26.3737 13.547 28.0438C14.5885 29.7139 16.0775 31.0585 17.8449 31.9249C19.6123 32.7912 21.5873 33.1446 23.5455 32.9448C25.5037 32.7451 27.3666 32.0002 28.9227 30.7949C30.4788 29.5895 31.6656 27.972 32.3484 26.1259C33.0311 24.2799 33.1825 22.2795 32.7852 20.3518C32.388 18.4241 31.458 16.6464 30.101 15.2206C28.744 13.7949 27.0144 12.7783 25.1085 12.2862C24.951 12.2492 24.7852 12.2753 24.6466 12.359C24.5081 12.4427 24.4079 12.5774 24.3674 12.734C24.3269 12.8907 24.3495 13.0571 24.4301 13.1974C24.5108 13.3377 24.6432 13.4408 24.799 13.4847C25.0619 13.5528 25.3198 13.6318 25.5728 13.7218V20.8054C25.5742 21.412 25.4477 22.0121 25.2014 22.5665L23.5813 26.2151C23.2621 26.928 23.097 27.7003 23.0965 28.4814V31.7307C22.891 31.7443 22.6867 31.7622 22.4774 31.7622C20.0146 31.7622 17.6526 30.7839 15.9111 29.0426C14.1696 27.3012 13.1912 24.9394 13.1912 22.4767C13.1912 20.0141 14.1696 17.6523 15.9111 15.9109C17.6526 14.1696 20.0146 13.1913 22.4774 13.1913C22.6416 13.1913 22.7991 13.126 22.9152 13.01C23.0313 12.8939 23.0965 12.7364 23.0965 12.5722C23.0965 12.4081 23.0313 12.2506 22.9152 12.1345C22.7991 12.0184 22.6416 11.9532 22.4774 11.9532C19.6872 11.9563 17.0121 13.066 15.039 15.0389C13.066 17.0118 11.9562 19.6867 11.9531 22.4767ZM24.3347 28.4814C24.3333 27.8747 24.4598 27.2746 24.7061 26.7202L26.3262 23.0716C26.6454 22.3587 26.8105 21.5865 26.811 20.8054V14.2684C28.5036 15.1622 29.8786 16.5571 30.7479 18.2623C31.6171 19.9675 31.9382 21.8996 31.6671 23.7942C31.3961 25.6889 30.5461 27.4535 29.2335 28.8466C27.921 30.2397 26.21 31.1931 24.3347 31.5765V28.4814Z" stroke="#001C15" stroke-width="17.0667" mask="url(#path-1-inside-1_667_2237)"/>
<path d="M21.2393 27.429C21.0751 27.429 20.9176 27.4942 20.8015 27.6103C20.6854 27.7264 20.6202 27.8839 20.6202 28.048V28.6671C20.6202 28.8312 20.6854 28.9887 20.8015 29.1048C20.9176 29.2209 21.0751 29.2861 21.2393 29.2861C21.4035 29.2861 21.5609 29.2209 21.677 29.1048C21.7931 28.9887 21.8584 28.8312 21.8584 28.6671V28.048C21.8584 27.8839 21.7931 27.7264 21.677 27.6103C21.5609 27.4942 21.4035 27.429 21.2393 27.429ZM21.8584 24.9529C21.8584 24.7887 21.7931 24.6312 21.677 24.5152C21.5609 24.3991 21.4035 24.3338 21.2393 24.3338C21.0751 24.3338 20.9176 24.3991 20.8015 24.5152C20.6854 24.6312 20.6202 24.7887 20.6202 24.9529V25.5719C20.6202 25.7361 20.6854 25.8935 20.8015 26.0096C20.9176 26.1257 21.0751 26.1909 21.2393 26.1909C21.4035 26.1909 21.5609 26.1257 21.677 26.0096C21.7931 25.8935 21.8584 25.7361 21.8584 25.5719V24.9529ZM21.8584 21.8577C21.8584 21.6935 21.7931 21.5361 21.677 21.42C21.5609 21.3039 21.4035 21.2387 21.2393 21.2387C21.0751 21.2387 20.9176 21.3039 20.8015 21.42C20.6854 21.5361 20.6202 21.6935 20.6202 21.8577V22.4767C20.6202 22.6409 20.6854 22.7984 20.8015 22.9145C20.9176 23.0306 21.0751 23.0958 21.2393 23.0958C21.4035 23.0958 21.5609 23.0306 21.677 22.9145C21.7931 22.7984 21.8584 22.6409 21.8584 22.4767V21.8577ZM21.8584 18.7626C21.8584 18.5984 21.7931 18.4409 21.677 18.3248C21.5609 18.2087 21.4035 18.1435 21.2393 18.1435C21.0751 18.1435 20.9176 18.2087 20.8015 18.3248C20.6854 18.4409 20.6202 18.5984 20.6202 18.7626V19.3816C20.6202 19.5458 20.6854 19.7032 20.8015 19.8193C20.9176 19.9354 21.0751 20.0006 21.2393 20.0006C21.4035 20.0006 21.5609 19.9354 21.677 19.8193C21.7931 19.7032 21.8584 19.5458 21.8584 19.3816V18.7626ZM21.8584 15.6674C21.8584 15.5032 21.7931 15.3458 21.677 15.2297C21.5609 15.1136 21.4035 15.0484 21.2393 15.0484C21.0751 15.0484 20.9176 15.1136 20.8015 15.2297C20.6854 15.3458 20.6202 15.5032 20.6202 15.6674V16.2864C20.6202 16.4506 20.6854 16.6081 20.8015 16.7241C20.9176 16.8402 21.0751 16.9055 21.2393 16.9055C21.4035 16.9055 21.5609 16.8402 21.677 16.7241C21.7931 16.6081 21.8584 16.4506 21.8584 16.2864V15.6674ZM23.7156 20.6197C23.5514 20.6197 23.3939 20.6849 23.2778 20.801C23.1617 20.9171 23.0965 21.0745 23.0965 21.2387V21.8577C23.0965 22.0219 23.1617 22.1793 23.2778 22.2954C23.3939 22.4115 23.5514 22.4767 23.7156 22.4767C23.8798 22.4767 24.0372 22.4115 24.1533 22.2954C24.2694 22.1793 24.3347 22.0219 24.3347 21.8577V21.2387C24.3347 21.0745 24.2694 20.9171 24.1533 20.801C24.0372 20.6849 23.8798 20.6197 23.7156 20.6197ZM24.3347 18.1435C24.3347 17.9793 24.2694 17.8219 24.1533 17.7058C24.0372 17.5897 23.8798 17.5245 23.7156 17.5245C23.5514 17.5245 23.3939 17.5897 23.2778 17.7058C23.1617 17.8219 23.0965 17.9793 23.0965 18.1435V18.7626C23.0965 18.9267 23.1617 19.0842 23.2778 19.2003C23.3939 19.3164 23.5514 19.3816 23.7156 19.3816C23.8798 19.3816 24.0372 19.3164 24.1533 19.2003C24.2694 19.0842 24.3347 18.9267 24.3347 18.7626V18.1435ZM23.0965 15.6674C23.0965 15.8316 23.1617 15.989 23.2778 16.1051C23.3939 16.2212 23.5514 16.2864 23.7156 16.2864C23.8798 16.2864 24.0372 16.2212 24.1533 16.1051C24.2694 15.989 24.3347 15.8316 24.3347 15.6674V15.0484C24.3347 14.8842 24.2694 14.7267 24.1533 14.6106C24.0372 14.4946 23.8798 14.4293 23.7156 14.4293C23.5514 14.4293 23.3939 14.4946 23.2778 14.6106C23.1617 14.7267 23.0965 14.8842 23.0965 15.0484V15.6674ZM19.382 23.0958C19.382 22.9316 19.3168 22.7741 19.2007 22.6581C19.0846 22.542 18.9271 22.4767 18.763 22.4767C18.5988 22.4767 18.4413 22.542 18.3252 22.6581C18.2091 22.7741 18.1439 22.9316 18.1439 23.0958V23.7148C18.1439 23.879 18.2091 24.0364 18.3252 24.1525C18.4413 24.2686 18.5988 24.3338 18.763 24.3338C18.9271 24.3338 19.0846 24.2686 19.2007 24.1525C19.3168 24.0364 19.382 23.879 19.382 23.7148V23.0958ZM18.763 25.5719C18.5988 25.5719 18.4413 25.6371 18.3252 25.7532C18.2091 25.8693 18.1439 26.0268 18.1439 26.1909V26.81C18.1439 26.9741 18.2091 27.1316 18.3252 27.2477C18.4413 27.3638 18.5988 27.429 18.763 27.429C18.9271 27.429 19.0846 27.3638 19.2007 27.2477C19.3168 27.1316 19.382 26.9741 19.382 26.81V26.1909C19.382 26.0268 19.3168 25.8693 19.2007 25.7532C19.0846 25.6371 18.9271 25.5719 18.763 25.5719ZM19.382 20.0006C19.382 19.8364 19.3168 19.679 19.2007 19.5629C19.0846 19.4468 18.9271 19.3816 18.763 19.3816C18.5988 19.3816 18.4413 19.4468 18.3252 19.5629C18.2091 19.679 18.1439 19.8364 18.1439 20.0006V20.6197C18.1439 20.7838 18.2091 20.9413 18.3252 21.0574C18.4413 21.1735 18.5988 21.2387 18.763 21.2387C18.9271 21.2387 19.0846 21.1735 19.2007 21.0574C19.3168 20.9413 19.382 20.7838 19.382 20.6197V20.0006ZM16.9057 22.4767C16.9057 22.3126 16.8405 22.1551 16.7244 22.039C16.6083 21.9229 16.4508 21.8577 16.2866 21.8577C16.1224 21.8577 15.965 21.9229 15.8489 22.039C15.7328 22.1551 15.6676 22.3126 15.6676 22.4767V23.0958C15.6676 23.26 15.7328 23.4174 15.8489 23.5335C15.965 23.6496 16.1224 23.7148 16.2866 23.7148C16.4508 23.7148 16.6083 23.6496 16.7244 23.5335C16.8405 23.4174 16.9057 23.26 16.9057 23.0958V22.4767ZM16.2866 24.9529C16.1224 24.9529 15.965 25.0181 15.8489 25.1342C15.7328 25.2503 15.6676 25.4077 15.6676 25.5719V26.1909C15.6676 26.3551 15.7328 26.5126 15.8489 26.6287C15.965 26.7448 16.1224 26.81 16.2866 26.81C16.4508 26.81 16.6083 26.7448 16.7244 26.6287C16.8405 26.5126 16.9057 26.3551 16.9057 26.1909V25.5719C16.9057 25.4077 16.8405 25.2503 16.7244 25.1342C16.6083 25.0181 16.4508 24.9529 16.2866 24.9529ZM16.9057 19.3816C16.9057 19.2174 16.8405 19.06 16.7244 18.9439C16.6083 18.8278 16.4508 18.7626 16.2866 18.7626C16.1224 18.7626 15.965 18.8278 15.8489 18.9439C15.7328 19.06 15.6676 19.2174 15.6676 19.3816V20.0006C15.6676 20.1648 15.7328 20.3222 15.8489 20.4383C15.965 20.5544 16.1224 20.6197 16.2866 20.6197C16.4508 20.6197 16.6083 20.5544 16.7244 20.4383C16.8405 20.3222 16.9057 20.1648 16.9057 20.0006V19.3816ZM19.382 16.9055C19.382 16.7413 19.3168 16.5838 19.2007 16.4677C19.0846 16.3516 18.9271 16.2864 18.763 16.2864C18.5988 16.2864 18.4413 16.3516 18.3252 16.4677C18.2091 16.5838 18.1439 16.7413 18.1439 16.9055V17.5245C18.1439 17.6887 18.2091 17.8461 18.3252 17.9622C18.4413 18.0783 18.5988 18.1435 18.763 18.1435C18.9271 18.1435 19.0846 18.0783 19.2007 17.9622C19.3168 17.8461 19.382 17.6887 19.382 17.5245V16.9055Z" stroke="#001C15" stroke-width="17.0667" mask="url(#path-1-inside-1_667_2237)"/>
</svg>
