<svg width="52" height="53" viewBox="0 0 52 53" fill="none" xmlns="http://www.w3.org/2000/svg">
<mask id="path-1-inside-1_929_632" fill="white">
<path d="M8.05348 38.7767C9.00858 40.0012 9.52934 41.5085 9.53383 43.0614V49.9001C9.53383 50.5896 9.80777 51.2509 10.2954 51.7385C10.783 52.2261 11.4444 52.5 12.134 52.5H29.4682C30.1578 52.5 30.8191 52.2261 31.3068 51.7385C31.7944 51.2509 32.0683 50.5896 32.0683 49.9001V47.9588C34.9014 47.5539 37.5978 46.4819 39.9355 44.8311L46.9125 51.8162C47.3576 52.2537 47.957 52.4985 48.5811 52.4975C49.2052 52.4966 49.8039 52.2499 50.2476 51.811L51.3145 50.745C51.7537 50.3001 52 49.7002 52 49.075C52 48.4499 51.7537 47.8499 51.3145 47.405L44.334 40.4337C45.9569 38.1414 47.0255 35.5037 47.4557 32.7282C47.8858 29.9528 47.6657 27.1154 46.8128 24.4395C45.9598 21.7635 44.4973 19.3221 42.5403 17.3074C40.5833 15.2927 38.1853 13.7598 35.5352 12.8294V8.4476C35.5457 7.35332 35.1525 6.29355 34.4307 5.47095C33.709 4.64834 32.7093 4.12063 31.6228 3.98871C31.0232 3.92996 30.4179 3.99688 29.8456 4.18519C29.2733 4.37351 28.7466 4.67909 28.299 5.08242C28.0609 4.41684 27.6622 3.8203 27.1383 3.34569C26.6145 2.87108 25.9815 2.53307 25.2957 2.36162C24.6099 2.19018 23.8924 2.19061 23.2068 2.36287C22.5211 2.53513 21.8886 2.87389 21.3653 3.34913C21.127 2.68254 20.7275 2.08519 20.2026 1.61022C19.6776 1.13525 19.0434 0.7974 18.3563 0.626715C17.6692 0.456029 16.9506 0.457806 16.2644 0.631885C15.5781 0.805965 14.9456 1.14695 14.4229 1.6245C14.0739 1.94065 13.7791 2.31187 13.5502 2.72341C13.4737 2.64295 13.3942 2.56547 13.3118 2.49115C12.8638 2.08571 12.336 1.77825 11.7623 1.58843C11.1887 1.39861 10.5817 1.33061 9.98018 1.38878C8.89359 1.5205 7.8937 2.04813 7.17175 2.87075C6.4498 3.69338 6.05647 4.75325 6.06698 5.84766V9.22151C4.39219 9.43474 2.85246 10.2508 1.7358 11.517C0.61915 12.7832 0.00207154 14.4128 0 16.1009V25.5387C0.00545487 27.4789 0.656128 29.3622 1.84956 30.892L8.05348 38.7767ZM50.089 49.5231L49.0229 50.5882C48.9042 50.7045 48.7446 50.7697 48.5783 50.7697C48.4121 50.7697 48.2524 50.7045 48.1337 50.5882L43.6701 46.1198L45.6202 44.1698L50.0838 48.6278C50.2009 48.7464 50.2669 48.9062 50.2677 49.0728C50.2685 49.2395 50.2041 49.3999 50.0881 49.5196L50.089 49.5231ZM44.393 42.9426L42.4446 44.8909L41.3127 43.7573C42.0092 43.1579 42.6599 42.5073 43.2593 41.8108L44.393 42.9426ZM45.9357 29.9672C45.9357 33.224 44.9699 36.4075 43.1604 39.1154C41.351 41.8233 38.7791 43.9338 35.77 45.1801C32.761 46.4264 29.4499 46.7524 26.2555 46.1171C23.0612 45.4817 20.1269 43.9135 17.8239 41.6106C15.5209 39.3078 13.9525 36.3738 13.3171 33.1796C12.6817 29.9855 13.0078 26.6747 14.2542 23.6659C15.5006 20.6571 17.6113 18.0854 20.3193 16.2761C23.0274 14.4667 26.2112 13.501 29.4682 13.501C33.8342 13.5058 38.02 15.2422 41.1072 18.3292C44.1944 21.4161 45.9309 25.6016 45.9357 29.9672ZM1.73342 16.1009C1.7357 14.8733 2.17186 13.686 2.96484 12.7487C3.75782 11.8115 4.85658 11.1847 6.06698 10.9791V23.0341C6.06698 23.2639 6.1583 23.4844 6.32084 23.6469C6.48338 23.8094 6.70383 23.9007 6.93369 23.9007C7.16356 23.9007 7.38401 23.8094 7.54655 23.6469C7.70909 23.4844 7.8004 23.2639 7.8004 23.0341V5.84766C7.78695 5.18331 8.01878 4.53729 8.45158 4.03305C8.88439 3.52882 9.48783 3.20172 10.1466 3.11427C10.5078 3.07715 10.8728 3.11671 11.2176 3.23036C11.5625 3.34401 11.8795 3.52919 12.1478 3.77378C12.4162 4.01809 12.6307 4.31569 12.7775 4.64756C12.9244 4.97944 13.0004 5.33829 13.0007 5.7012C13.0007 5.93105 13.092 6.15148 13.2545 6.31401C13.4171 6.47654 13.6375 6.56784 13.8674 6.56784C14.0973 6.56784 14.3177 6.47654 14.4802 6.31401C14.6428 6.15148 14.7341 5.93105 14.7341 5.7012V4.83456C14.7343 4.47175 14.8104 4.11301 14.9576 3.78139C15.1047 3.44977 15.3197 3.15262 15.5886 2.90904C15.8575 2.66547 16.1744 2.48087 16.5189 2.3671C16.8634 2.25334 17.228 2.21293 17.589 2.24849C18.2475 2.33612 18.8506 2.66318 19.2832 3.16721C19.7158 3.67125 19.9476 4.31694 19.9344 4.98102V6.56784C19.9344 6.79769 20.0257 7.01813 20.1882 7.18065C20.3508 7.34318 20.5712 7.43449 20.8011 7.43449C21.0309 7.43449 21.2514 7.34318 21.4139 7.18065C21.5765 7.01813 21.6678 6.79769 21.6678 6.56784C21.6682 6.20508 21.7443 5.8464 21.8911 5.51468C22.038 5.18296 22.2524 4.8855 22.5206 4.64129C22.789 4.39645 23.1061 4.21112 23.4512 4.09745C23.7962 3.98379 24.1614 3.94437 24.5227 3.98178C25.1812 4.06941 25.7843 4.39647 26.2169 4.9005C26.6495 5.40453 26.8813 6.05023 26.8681 6.71431V8.30113C26.8681 8.53098 26.9594 8.75142 27.1219 8.91394C27.2845 9.07647 27.5049 9.16778 27.7348 9.16778C27.9646 9.16778 28.1851 9.07647 28.3476 8.91394C28.5102 8.75142 28.6015 8.53098 28.6015 8.30113C28.6019 7.93837 28.678 7.57968 28.8248 7.24797C28.9717 6.91625 29.1861 6.61879 29.4543 6.37458C29.7229 6.13006 30.04 5.94494 30.385 5.83129C30.73 5.71765 31.0951 5.67805 31.4564 5.71507C32.1149 5.8027 32.718 6.12976 33.1506 6.63379C33.5832 7.13782 33.815 7.78352 33.8018 8.4476V12.3111C31.3021 11.6966 28.7004 11.6195 26.1688 12.0849C23.6371 12.5503 21.233 13.5477 19.1154 15.0111C16.9978 16.4744 15.2149 18.3705 13.8844 20.5739C12.554 22.7774 11.7064 25.2381 11.3975 27.7934C11.0887 30.3487 11.3257 32.9405 12.0929 35.3974C12.86 37.8543 14.1399 40.1205 15.8479 42.0462C17.5559 43.9718 19.6532 45.5131 22.0011 46.5682C24.349 47.6233 26.8941 48.1682 29.4682 48.1668C29.7611 48.1668 30.0454 48.1364 30.3349 48.1226V49.9001C30.3349 50.1299 30.2436 50.3503 30.0811 50.5129C29.9185 50.6754 29.6981 50.7667 29.4682 50.7667H12.134C11.9041 50.7667 11.6836 50.6754 11.5211 50.5129C11.3586 50.3503 11.2673 50.1299 11.2673 49.9001V43.0614C11.2618 41.1212 10.6111 39.2379 9.41769 37.7081L3.21377 29.8216C2.25904 28.5976 1.73829 27.091 1.73342 25.5387V16.1009Z"/>
<path d="M14.7341 29.9672C14.7344 32.7227 15.5075 35.4229 16.9656 37.7611C18.4237 40.0993 20.5083 41.9817 22.9827 43.1946C25.4571 44.4075 28.222 44.9022 30.9635 44.6226C33.705 44.3429 36.3131 43.3001 38.4916 41.6126C40.6701 39.9251 42.3316 37.6605 43.2875 35.0761C44.2434 32.4917 44.4553 29.6911 43.8991 26.9923C43.343 24.2935 42.041 21.8047 40.1412 19.8087C38.2415 17.8127 35.8199 16.3894 33.1517 15.7005C32.9312 15.6487 32.699 15.6853 32.5051 15.8025C32.3112 15.9196 32.1708 16.1081 32.1142 16.3275C32.0575 16.5468 32.089 16.7797 32.202 16.9761C32.3149 17.1725 32.5003 17.3169 32.7184 17.3784C33.0864 17.4737 33.4476 17.5843 33.8018 17.7103V27.6273C33.8037 28.4766 33.6265 29.3168 33.2817 30.0929L31.0136 35.2009C30.5668 36.199 30.3355 37.2802 30.3349 38.3737V42.9227C30.0472 42.9418 29.7612 42.9669 29.4682 42.9669C26.0202 42.9669 22.7134 41.5973 20.2753 39.1594C17.8372 36.7215 16.4675 33.415 16.4675 29.9672C16.4675 26.5195 17.8372 23.213 20.2753 20.7751C22.7134 18.3372 26.0202 16.9676 29.4682 16.9676C29.6981 16.9676 29.9185 16.8763 30.0811 16.7137C30.2436 16.5512 30.3349 16.3308 30.3349 16.1009C30.3349 15.8711 30.2436 15.6507 30.0811 15.4881C29.9185 15.3256 29.6981 15.2343 29.4682 15.2343C25.5618 15.2386 21.8167 16.7923 19.0544 19.5543C16.2922 22.3163 14.7385 26.0612 14.7341 29.9672ZM32.0683 38.3737C32.0664 37.5244 32.2436 36.6842 32.5884 35.9081L34.8565 30.8001C35.3033 29.802 35.5346 28.7208 35.5352 27.6273V18.4755C37.9048 19.7268 39.8298 21.6797 41.0468 24.067C42.2638 26.4542 42.7133 29.1592 42.3338 31.8117C41.9543 34.4643 40.7643 36.9347 38.9267 38.885C37.0892 40.8353 34.6938 42.1702 32.0683 42.7069V38.3737Z"/>
<path d="M27.7348 36.9004C27.5049 36.9004 27.2845 36.9917 27.1219 37.1542C26.9594 37.3168 26.8681 37.5372 26.8681 37.767V38.6337C26.8681 38.8635 26.9594 39.084 27.1219 39.2465C27.2845 39.409 27.5049 39.5003 27.7348 39.5003C27.9646 39.5003 28.1851 39.409 28.3476 39.2465C28.5102 39.084 28.6015 38.8635 28.6015 38.6337V37.767C28.6015 37.5372 28.5102 37.3168 28.3476 37.1542C28.1851 36.9917 27.9646 36.9004 27.7348 36.9004ZM28.6015 33.4338C28.6015 33.204 28.5102 32.9835 28.3476 32.821C28.1851 32.6585 27.9646 32.5672 27.7348 32.5672C27.5049 32.5672 27.2845 32.6585 27.1219 32.821C26.9594 32.9835 26.8681 33.204 26.8681 33.4338V34.3005C26.8681 34.5303 26.9594 34.7508 27.1219 34.9133C27.2845 35.0758 27.5049 35.1671 27.7348 35.1671C27.9646 35.1671 28.1851 35.0758 28.3476 34.9133C28.5102 34.7508 28.6015 34.5303 28.6015 34.3005V33.4338ZM28.6015 29.1006C28.6015 28.8708 28.5102 28.6503 28.3476 28.4878C28.1851 28.3253 27.9646 28.234 27.7348 28.234C27.5049 28.234 27.2845 28.3253 27.1219 28.4878C26.9594 28.6503 26.8681 28.8708 26.8681 29.1006V29.9672C26.8681 30.1971 26.9594 30.4175 27.1219 30.5801C27.2845 30.7426 27.5049 30.8339 27.7348 30.8339C27.9646 30.8339 28.1851 30.7426 28.3476 30.5801C28.5102 30.4175 28.6015 30.1971 28.6015 29.9672V29.1006ZM28.6015 24.7674C28.6015 24.5375 28.5102 24.3171 28.3476 24.1546C28.1851 23.992 27.9646 23.9007 27.7348 23.9007C27.5049 23.9007 27.2845 23.992 27.1219 24.1546C26.9594 24.3171 26.8681 24.5375 26.8681 24.7674V25.634C26.8681 25.8639 26.9594 26.0843 27.1219 26.2468C27.2845 26.4094 27.5049 26.5007 27.7348 26.5007C27.9646 26.5007 28.1851 26.4094 28.3476 26.2468C28.5102 26.0843 28.6015 25.8639 28.6015 25.634V24.7674ZM28.6015 20.4342C28.6015 20.2043 28.5102 19.9839 28.3476 19.8213C28.1851 19.6588 27.9646 19.5675 27.7348 19.5675C27.5049 19.5675 27.2845 19.6588 27.1219 19.8213C26.9594 19.9839 26.8681 20.2043 26.8681 20.4342V21.3008C26.8681 21.5306 26.9594 21.7511 27.1219 21.9136C27.2845 22.0761 27.5049 22.1674 27.7348 22.1674C27.9646 22.1674 28.1851 22.0761 28.3476 21.9136C28.5102 21.7511 28.6015 21.5306 28.6015 21.3008V20.4342ZM31.2016 27.3673C30.9718 27.3673 30.7513 27.4586 30.5888 27.6211C30.4262 27.7837 30.3349 28.0041 30.3349 28.234V29.1006C30.3349 29.3305 30.4262 29.5509 30.5888 29.7134C30.7513 29.8759 30.9718 29.9672 31.2016 29.9672C31.4315 29.9672 31.6519 29.8759 31.8145 29.7134C31.977 29.5509 32.0683 29.3305 32.0683 29.1006V28.234C32.0683 28.0041 31.977 27.7837 31.8145 27.6211C31.6519 27.4586 31.4315 27.3673 31.2016 27.3673ZM32.0683 23.9007C32.0683 23.6709 31.977 23.4505 31.8145 23.2879C31.6519 23.1254 31.4315 23.0341 31.2016 23.0341C30.9718 23.0341 30.7513 23.1254 30.5888 23.2879C30.4262 23.4505 30.3349 23.6709 30.3349 23.9007V24.7674C30.3349 24.9972 30.4262 25.2177 30.5888 25.3802C30.7513 25.5427 30.9718 25.634 31.2016 25.634C31.4315 25.634 31.6519 25.5427 31.8145 25.3802C31.977 25.2177 32.0683 24.9972 32.0683 24.7674V23.9007ZM30.3349 20.4342C30.3349 20.664 30.4262 20.8844 30.5888 21.047C30.7513 21.2095 30.9718 21.3008 31.2016 21.3008C31.4315 21.3008 31.6519 21.2095 31.8145 21.047C31.977 20.8844 32.0683 20.664 32.0683 20.4342V19.5675C32.0683 19.3377 31.977 19.1172 31.8145 18.9547C31.6519 18.7922 31.4315 18.7009 31.2016 18.7009C30.9718 18.7009 30.7513 18.7922 30.5888 18.9547C30.4262 19.1172 30.3349 19.3377 30.3349 19.5675V20.4342ZM25.1346 30.8339C25.1346 30.604 25.0433 30.3836 24.8808 30.2211C24.7183 30.0586 24.4978 29.9672 24.2679 29.9672C24.0381 29.9672 23.8176 30.0586 23.6551 30.2211C23.4925 30.3836 23.4012 30.604 23.4012 30.8339V31.7005C23.4012 31.9304 23.4925 32.1508 23.6551 32.3133C23.8176 32.4759 24.0381 32.5672 24.2679 32.5672C24.4978 32.5672 24.7183 32.4759 24.8808 32.3133C25.0433 32.1508 25.1346 31.9304 25.1346 31.7005V30.8339ZM24.2679 34.3005C24.0381 34.3005 23.8176 34.3918 23.6551 34.5543C23.4925 34.7168 23.4012 34.9373 23.4012 35.1671V36.0338C23.4012 36.2636 23.4925 36.484 23.6551 36.6466C23.8176 36.8091 24.0381 36.9004 24.2679 36.9004C24.4978 36.9004 24.7183 36.8091 24.8808 36.6466C25.0433 36.484 25.1346 36.2636 25.1346 36.0338V35.1671C25.1346 34.9373 25.0433 34.7168 24.8808 34.5543C24.7183 34.3918 24.4978 34.3005 24.2679 34.3005ZM25.1346 26.5007C25.1346 26.2708 25.0433 26.0504 24.8808 25.8879C24.7183 25.7253 24.4978 25.634 24.2679 25.634C24.0381 25.634 23.8176 25.7253 23.6551 25.8879C23.4925 26.0504 23.4012 26.2708 23.4012 26.5007V27.3673C23.4012 27.5972 23.4925 27.8176 23.6551 27.9801C23.8176 28.1427 24.0381 28.234 24.2679 28.234C24.4978 28.234 24.7183 28.1427 24.8808 27.9801C25.0433 27.8176 25.1346 27.5972 25.1346 27.3673V26.5007ZM21.6678 29.9672C21.6678 29.7374 21.5765 29.517 21.4139 29.3544C21.2514 29.1919 21.031 29.1006 20.8011 29.1006C20.5712 29.1006 20.3508 29.1919 20.1882 29.3544C20.0257 29.517 19.9344 29.7374 19.9344 29.9672V30.8339C19.9344 31.0637 20.0257 31.2842 20.1882 31.4467C20.3508 31.6092 20.5712 31.7005 20.8011 31.7005C21.031 31.7005 21.2514 31.6092 21.4139 31.4467C21.5765 31.2842 21.6678 31.0637 21.6678 30.8339V29.9672ZM20.8011 33.4338C20.5712 33.4338 20.3508 33.5251 20.1882 33.6877C20.0257 33.8502 19.9344 34.0706 19.9344 34.3005V35.1671C19.9344 35.397 20.0257 35.6174 20.1882 35.7799C20.3508 35.9425 20.5712 36.0338 20.8011 36.0338C21.031 36.0338 21.2514 35.9425 21.4139 35.7799C21.5765 35.6174 21.6678 35.397 21.6678 35.1671V34.3005C21.6678 34.0706 21.5765 33.8502 21.4139 33.6877C21.2514 33.5251 21.031 33.4338 20.8011 33.4338ZM21.6678 25.634C21.6678 25.4042 21.5765 25.1837 21.4139 25.0212C21.2514 24.8587 21.031 24.7674 20.8011 24.7674C20.5712 24.7674 20.3508 24.8587 20.1882 25.0212C20.0257 25.1837 19.9344 25.4042 19.9344 25.634V26.5007C19.9344 26.7305 20.0257 26.951 20.1882 27.1135C20.3508 27.276 20.5712 27.3673 20.8011 27.3673C21.031 27.3673 21.2514 27.276 21.4139 27.1135C21.5765 26.951 21.6678 26.7305 21.6678 26.5007V25.634ZM25.1346 22.1674C25.1346 21.9376 25.0433 21.7172 24.8808 21.5546C24.7183 21.3921 24.4978 21.3008 24.2679 21.3008C24.0381 21.3008 23.8176 21.3921 23.6551 21.5546C23.4925 21.7172 23.4012 21.9376 23.4012 22.1674V23.0341C23.4012 23.2639 23.4925 23.4844 23.6551 23.6469C23.8176 23.8094 24.0381 23.9007 24.2679 23.9007C24.4978 23.9007 24.7183 23.8094 24.8808 23.6469C25.0433 23.4844 25.1346 23.2639 25.1346 23.0341V22.1674Z"/>
</mask>
<path d="M8.05348 38.7767C9.00858 40.0012 9.52934 41.5085 9.53383 43.0614V49.9001C9.53383 50.5896 9.80777 51.2509 10.2954 51.7385C10.783 52.2261 11.4444 52.5 12.134 52.5H29.4682C30.1578 52.5 30.8191 52.2261 31.3068 51.7385C31.7944 51.2509 32.0683 50.5896 32.0683 49.9001V47.9588C34.9014 47.5539 37.5978 46.4819 39.9355 44.8311L46.9125 51.8162C47.3576 52.2537 47.957 52.4985 48.5811 52.4975C49.2052 52.4966 49.8039 52.2499 50.2476 51.811L51.3145 50.745C51.7537 50.3001 52 49.7002 52 49.075C52 48.4499 51.7537 47.8499 51.3145 47.405L44.334 40.4337C45.9569 38.1414 47.0255 35.5037 47.4557 32.7282C47.8858 29.9528 47.6657 27.1154 46.8128 24.4395C45.9598 21.7635 44.4973 19.3221 42.5403 17.3074C40.5833 15.2927 38.1853 13.7598 35.5352 12.8294V8.4476C35.5457 7.35332 35.1525 6.29355 34.4307 5.47095C33.709 4.64834 32.7093 4.12063 31.6228 3.98871C31.0232 3.92996 30.4179 3.99688 29.8456 4.18519C29.2733 4.37351 28.7466 4.67909 28.299 5.08242C28.0609 4.41684 27.6622 3.8203 27.1383 3.34569C26.6145 2.87108 25.9815 2.53307 25.2957 2.36162C24.6099 2.19018 23.8924 2.19061 23.2068 2.36287C22.5211 2.53513 21.8886 2.87389 21.3653 3.34913C21.127 2.68254 20.7275 2.08519 20.2026 1.61022C19.6776 1.13525 19.0434 0.7974 18.3563 0.626715C17.6692 0.456029 16.9506 0.457806 16.2644 0.631885C15.5781 0.805965 14.9456 1.14695 14.4229 1.6245C14.0739 1.94065 13.7791 2.31187 13.5502 2.72341C13.4737 2.64295 13.3942 2.56547 13.3118 2.49115C12.8638 2.08571 12.336 1.77825 11.7623 1.58843C11.1887 1.39861 10.5817 1.33061 9.98018 1.38878C8.89359 1.5205 7.8937 2.04813 7.17175 2.87075C6.4498 3.69338 6.05647 4.75325 6.06698 5.84766V9.22151C4.39219 9.43474 2.85246 10.2508 1.7358 11.517C0.61915 12.7832 0.00207154 14.4128 0 16.1009V25.5387C0.00545487 27.4789 0.656128 29.3622 1.84956 30.892L8.05348 38.7767ZM50.089 49.5231L49.0229 50.5882C48.9042 50.7045 48.7446 50.7697 48.5783 50.7697C48.4121 50.7697 48.2524 50.7045 48.1337 50.5882L43.6701 46.1198L45.6202 44.1698L50.0838 48.6278C50.2009 48.7464 50.2669 48.9062 50.2677 49.0728C50.2685 49.2395 50.2041 49.3999 50.0881 49.5196L50.089 49.5231ZM44.393 42.9426L42.4446 44.8909L41.3127 43.7573C42.0092 43.1579 42.6599 42.5073 43.2593 41.8108L44.393 42.9426ZM45.9357 29.9672C45.9357 33.224 44.9699 36.4075 43.1604 39.1154C41.351 41.8233 38.7791 43.9338 35.77 45.1801C32.761 46.4264 29.4499 46.7524 26.2555 46.1171C23.0612 45.4817 20.1269 43.9135 17.8239 41.6106C15.5209 39.3078 13.9525 36.3738 13.3171 33.1796C12.6817 29.9855 13.0078 26.6747 14.2542 23.6659C15.5006 20.6571 17.6113 18.0854 20.3193 16.2761C23.0274 14.4667 26.2112 13.501 29.4682 13.501C33.8342 13.5058 38.02 15.2422 41.1072 18.3292C44.1944 21.4161 45.9309 25.6016 45.9357 29.9672ZM1.73342 16.1009C1.7357 14.8733 2.17186 13.686 2.96484 12.7487C3.75782 11.8115 4.85658 11.1847 6.06698 10.9791V23.0341C6.06698 23.2639 6.1583 23.4844 6.32084 23.6469C6.48338 23.8094 6.70383 23.9007 6.93369 23.9007C7.16356 23.9007 7.38401 23.8094 7.54655 23.6469C7.70909 23.4844 7.8004 23.2639 7.8004 23.0341V5.84766C7.78695 5.18331 8.01878 4.53729 8.45158 4.03305C8.88439 3.52882 9.48783 3.20172 10.1466 3.11427C10.5078 3.07715 10.8728 3.11671 11.2176 3.23036C11.5625 3.34401 11.8795 3.52919 12.1478 3.77378C12.4162 4.01809 12.6307 4.31569 12.7775 4.64756C12.9244 4.97944 13.0004 5.33829 13.0007 5.7012C13.0007 5.93105 13.092 6.15148 13.2545 6.31401C13.4171 6.47654 13.6375 6.56784 13.8674 6.56784C14.0973 6.56784 14.3177 6.47654 14.4802 6.31401C14.6428 6.15148 14.7341 5.93105 14.7341 5.7012V4.83456C14.7343 4.47175 14.8104 4.11301 14.9576 3.78139C15.1047 3.44977 15.3197 3.15262 15.5886 2.90904C15.8575 2.66547 16.1744 2.48087 16.5189 2.3671C16.8634 2.25334 17.228 2.21293 17.589 2.24849C18.2475 2.33612 18.8506 2.66318 19.2832 3.16721C19.7158 3.67125 19.9476 4.31694 19.9344 4.98102V6.56784C19.9344 6.79769 20.0257 7.01813 20.1882 7.18065C20.3508 7.34318 20.5712 7.43449 20.8011 7.43449C21.0309 7.43449 21.2514 7.34318 21.4139 7.18065C21.5765 7.01813 21.6678 6.79769 21.6678 6.56784C21.6682 6.20508 21.7443 5.8464 21.8911 5.51468C22.038 5.18296 22.2524 4.8855 22.5206 4.64129C22.789 4.39645 23.1061 4.21112 23.4512 4.09745C23.7962 3.98379 24.1614 3.94437 24.5227 3.98178C25.1812 4.06941 25.7843 4.39647 26.2169 4.9005C26.6495 5.40453 26.8813 6.05023 26.8681 6.71431V8.30113C26.8681 8.53098 26.9594 8.75142 27.1219 8.91394C27.2845 9.07647 27.5049 9.16778 27.7348 9.16778C27.9646 9.16778 28.1851 9.07647 28.3476 8.91394C28.5102 8.75142 28.6015 8.53098 28.6015 8.30113C28.6019 7.93837 28.678 7.57968 28.8248 7.24797C28.9717 6.91625 29.1861 6.61879 29.4543 6.37458C29.7229 6.13006 30.04 5.94494 30.385 5.83129C30.73 5.71765 31.0951 5.67805 31.4564 5.71507C32.1149 5.8027 32.718 6.12976 33.1506 6.63379C33.5832 7.13782 33.815 7.78352 33.8018 8.4476V12.3111C31.3021 11.6966 28.7004 11.6195 26.1688 12.0849C23.6371 12.5503 21.233 13.5477 19.1154 15.0111C16.9978 16.4744 15.2149 18.3705 13.8844 20.5739C12.554 22.7774 11.7064 25.2381 11.3975 27.7934C11.0887 30.3487 11.3257 32.9405 12.0929 35.3974C12.86 37.8543 14.1399 40.1205 15.8479 42.0462C17.5559 43.9718 19.6532 45.5131 22.0011 46.5682C24.349 47.6233 26.8941 48.1682 29.4682 48.1668C29.7611 48.1668 30.0454 48.1364 30.3349 48.1226V49.9001C30.3349 50.1299 30.2436 50.3503 30.0811 50.5129C29.9185 50.6754 29.6981 50.7667 29.4682 50.7667H12.134C11.9041 50.7667 11.6836 50.6754 11.5211 50.5129C11.3586 50.3503 11.2673 50.1299 11.2673 49.9001V43.0614C11.2618 41.1212 10.6111 39.2379 9.41769 37.7081L3.21377 29.8216C2.25904 28.5976 1.73829 27.091 1.73342 25.5387V16.1009Z" fill="white"/>
<path d="M14.7341 29.9672C14.7344 32.7227 15.5075 35.4229 16.9656 37.7611C18.4237 40.0993 20.5083 41.9817 22.9827 43.1946C25.4571 44.4075 28.222 44.9022 30.9635 44.6226C33.705 44.3429 36.3131 43.3001 38.4916 41.6126C40.6701 39.9251 42.3316 37.6605 43.2875 35.0761C44.2434 32.4917 44.4553 29.6911 43.8991 26.9923C43.343 24.2935 42.041 21.8047 40.1412 19.8087C38.2415 17.8127 35.8199 16.3894 33.1517 15.7005C32.9312 15.6487 32.699 15.6853 32.5051 15.8025C32.3112 15.9196 32.1708 16.1081 32.1142 16.3275C32.0575 16.5468 32.089 16.7797 32.202 16.9761C32.3149 17.1725 32.5003 17.3169 32.7184 17.3784C33.0864 17.4737 33.4476 17.5843 33.8018 17.7103V27.6273C33.8037 28.4766 33.6265 29.3168 33.2817 30.0929L31.0136 35.2009C30.5668 36.199 30.3355 37.2802 30.3349 38.3737V42.9227C30.0472 42.9418 29.7612 42.9669 29.4682 42.9669C26.0202 42.9669 22.7134 41.5973 20.2753 39.1594C17.8372 36.7215 16.4675 33.415 16.4675 29.9672C16.4675 26.5195 17.8372 23.213 20.2753 20.7751C22.7134 18.3372 26.0202 16.9676 29.4682 16.9676C29.6981 16.9676 29.9185 16.8763 30.0811 16.7137C30.2436 16.5512 30.3349 16.3308 30.3349 16.1009C30.3349 15.8711 30.2436 15.6507 30.0811 15.4881C29.9185 15.3256 29.6981 15.2343 29.4682 15.2343C25.5618 15.2386 21.8167 16.7923 19.0544 19.5543C16.2922 22.3163 14.7385 26.0612 14.7341 29.9672ZM32.0683 38.3737C32.0664 37.5244 32.2436 36.6842 32.5884 35.9081L34.8565 30.8001C35.3033 29.802 35.5346 28.7208 35.5352 27.6273V18.4755C37.9048 19.7268 39.8298 21.6797 41.0468 24.067C42.2638 26.4542 42.7133 29.1592 42.3338 31.8117C41.9543 34.4643 40.7643 36.9347 38.9267 38.885C37.0892 40.8353 34.6938 42.1702 32.0683 42.7069V38.3737Z" fill="white"/>
<path d="M27.7348 36.9004C27.5049 36.9004 27.2845 36.9917 27.1219 37.1542C26.9594 37.3168 26.8681 37.5372 26.8681 37.767V38.6337C26.8681 38.8635 26.9594 39.084 27.1219 39.2465C27.2845 39.409 27.5049 39.5003 27.7348 39.5003C27.9646 39.5003 28.1851 39.409 28.3476 39.2465C28.5102 39.084 28.6015 38.8635 28.6015 38.6337V37.767C28.6015 37.5372 28.5102 37.3168 28.3476 37.1542C28.1851 36.9917 27.9646 36.9004 27.7348 36.9004ZM28.6015 33.4338C28.6015 33.204 28.5102 32.9835 28.3476 32.821C28.1851 32.6585 27.9646 32.5672 27.7348 32.5672C27.5049 32.5672 27.2845 32.6585 27.1219 32.821C26.9594 32.9835 26.8681 33.204 26.8681 33.4338V34.3005C26.8681 34.5303 26.9594 34.7508 27.1219 34.9133C27.2845 35.0758 27.5049 35.1671 27.7348 35.1671C27.9646 35.1671 28.1851 35.0758 28.3476 34.9133C28.5102 34.7508 28.6015 34.5303 28.6015 34.3005V33.4338ZM28.6015 29.1006C28.6015 28.8708 28.5102 28.6503 28.3476 28.4878C28.1851 28.3253 27.9646 28.234 27.7348 28.234C27.5049 28.234 27.2845 28.3253 27.1219 28.4878C26.9594 28.6503 26.8681 28.8708 26.8681 29.1006V29.9672C26.8681 30.1971 26.9594 30.4175 27.1219 30.5801C27.2845 30.7426 27.5049 30.8339 27.7348 30.8339C27.9646 30.8339 28.1851 30.7426 28.3476 30.5801C28.5102 30.4175 28.6015 30.1971 28.6015 29.9672V29.1006ZM28.6015 24.7674C28.6015 24.5375 28.5102 24.3171 28.3476 24.1546C28.1851 23.992 27.9646 23.9007 27.7348 23.9007C27.5049 23.9007 27.2845 23.992 27.1219 24.1546C26.9594 24.3171 26.8681 24.5375 26.8681 24.7674V25.634C26.8681 25.8639 26.9594 26.0843 27.1219 26.2468C27.2845 26.4094 27.5049 26.5007 27.7348 26.5007C27.9646 26.5007 28.1851 26.4094 28.3476 26.2468C28.5102 26.0843 28.6015 25.8639 28.6015 25.634V24.7674ZM28.6015 20.4342C28.6015 20.2043 28.5102 19.9839 28.3476 19.8213C28.1851 19.6588 27.9646 19.5675 27.7348 19.5675C27.5049 19.5675 27.2845 19.6588 27.1219 19.8213C26.9594 19.9839 26.8681 20.2043 26.8681 20.4342V21.3008C26.8681 21.5306 26.9594 21.7511 27.1219 21.9136C27.2845 22.0761 27.5049 22.1674 27.7348 22.1674C27.9646 22.1674 28.1851 22.0761 28.3476 21.9136C28.5102 21.7511 28.6015 21.5306 28.6015 21.3008V20.4342ZM31.2016 27.3673C30.9718 27.3673 30.7513 27.4586 30.5888 27.6211C30.4262 27.7837 30.3349 28.0041 30.3349 28.234V29.1006C30.3349 29.3305 30.4262 29.5509 30.5888 29.7134C30.7513 29.8759 30.9718 29.9672 31.2016 29.9672C31.4315 29.9672 31.6519 29.8759 31.8145 29.7134C31.977 29.5509 32.0683 29.3305 32.0683 29.1006V28.234C32.0683 28.0041 31.977 27.7837 31.8145 27.6211C31.6519 27.4586 31.4315 27.3673 31.2016 27.3673ZM32.0683 23.9007C32.0683 23.6709 31.977 23.4505 31.8145 23.2879C31.6519 23.1254 31.4315 23.0341 31.2016 23.0341C30.9718 23.0341 30.7513 23.1254 30.5888 23.2879C30.4262 23.4505 30.3349 23.6709 30.3349 23.9007V24.7674C30.3349 24.9972 30.4262 25.2177 30.5888 25.3802C30.7513 25.5427 30.9718 25.634 31.2016 25.634C31.4315 25.634 31.6519 25.5427 31.8145 25.3802C31.977 25.2177 32.0683 24.9972 32.0683 24.7674V23.9007ZM30.3349 20.4342C30.3349 20.664 30.4262 20.8844 30.5888 21.047C30.7513 21.2095 30.9718 21.3008 31.2016 21.3008C31.4315 21.3008 31.6519 21.2095 31.8145 21.047C31.977 20.8844 32.0683 20.664 32.0683 20.4342V19.5675C32.0683 19.3377 31.977 19.1172 31.8145 18.9547C31.6519 18.7922 31.4315 18.7009 31.2016 18.7009C30.9718 18.7009 30.7513 18.7922 30.5888 18.9547C30.4262 19.1172 30.3349 19.3377 30.3349 19.5675V20.4342ZM25.1346 30.8339C25.1346 30.604 25.0433 30.3836 24.8808 30.2211C24.7183 30.0586 24.4978 29.9672 24.2679 29.9672C24.0381 29.9672 23.8176 30.0586 23.6551 30.2211C23.4925 30.3836 23.4012 30.604 23.4012 30.8339V31.7005C23.4012 31.9304 23.4925 32.1508 23.6551 32.3133C23.8176 32.4759 24.0381 32.5672 24.2679 32.5672C24.4978 32.5672 24.7183 32.4759 24.8808 32.3133C25.0433 32.1508 25.1346 31.9304 25.1346 31.7005V30.8339ZM24.2679 34.3005C24.0381 34.3005 23.8176 34.3918 23.6551 34.5543C23.4925 34.7168 23.4012 34.9373 23.4012 35.1671V36.0338C23.4012 36.2636 23.4925 36.484 23.6551 36.6466C23.8176 36.8091 24.0381 36.9004 24.2679 36.9004C24.4978 36.9004 24.7183 36.8091 24.8808 36.6466C25.0433 36.484 25.1346 36.2636 25.1346 36.0338V35.1671C25.1346 34.9373 25.0433 34.7168 24.8808 34.5543C24.7183 34.3918 24.4978 34.3005 24.2679 34.3005ZM25.1346 26.5007C25.1346 26.2708 25.0433 26.0504 24.8808 25.8879C24.7183 25.7253 24.4978 25.634 24.2679 25.634C24.0381 25.634 23.8176 25.7253 23.6551 25.8879C23.4925 26.0504 23.4012 26.2708 23.4012 26.5007V27.3673C23.4012 27.5972 23.4925 27.8176 23.6551 27.9801C23.8176 28.1427 24.0381 28.234 24.2679 28.234C24.4978 28.234 24.7183 28.1427 24.8808 27.9801C25.0433 27.8176 25.1346 27.5972 25.1346 27.3673V26.5007ZM21.6678 29.9672C21.6678 29.7374 21.5765 29.517 21.4139 29.3544C21.2514 29.1919 21.031 29.1006 20.8011 29.1006C20.5712 29.1006 20.3508 29.1919 20.1882 29.3544C20.0257 29.517 19.9344 29.7374 19.9344 29.9672V30.8339C19.9344 31.0637 20.0257 31.2842 20.1882 31.4467C20.3508 31.6092 20.5712 31.7005 20.8011 31.7005C21.031 31.7005 21.2514 31.6092 21.4139 31.4467C21.5765 31.2842 21.6678 31.0637 21.6678 30.8339V29.9672ZM20.8011 33.4338C20.5712 33.4338 20.3508 33.5251 20.1882 33.6877C20.0257 33.8502 19.9344 34.0706 19.9344 34.3005V35.1671C19.9344 35.397 20.0257 35.6174 20.1882 35.7799C20.3508 35.9425 20.5712 36.0338 20.8011 36.0338C21.031 36.0338 21.2514 35.9425 21.4139 35.7799C21.5765 35.6174 21.6678 35.397 21.6678 35.1671V34.3005C21.6678 34.0706 21.5765 33.8502 21.4139 33.6877C21.2514 33.5251 21.031 33.4338 20.8011 33.4338ZM21.6678 25.634C21.6678 25.4042 21.5765 25.1837 21.4139 25.0212C21.2514 24.8587 21.031 24.7674 20.8011 24.7674C20.5712 24.7674 20.3508 24.8587 20.1882 25.0212C20.0257 25.1837 19.9344 25.4042 19.9344 25.634V26.5007C19.9344 26.7305 20.0257 26.951 20.1882 27.1135C20.3508 27.276 20.5712 27.3673 20.8011 27.3673C21.031 27.3673 21.2514 27.276 21.4139 27.1135C21.5765 26.951 21.6678 26.7305 21.6678 26.5007V25.634ZM25.1346 22.1674C25.1346 21.9376 25.0433 21.7172 24.8808 21.5546C24.7183 21.3921 24.4978 21.3008 24.2679 21.3008C24.0381 21.3008 23.8176 21.3921 23.6551 21.5546C23.4925 21.7172 23.4012 21.9376 23.4012 22.1674V23.0341C23.4012 23.2639 23.4925 23.4844 23.6551 23.6469C23.8176 23.8094 24.0381 23.9007 24.2679 23.9007C24.4978 23.9007 24.7183 23.8094 24.8808 23.6469C25.0433 23.4844 25.1346 23.2639 25.1346 23.0341V22.1674Z" fill="white"/>
<path d="M8.05348 38.7767C9.00858 40.0012 9.52934 41.5085 9.53383 43.0614V49.9001C9.53383 50.5896 9.80777 51.2509 10.2954 51.7385C10.783 52.2261 11.4444 52.5 12.134 52.5H29.4682C30.1578 52.5 30.8191 52.2261 31.3068 51.7385C31.7944 51.2509 32.0683 50.5896 32.0683 49.9001V47.9588C34.9014 47.5539 37.5978 46.4819 39.9355 44.8311L46.9125 51.8162C47.3576 52.2537 47.957 52.4985 48.5811 52.4975C49.2052 52.4966 49.8039 52.2499 50.2476 51.811L51.3145 50.745C51.7537 50.3001 52 49.7002 52 49.075C52 48.4499 51.7537 47.8499 51.3145 47.405L44.334 40.4337C45.9569 38.1414 47.0255 35.5037 47.4557 32.7282C47.8858 29.9528 47.6657 27.1154 46.8128 24.4395C45.9598 21.7635 44.4973 19.3221 42.5403 17.3074C40.5833 15.2927 38.1853 13.7598 35.5352 12.8294V8.4476C35.5457 7.35332 35.1525 6.29355 34.4307 5.47095C33.709 4.64834 32.7093 4.12063 31.6228 3.98871C31.0232 3.92996 30.4179 3.99688 29.8456 4.18519C29.2733 4.37351 28.7466 4.67909 28.299 5.08242C28.0609 4.41684 27.6622 3.8203 27.1383 3.34569C26.6145 2.87108 25.9815 2.53307 25.2957 2.36162C24.6099 2.19018 23.8924 2.19061 23.2068 2.36287C22.5211 2.53513 21.8886 2.87389 21.3653 3.34913C21.127 2.68254 20.7275 2.08519 20.2026 1.61022C19.6776 1.13525 19.0434 0.7974 18.3563 0.626715C17.6692 0.456029 16.9506 0.457806 16.2644 0.631885C15.5781 0.805965 14.9456 1.14695 14.4229 1.6245C14.0739 1.94065 13.7791 2.31187 13.5502 2.72341C13.4737 2.64295 13.3942 2.56547 13.3118 2.49115C12.8638 2.08571 12.336 1.77825 11.7623 1.58843C11.1887 1.39861 10.5817 1.33061 9.98018 1.38878C8.89359 1.5205 7.8937 2.04813 7.17175 2.87075C6.4498 3.69338 6.05647 4.75325 6.06698 5.84766V9.22151C4.39219 9.43474 2.85246 10.2508 1.7358 11.517C0.61915 12.7832 0.00207154 14.4128 0 16.1009V25.5387C0.00545487 27.4789 0.656128 29.3622 1.84956 30.892L8.05348 38.7767ZM50.089 49.5231L49.0229 50.5882C48.9042 50.7045 48.7446 50.7697 48.5783 50.7697C48.4121 50.7697 48.2524 50.7045 48.1337 50.5882L43.6701 46.1198L45.6202 44.1698L50.0838 48.6278C50.2009 48.7464 50.2669 48.9062 50.2677 49.0728C50.2685 49.2395 50.2041 49.3999 50.0881 49.5196L50.089 49.5231ZM44.393 42.9426L42.4446 44.8909L41.3127 43.7573C42.0092 43.1579 42.6599 42.5073 43.2593 41.8108L44.393 42.9426ZM45.9357 29.9672C45.9357 33.224 44.9699 36.4075 43.1604 39.1154C41.351 41.8233 38.7791 43.9338 35.77 45.1801C32.761 46.4264 29.4499 46.7524 26.2555 46.1171C23.0612 45.4817 20.1269 43.9135 17.8239 41.6106C15.5209 39.3078 13.9525 36.3738 13.3171 33.1796C12.6817 29.9855 13.0078 26.6747 14.2542 23.6659C15.5006 20.6571 17.6113 18.0854 20.3193 16.2761C23.0274 14.4667 26.2112 13.501 29.4682 13.501C33.8342 13.5058 38.02 15.2422 41.1072 18.3292C44.1944 21.4161 45.9309 25.6016 45.9357 29.9672ZM1.73342 16.1009C1.7357 14.8733 2.17186 13.686 2.96484 12.7487C3.75782 11.8115 4.85658 11.1847 6.06698 10.9791V23.0341C6.06698 23.2639 6.1583 23.4844 6.32084 23.6469C6.48338 23.8094 6.70383 23.9007 6.93369 23.9007C7.16356 23.9007 7.38401 23.8094 7.54655 23.6469C7.70909 23.4844 7.8004 23.2639 7.8004 23.0341V5.84766C7.78695 5.18331 8.01878 4.53729 8.45158 4.03305C8.88439 3.52882 9.48783 3.20172 10.1466 3.11427C10.5078 3.07715 10.8728 3.11671 11.2176 3.23036C11.5625 3.34401 11.8795 3.52919 12.1478 3.77378C12.4162 4.01809 12.6307 4.31569 12.7775 4.64756C12.9244 4.97944 13.0004 5.33829 13.0007 5.7012C13.0007 5.93105 13.092 6.15148 13.2545 6.31401C13.4171 6.47654 13.6375 6.56784 13.8674 6.56784C14.0973 6.56784 14.3177 6.47654 14.4802 6.31401C14.6428 6.15148 14.7341 5.93105 14.7341 5.7012V4.83456C14.7343 4.47175 14.8104 4.11301 14.9576 3.78139C15.1047 3.44977 15.3197 3.15262 15.5886 2.90904C15.8575 2.66547 16.1744 2.48087 16.5189 2.3671C16.8634 2.25334 17.228 2.21293 17.589 2.24849C18.2475 2.33612 18.8506 2.66318 19.2832 3.16721C19.7158 3.67125 19.9476 4.31694 19.9344 4.98102V6.56784C19.9344 6.79769 20.0257 7.01813 20.1882 7.18065C20.3508 7.34318 20.5712 7.43449 20.8011 7.43449C21.0309 7.43449 21.2514 7.34318 21.4139 7.18065C21.5765 7.01813 21.6678 6.79769 21.6678 6.56784C21.6682 6.20508 21.7443 5.8464 21.8911 5.51468C22.038 5.18296 22.2524 4.8855 22.5206 4.64129C22.789 4.39645 23.1061 4.21112 23.4512 4.09745C23.7962 3.98379 24.1614 3.94437 24.5227 3.98178C25.1812 4.06941 25.7843 4.39647 26.2169 4.9005C26.6495 5.40453 26.8813 6.05023 26.8681 6.71431V8.30113C26.8681 8.53098 26.9594 8.75142 27.1219 8.91394C27.2845 9.07647 27.5049 9.16778 27.7348 9.16778C27.9646 9.16778 28.1851 9.07647 28.3476 8.91394C28.5102 8.75142 28.6015 8.53098 28.6015 8.30113C28.6019 7.93837 28.678 7.57968 28.8248 7.24797C28.9717 6.91625 29.1861 6.61879 29.4543 6.37458C29.7229 6.13006 30.04 5.94494 30.385 5.83129C30.73 5.71765 31.0951 5.67805 31.4564 5.71507C32.1149 5.8027 32.718 6.12976 33.1506 6.63379C33.5832 7.13782 33.815 7.78352 33.8018 8.4476V12.3111C31.3021 11.6966 28.7004 11.6195 26.1688 12.0849C23.6371 12.5503 21.233 13.5477 19.1154 15.0111C16.9978 16.4744 15.2149 18.3705 13.8844 20.5739C12.554 22.7774 11.7064 25.2381 11.3975 27.7934C11.0887 30.3487 11.3257 32.9405 12.0929 35.3974C12.86 37.8543 14.1399 40.1205 15.8479 42.0462C17.5559 43.9718 19.6532 45.5131 22.0011 46.5682C24.349 47.6233 26.8941 48.1682 29.4682 48.1668C29.7611 48.1668 30.0454 48.1364 30.3349 48.1226V49.9001C30.3349 50.1299 30.2436 50.3503 30.0811 50.5129C29.9185 50.6754 29.6981 50.7667 29.4682 50.7667H12.134C11.9041 50.7667 11.6836 50.6754 11.5211 50.5129C11.3586 50.3503 11.2673 50.1299 11.2673 49.9001V43.0614C11.2618 41.1212 10.6111 39.2379 9.41769 37.7081L3.21377 29.8216C2.25904 28.5976 1.73829 27.091 1.73342 25.5387V16.1009Z" stroke="#02C898" stroke-width="17.0667" mask="url(#path-1-inside-1_929_632)"/>
<path d="M14.7341 29.9672C14.7344 32.7227 15.5075 35.4229 16.9656 37.7611C18.4237 40.0993 20.5083 41.9817 22.9827 43.1946C25.4571 44.4075 28.222 44.9022 30.9635 44.6226C33.705 44.3429 36.3131 43.3001 38.4916 41.6126C40.6701 39.9251 42.3316 37.6605 43.2875 35.0761C44.2434 32.4917 44.4553 29.6911 43.8991 26.9923C43.343 24.2935 42.041 21.8047 40.1412 19.8087C38.2415 17.8127 35.8199 16.3894 33.1517 15.7005C32.9312 15.6487 32.699 15.6853 32.5051 15.8025C32.3112 15.9196 32.1708 16.1081 32.1142 16.3275C32.0575 16.5468 32.089 16.7797 32.202 16.9761C32.3149 17.1725 32.5003 17.3169 32.7184 17.3784C33.0864 17.4737 33.4476 17.5843 33.8018 17.7103V27.6273C33.8037 28.4766 33.6265 29.3168 33.2817 30.0929L31.0136 35.2009C30.5668 36.199 30.3355 37.2802 30.3349 38.3737V42.9227C30.0472 42.9418 29.7612 42.9669 29.4682 42.9669C26.0202 42.9669 22.7134 41.5973 20.2753 39.1594C17.8372 36.7215 16.4675 33.415 16.4675 29.9672C16.4675 26.5195 17.8372 23.213 20.2753 20.7751C22.7134 18.3372 26.0202 16.9676 29.4682 16.9676C29.6981 16.9676 29.9185 16.8763 30.0811 16.7137C30.2436 16.5512 30.3349 16.3308 30.3349 16.1009C30.3349 15.8711 30.2436 15.6507 30.0811 15.4881C29.9185 15.3256 29.6981 15.2343 29.4682 15.2343C25.5618 15.2386 21.8167 16.7923 19.0544 19.5543C16.2922 22.3163 14.7385 26.0612 14.7341 29.9672ZM32.0683 38.3737C32.0664 37.5244 32.2436 36.6842 32.5884 35.9081L34.8565 30.8001C35.3033 29.802 35.5346 28.7208 35.5352 27.6273V18.4755C37.9048 19.7268 39.8298 21.6797 41.0468 24.067C42.2638 26.4542 42.7133 29.1592 42.3338 31.8117C41.9543 34.4643 40.7643 36.9347 38.9267 38.885C37.0892 40.8353 34.6938 42.1702 32.0683 42.7069V38.3737Z" stroke="#02C898" stroke-width="17.0667" mask="url(#path-1-inside-1_929_632)"/>
<path d="M27.7348 36.9004C27.5049 36.9004 27.2845 36.9917 27.1219 37.1542C26.9594 37.3168 26.8681 37.5372 26.8681 37.767V38.6337C26.8681 38.8635 26.9594 39.084 27.1219 39.2465C27.2845 39.409 27.5049 39.5003 27.7348 39.5003C27.9646 39.5003 28.1851 39.409 28.3476 39.2465C28.5102 39.084 28.6015 38.8635 28.6015 38.6337V37.767C28.6015 37.5372 28.5102 37.3168 28.3476 37.1542C28.1851 36.9917 27.9646 36.9004 27.7348 36.9004ZM28.6015 33.4338C28.6015 33.204 28.5102 32.9835 28.3476 32.821C28.1851 32.6585 27.9646 32.5672 27.7348 32.5672C27.5049 32.5672 27.2845 32.6585 27.1219 32.821C26.9594 32.9835 26.8681 33.204 26.8681 33.4338V34.3005C26.8681 34.5303 26.9594 34.7508 27.1219 34.9133C27.2845 35.0758 27.5049 35.1671 27.7348 35.1671C27.9646 35.1671 28.1851 35.0758 28.3476 34.9133C28.5102 34.7508 28.6015 34.5303 28.6015 34.3005V33.4338ZM28.6015 29.1006C28.6015 28.8708 28.5102 28.6503 28.3476 28.4878C28.1851 28.3253 27.9646 28.234 27.7348 28.234C27.5049 28.234 27.2845 28.3253 27.1219 28.4878C26.9594 28.6503 26.8681 28.8708 26.8681 29.1006V29.9672C26.8681 30.1971 26.9594 30.4175 27.1219 30.5801C27.2845 30.7426 27.5049 30.8339 27.7348 30.8339C27.9646 30.8339 28.1851 30.7426 28.3476 30.5801C28.5102 30.4175 28.6015 30.1971 28.6015 29.9672V29.1006ZM28.6015 24.7674C28.6015 24.5375 28.5102 24.3171 28.3476 24.1546C28.1851 23.992 27.9646 23.9007 27.7348 23.9007C27.5049 23.9007 27.2845 23.992 27.1219 24.1546C26.9594 24.3171 26.8681 24.5375 26.8681 24.7674V25.634C26.8681 25.8639 26.9594 26.0843 27.1219 26.2468C27.2845 26.4094 27.5049 26.5007 27.7348 26.5007C27.9646 26.5007 28.1851 26.4094 28.3476 26.2468C28.5102 26.0843 28.6015 25.8639 28.6015 25.634V24.7674ZM28.6015 20.4342C28.6015 20.2043 28.5102 19.9839 28.3476 19.8213C28.1851 19.6588 27.9646 19.5675 27.7348 19.5675C27.5049 19.5675 27.2845 19.6588 27.1219 19.8213C26.9594 19.9839 26.8681 20.2043 26.8681 20.4342V21.3008C26.8681 21.5306 26.9594 21.7511 27.1219 21.9136C27.2845 22.0761 27.5049 22.1674 27.7348 22.1674C27.9646 22.1674 28.1851 22.0761 28.3476 21.9136C28.5102 21.7511 28.6015 21.5306 28.6015 21.3008V20.4342ZM31.2016 27.3673C30.9718 27.3673 30.7513 27.4586 30.5888 27.6211C30.4262 27.7837 30.3349 28.0041 30.3349 28.234V29.1006C30.3349 29.3305 30.4262 29.5509 30.5888 29.7134C30.7513 29.8759 30.9718 29.9672 31.2016 29.9672C31.4315 29.9672 31.6519 29.8759 31.8145 29.7134C31.977 29.5509 32.0683 29.3305 32.0683 29.1006V28.234C32.0683 28.0041 31.977 27.7837 31.8145 27.6211C31.6519 27.4586 31.4315 27.3673 31.2016 27.3673ZM32.0683 23.9007C32.0683 23.6709 31.977 23.4505 31.8145 23.2879C31.6519 23.1254 31.4315 23.0341 31.2016 23.0341C30.9718 23.0341 30.7513 23.1254 30.5888 23.2879C30.4262 23.4505 30.3349 23.6709 30.3349 23.9007V24.7674C30.3349 24.9972 30.4262 25.2177 30.5888 25.3802C30.7513 25.5427 30.9718 25.634 31.2016 25.634C31.4315 25.634 31.6519 25.5427 31.8145 25.3802C31.977 25.2177 32.0683 24.9972 32.0683 24.7674V23.9007ZM30.3349 20.4342C30.3349 20.664 30.4262 20.8844 30.5888 21.047C30.7513 21.2095 30.9718 21.3008 31.2016 21.3008C31.4315 21.3008 31.6519 21.2095 31.8145 21.047C31.977 20.8844 32.0683 20.664 32.0683 20.4342V19.5675C32.0683 19.3377 31.977 19.1172 31.8145 18.9547C31.6519 18.7922 31.4315 18.7009 31.2016 18.7009C30.9718 18.7009 30.7513 18.7922 30.5888 18.9547C30.4262 19.1172 30.3349 19.3377 30.3349 19.5675V20.4342ZM25.1346 30.8339C25.1346 30.604 25.0433 30.3836 24.8808 30.2211C24.7183 30.0586 24.4978 29.9672 24.2679 29.9672C24.0381 29.9672 23.8176 30.0586 23.6551 30.2211C23.4925 30.3836 23.4012 30.604 23.4012 30.8339V31.7005C23.4012 31.9304 23.4925 32.1508 23.6551 32.3133C23.8176 32.4759 24.0381 32.5672 24.2679 32.5672C24.4978 32.5672 24.7183 32.4759 24.8808 32.3133C25.0433 32.1508 25.1346 31.9304 25.1346 31.7005V30.8339ZM24.2679 34.3005C24.0381 34.3005 23.8176 34.3918 23.6551 34.5543C23.4925 34.7168 23.4012 34.9373 23.4012 35.1671V36.0338C23.4012 36.2636 23.4925 36.484 23.6551 36.6466C23.8176 36.8091 24.0381 36.9004 24.2679 36.9004C24.4978 36.9004 24.7183 36.8091 24.8808 36.6466C25.0433 36.484 25.1346 36.2636 25.1346 36.0338V35.1671C25.1346 34.9373 25.0433 34.7168 24.8808 34.5543C24.7183 34.3918 24.4978 34.3005 24.2679 34.3005ZM25.1346 26.5007C25.1346 26.2708 25.0433 26.0504 24.8808 25.8879C24.7183 25.7253 24.4978 25.634 24.2679 25.634C24.0381 25.634 23.8176 25.7253 23.6551 25.8879C23.4925 26.0504 23.4012 26.2708 23.4012 26.5007V27.3673C23.4012 27.5972 23.4925 27.8176 23.6551 27.9801C23.8176 28.1427 24.0381 28.234 24.2679 28.234C24.4978 28.234 24.7183 28.1427 24.8808 27.9801C25.0433 27.8176 25.1346 27.5972 25.1346 27.3673V26.5007ZM21.6678 29.9672C21.6678 29.7374 21.5765 29.517 21.4139 29.3544C21.2514 29.1919 21.031 29.1006 20.8011 29.1006C20.5712 29.1006 20.3508 29.1919 20.1882 29.3544C20.0257 29.517 19.9344 29.7374 19.9344 29.9672V30.8339C19.9344 31.0637 20.0257 31.2842 20.1882 31.4467C20.3508 31.6092 20.5712 31.7005 20.8011 31.7005C21.031 31.7005 21.2514 31.6092 21.4139 31.4467C21.5765 31.2842 21.6678 31.0637 21.6678 30.8339V29.9672ZM20.8011 33.4338C20.5712 33.4338 20.3508 33.5251 20.1882 33.6877C20.0257 33.8502 19.9344 34.0706 19.9344 34.3005V35.1671C19.9344 35.397 20.0257 35.6174 20.1882 35.7799C20.3508 35.9425 20.5712 36.0338 20.8011 36.0338C21.031 36.0338 21.2514 35.9425 21.4139 35.7799C21.5765 35.6174 21.6678 35.397 21.6678 35.1671V34.3005C21.6678 34.0706 21.5765 33.8502 21.4139 33.6877C21.2514 33.5251 21.031 33.4338 20.8011 33.4338ZM21.6678 25.634C21.6678 25.4042 21.5765 25.1837 21.4139 25.0212C21.2514 24.8587 21.031 24.7674 20.8011 24.7674C20.5712 24.7674 20.3508 24.8587 20.1882 25.0212C20.0257 25.1837 19.9344 25.4042 19.9344 25.634V26.5007C19.9344 26.7305 20.0257 26.951 20.1882 27.1135C20.3508 27.276 20.5712 27.3673 20.8011 27.3673C21.031 27.3673 21.2514 27.276 21.4139 27.1135C21.5765 26.951 21.6678 26.7305 21.6678 26.5007V25.634ZM25.1346 22.1674C25.1346 21.9376 25.0433 21.7172 24.8808 21.5546C24.7183 21.3921 24.4978 21.3008 24.2679 21.3008C24.0381 21.3008 23.8176 21.3921 23.6551 21.5546C23.4925 21.7172 23.4012 21.9376 23.4012 22.1674V23.0341C23.4012 23.2639 23.4925 23.4844 23.6551 23.6469C23.8176 23.8094 24.0381 23.9007 24.2679 23.9007C24.4978 23.9007 24.7183 23.8094 24.8808 23.6469C25.0433 23.4844 25.1346 23.2639 25.1346 23.0341V22.1674Z" stroke="#02C898" stroke-width="17.0667" mask="url(#path-1-inside-1_929_632)"/>
</svg>
