<svg width="50" height="54" viewBox="0 0 50 54" fill="none" xmlns="http://www.w3.org/2000/svg">
<path d="M39.7523 33.355C38.5558 30.7926 36.6943 28.552 34.3049 26.8843C35.2739 25.4071 35.9127 23.6947 36.1007 21.8484C37.1574 21.8484 37.8378 21.4318 38.2322 21.0643C38.8163 20.5198 39.1382 19.7541 39.1382 18.9086C39.1382 17.3011 37.7912 15.9915 36.1301 15.9781L36.0949 10.2491C36.0552 3.88159 32.8509 3.22002 30.5111 2.73712C29.497 2.52771 28.6213 2.34697 28.1176 1.79161C26.7065 0.236084 22.8306 0.0607287 19.4761 1.40084C15.4395 3.01392 13.1781 6.26161 13.2723 10.3117L13.4074 16.0034C11.9789 16.2695 10.8617 17.492 10.8617 18.9086C10.8617 20.4163 12.0464 21.6619 13.564 21.8222C13.7302 23.7188 14.4164 25.4913 15.4648 27.0153C13.1587 28.6721 11.3572 30.8668 10.1917 33.3696C4.91823 34.7945 0.5 38.6585 0.5 44.2924V52.7836C0.5 53.1794 0.820458 53.4999 1.21604 53.4999C1.61162 53.4999 1.93208 53.1794 1.93208 52.7836V44.2924C1.93208 39.7584 5.28949 36.5354 9.51484 35.074C9.02429 36.5415 8.74549 38.0715 8.68684 39.6178C7.21969 39.9573 6.12173 41.2723 6.12173 42.8418V46.4108C6.1217 46.5049 6.1402 46.598 6.17618 46.6849C6.21215 46.7719 6.2649 46.8508 6.33139 46.9174C6.39789 46.9839 6.47683 47.0367 6.56372 47.0726C6.65061 47.1086 6.74373 47.1271 6.83777 47.1271H8.28361C8.67919 47.1271 8.99965 46.8065 8.99965 46.4108C8.99965 46.015 8.67919 45.6945 8.28361 45.6945H7.55381V42.8418C7.55381 41.8056 8.39639 40.9626 9.43227 40.9626C10.4681 40.9626 11.3109 41.8055 11.3109 42.8418V45.6945H10.5809C10.1854 45.6945 9.86489 46.015 9.86489 46.4108C9.86489 46.8065 10.1854 47.1271 10.5809 47.1271H12.027C12.121 47.1271 12.2141 47.1086 12.301 47.0726C12.3879 47.0367 12.4669 46.9839 12.5334 46.9174C12.5999 46.8508 12.6526 46.7719 12.6886 46.6849C12.7245 46.598 12.743 46.5049 12.743 46.4108V42.8418C12.743 41.2513 11.6162 39.9202 10.1195 39.6027C10.1935 37.8801 10.5673 36.1836 11.2239 34.5894C12.2605 34.357 13.3263 34.223 14.3904 34.1979L16.2548 36.9112L13.8752 39.9581C13.7899 40.0674 13.7381 40.1993 13.7262 40.3375C13.7143 40.4758 13.7427 40.6145 13.8081 40.7369L20.4311 53.1214C20.4754 53.2044 20.5357 53.2778 20.6084 53.3375C20.6811 53.3972 20.7648 53.442 20.8548 53.4692C20.9448 53.4965 21.0393 53.5058 21.1329 53.4965C21.2265 53.4872 21.3173 53.4596 21.4003 53.4152C21.5677 53.3255 21.6927 53.173 21.7478 52.9912C21.8028 52.8094 21.7835 52.6132 21.6939 52.4456L15.2906 40.4725L17.7063 37.3792C17.8 37.2591 17.8531 37.1123 17.8577 36.9601C17.8624 36.8078 17.8184 36.6581 17.7322 36.5325L15.7454 33.641L18.5949 31.5284L22.3107 52.9063C22.3268 52.9989 22.361 53.0875 22.4113 53.167C22.4616 53.2464 22.5271 53.3151 22.604 53.3693C22.6809 53.4234 22.7676 53.4618 22.8594 53.4824C22.9511 53.503 23.046 53.5053 23.1386 53.4892C23.2312 53.4731 23.3198 53.4389 23.3992 53.3886C23.4787 53.3383 23.5474 53.2728 23.6015 53.1959C23.6556 53.1189 23.6941 53.0321 23.7146 52.9403C23.7352 52.8485 23.7374 52.7536 23.7213 52.6609L19.9332 30.8664C21.4281 31.5956 23.0944 32.0148 24.8415 32.0148C26.7745 32.0148 28.5907 31.5194 30.1841 30.6611L26.2788 52.6583C26.2606 52.7614 26.2651 52.8673 26.2922 52.9685C26.3192 53.0697 26.3681 53.1637 26.4354 53.2439C26.5028 53.3242 26.5868 53.3887 26.6818 53.4329C26.7767 53.4771 26.8801 53.4999 26.9848 53.4998C27.1529 53.4996 27.3155 53.4403 27.4442 53.3322C27.5729 53.2242 27.6596 53.0743 27.689 52.9088L31.4756 31.5803L34.2548 33.6411L32.2679 36.5325C32.1816 36.658 32.1375 36.8078 32.1422 36.9601C32.1468 37.1123 32.1998 37.2591 32.2936 37.3792L34.7093 40.4725L28.306 52.4456C28.22 52.6128 28.2031 52.8071 28.2591 52.9867C28.315 53.1662 28.4392 53.3165 28.605 53.4052C28.7707 53.4939 28.9647 53.5138 29.145 53.4607C29.3253 53.4076 29.4775 53.2858 29.5688 53.1214L36.1918 40.7369C36.2572 40.6145 36.2857 40.4758 36.2737 40.3375C36.2618 40.1993 36.21 40.0674 36.1247 39.9581L33.7454 36.9112L35.6098 34.1979C36.6555 34.2226 37.7026 34.3525 38.7223 34.5773C39.3967 36.2113 39.7736 37.9527 39.8353 39.7193C38.6406 40.11 37.7745 41.2341 37.7745 42.5581C37.7745 44.2054 39.114 45.5455 40.7605 45.5455C42.407 45.5455 43.7468 44.2054 43.7468 42.5581C43.7468 41.083 42.6714 39.8574 41.2643 39.6168C41.2053 38.0641 40.9242 36.5279 40.4297 35.0549C44.6811 36.5072 48.0679 39.7385 48.0679 44.2924V52.7836C48.0679 53.1794 48.3884 53.4999 48.784 53.4999C49.1795 53.4999 49.5 53.1794 49.5 52.7836V44.2924C49.4999 38.6385 45.0502 34.7676 39.7523 33.355ZM36.1403 17.4108C37.0071 17.4291 37.7062 18.0938 37.7062 18.9085C37.7062 19.3523 37.5463 19.7453 37.2561 20.0158C36.9864 20.2675 36.61 20.4032 36.1576 20.4148L36.139 17.4107C36.1394 17.4108 36.1398 17.4109 36.1403 17.4108ZM12.2938 18.9086C12.2938 18.2667 12.7875 17.687 13.4425 17.4713L13.5113 20.3631C12.813 20.2015 12.2938 19.6107 12.2938 18.9086ZM42.3147 42.5581C42.3147 43.4155 41.6176 44.1129 40.7605 44.1129C39.9037 44.1129 39.2065 43.4155 39.2065 42.5581C39.2065 41.7009 39.9036 41.0035 40.7605 41.0035C41.6175 41.0035 42.3147 41.7008 42.3147 42.5581ZM14.7039 10.278C14.5953 5.59911 17.9801 3.54133 20.0073 2.73122C21.402 2.17389 22.8527 1.92866 24.0895 1.92866C25.4715 1.92866 26.586 2.23486 27.0572 2.7541C27.8746 3.65551 29.068 3.90177 30.2217 4.14006C32.4891 4.60806 34.6307 5.05017 34.6629 10.2579L34.6921 14.961C34.5326 14.4668 34.4128 13.7767 34.2879 12.8519C34.025 10.9082 33.6956 8.502 31.3679 8.55448C29.5755 8.60738 29.3664 8.20491 29.2116 7.91279C29.0629 7.63226 28.7538 7.04678 27.8837 7.09336C27.3346 7.12162 26.9978 7.54427 26.7006 7.91745C26.3911 8.30573 26.16 8.55096 25.9092 8.5491C24.7727 8.50334 23.8271 8.48543 22.9593 8.46908C21.5883 8.4432 20.4042 8.42053 18.9691 8.29559C18.199 8.22841 17.5709 8.40169 17.1103 8.81203C16.246 9.58218 16.2078 10.9092 16.1675 12.3144C16.1081 14.3868 15.9425 15.5012 14.8359 15.8383L14.7039 10.278ZM14.5214 32.7656C13.679 32.7775 12.8349 32.8504 12.001 32.9838C13.0595 31.0957 14.5317 29.4382 16.3459 28.1451C16.9405 28.8134 17.6147 29.4096 18.3501 29.9269L14.5214 32.7656ZM14.9559 20.8908L14.8706 17.3013C17.4711 16.8065 17.5471 14.1621 17.5988 12.3557C17.6286 11.3162 17.6597 10.2413 18.0627 9.88217C18.1205 9.83113 18.296 9.67389 18.8447 9.72286C20.3285 9.85225 21.5351 9.87513 22.9322 9.90173C23.7911 9.91778 24.7269 9.93558 25.8518 9.98051C26.5264 10.0075 27.1147 9.60526 27.5509 9.12599C27.5935 9.0792 27.9907 8.66628 27.9694 8.62694C28.3505 9.32909 28.9926 10.0553 31.4078 9.98682C32.3567 9.94831 32.5851 10.9461 32.8686 13.044C33.0758 14.5765 33.342 16.5483 34.7057 17.2063L34.7272 20.6949C34.726 26.147 30.2919 30.5822 24.8417 30.5822C19.4831 30.582 14.9561 26.1517 14.9559 20.8908ZM35.4788 32.7656L31.5131 29.825C32.2252 29.3031 32.8699 28.698 33.4422 28.0273C35.2992 29.3128 36.8391 31.0047 37.945 32.9745C37.1289 32.8469 36.3047 32.7771 35.4788 32.7656Z" fill="#02C898"/>
</svg>
