<svg width="14" height="16" viewBox="0 0 14 16" fill="none" xmlns="http://www.w3.org/2000/svg">
<path d="M1.87996 13.472C2.03996 13.472 2.07196 13.456 2.21596 13.424L5.09596 12.848C5.39996 12.768 5.70396 12.624 5.94396 12.384L12.92 5.40797C13.992 4.33597 13.992 2.49597 12.92 1.42397L12.328 0.799972C11.256 -0.272028 9.39996 -0.272028 8.32796 0.799972L1.35196 7.79197C1.12796 8.01597 0.967962 8.33597 0.887962 8.63997L0.279962 11.552C0.199962 12.096 0.359962 12.624 0.743962 13.008C1.04796 13.312 1.49596 13.472 1.87996 13.472ZM2.42396 8.94397L9.39996 1.95197C9.86396 1.48797 10.712 1.48797 11.16 1.95197L11.768 2.55997C12.312 3.10397 12.312 3.87197 11.768 4.39997L4.80796 11.392L1.84796 11.888L2.42396 8.94397ZM12.856 14.464H1.04796C0.583962 14.464 0.279962 14.768 0.279962 15.232C0.279962 15.696 0.663962 16 1.04796 16H12.792C13.256 16 13.64 15.696 13.64 15.232C13.624 14.768 13.24 14.464 12.856 14.464Z" fill="#989898"/>
</svg>
