<svg width="18" height="18" viewBox="0 0 18 18" fill="none" xmlns="http://www.w3.org/2000/svg">
<path fill-rule="evenodd" clip-rule="evenodd" d="M9 5.4375C9.14918 5.4375 9.29226 5.49676 9.39775 5.60225C9.50324 5.70774 9.5625 5.85082 9.5625 6V9.75C9.5625 9.89918 9.50324 10.0423 9.39775 10.1477C9.29226 10.2532 9.14918 10.3125 9 10.3125C8.85082 10.3125 8.70774 10.2532 8.60225 10.1477C8.49676 10.0423 8.4375 9.89918 8.4375 9.75V6C8.4375 5.85082 8.49676 5.70774 8.60225 5.60225C8.70774 5.49676 8.85082 5.4375 9 5.4375Z" fill="#001C15"/>
<path fill-rule="evenodd" clip-rule="evenodd" d="M5.748 1.62377C6.77165 1.16878 7.87979 0.934933 9 0.937521C13.4505 0.937521 17.0625 4.54952 17.0625 9.00002C17.0625 13.4505 13.4505 17.0625 9 17.0625C4.5495 17.0625 0.9375 13.4505 0.9375 9.00002C0.9375 7.18502 1.54275 5.50877 2.55 4.16252C2.59432 4.10343 2.64985 4.05364 2.71341 4.016C2.77697 3.97837 2.84732 3.95362 2.92045 3.94317C2.99358 3.93273 3.06804 3.93679 3.1396 3.95512C3.21116 3.97345 3.2784 4.0057 3.3375 4.05002C3.39659 4.09434 3.44638 4.14987 3.48402 4.21343C3.52165 4.27699 3.5464 4.34735 3.55685 4.42047C3.56729 4.4936 3.56323 4.56807 3.5449 4.63962C3.52657 4.71118 3.49432 4.77843 3.45 4.83752C2.54892 6.03815 2.06201 7.49887 2.0625 9.00002C2.0625 12.8295 5.1705 15.9375 9 15.9375C12.8295 15.9375 15.9375 12.8295 15.9375 9.00002C15.9375 5.17052 12.8295 2.06252 9 2.06252C8.00625 2.06252 7.0575 2.27102 6.207 2.65127C6.07074 2.71214 5.91589 2.71639 5.7765 2.66308C5.63712 2.60977 5.52462 2.50328 5.46375 2.36702C5.40288 2.23077 5.39864 2.07591 5.45194 1.93653C5.50525 1.79714 5.61174 1.68464 5.748 1.62377Z" fill="#001C15"/>
<path fill-rule="evenodd" clip-rule="evenodd" d="M8.24587 12C8.24587 11.8011 8.32488 11.6103 8.46554 11.4697C8.60619 11.329 8.79695 11.25 8.99587 11.25H9.00262C9.20153 11.25 9.3923 11.329 9.53295 11.4697C9.6736 11.6103 9.75262 11.8011 9.75262 12C9.75262 12.1989 9.6736 12.3897 9.53295 12.5303C9.3923 12.671 9.20153 12.75 9.00262 12.75H8.99512C8.7962 12.75 8.60544 12.671 8.46479 12.5303C8.32413 12.3897 8.24587 12.1989 8.24587 12Z" fill="#001C15"/>
</svg>
