<svg width="50" height="53" viewBox="0 0 50 53" fill="none" xmlns="http://www.w3.org/2000/svg">
<path d="M16.7459 29.8312C16.7459 29.5266 16.988 29.2828 17.2905 29.2828H31.2775C31.5801 29.2828 31.8221 29.5266 31.8221 29.8312C31.8221 30.1359 31.5801 30.3797 31.2775 30.3797H17.2905C16.988 30.3797 16.7459 30.1359 16.7459 29.8312ZM17.2905 26.8555H31.2775C31.5801 26.8555 31.8221 26.6117 31.8221 26.307C31.8221 26.0023 31.5801 25.7586 31.2775 25.7586H17.2905C16.988 25.7586 16.7459 26.0023 16.7459 26.307C16.7459 26.6016 16.988 26.8555 17.2905 26.8555ZM17.2905 33.9141H31.2775C31.5801 33.9141 31.8221 33.6703 31.8221 33.3656C31.8221 33.0609 31.5801 32.8172 31.2775 32.8172H17.2905C16.988 32.8172 16.7459 33.0609 16.7459 33.3656C16.7459 33.6602 16.988 33.9141 17.2905 33.9141ZM31.8221 37.2453V45.7969C31.8221 46.1016 31.5801 46.3453 31.2775 46.3453H17.2804C16.9779 46.3453 16.7359 46.1016 16.7359 45.7969V37.2453C16.7359 36.9406 16.9779 36.6969 17.2804 36.6969H31.2674C31.57 36.6969 31.8221 36.9406 31.8221 37.2453ZM30.733 37.7938H17.825V45.2484H30.7229L30.733 37.7938ZM34.2423 4.15625V15.0742C34.2423 15.3789 34.0003 15.6227 33.6978 15.6227H14.8602C14.5576 15.6227 14.3156 15.3789 14.3156 15.0742V4.15625C14.3156 3.85156 14.5576 3.60781 14.8602 3.60781H33.6978C34.0003 3.60781 34.2423 3.86172 34.2423 4.15625ZM33.1532 4.70469H15.4047V14.5258H33.1532V4.70469ZM49.5 18.7406V26.3172C49.5 27.282 48.7134 28.0742 47.7554 28.0742H47.231V28.8969C47.231 29.9531 46.3839 30.8062 45.3352 30.8062H45.2847V45.8477C45.2847 47.0258 44.8309 48.1227 44.004 48.9555C43.1771 49.7883 42.088 50.2453 40.9182 50.2453C38.5181 50.2453 36.5617 48.275 36.5617 45.8477V43.857H35.6642V48.1328C35.6642 49.2906 34.7264 50.2352 33.5768 50.2352H33.5163V51.9516C33.5163 52.2562 33.2742 52.5 32.9717 52.5H30.2489C29.9464 52.5 29.7044 52.2562 29.7044 51.9516V50.2352H18.8435V51.9516C18.8435 52.2562 18.6015 52.5 18.2989 52.5H15.5761C15.2736 52.5 15.0316 52.2562 15.0316 51.9516V50.2352H14.9711C13.8215 50.2352 12.8836 49.2906 12.8836 48.1328V34.2695H11.9861V36.2602C11.9861 38.6875 10.0297 40.6578 7.62966 40.6578C6.46995 40.6578 5.37076 40.2008 4.54384 39.368C3.71692 38.5352 3.26312 37.4383 3.26312 36.2602V22.0312C2.58747 21.95 1.93198 21.7164 1.337 21.3102C0.812616 20.9547 0.5 20.3555 0.5 19.6953V16.5773C0.5 16.0391 0.721856 15.5312 1.10506 15.1555L2.46645 13.8555C3.2127 13.1445 4.38249 13.1445 5.12873 13.8555L6.49012 15.1555C6.87333 15.5211 7.09518 16.0391 7.09518 16.5773V19.6953C7.09518 20.3555 6.78257 20.9547 6.25818 21.3102C5.67329 21.7062 5.00772 21.9398 4.34215 22.0312V36.2602C4.34215 37.1437 4.68502 37.9664 5.30016 38.5961C5.91531 39.2156 6.74223 39.5609 7.60949 39.5609C9.41459 39.5609 10.8768 38.0781 10.8768 36.2602V34.2695H10.4331C9.28349 34.2695 8.35573 33.3352 8.35573 32.1773V30.4102C8.35573 29.2523 9.28349 28.318 10.4331 28.318H12.8534V23.9609C12.8534 22.8031 13.7912 21.8586 14.9408 21.8586H17.6132V18.7305H13.2971C12.1475 18.7305 11.2096 17.7859 11.2096 16.6281V2.60234C11.2096 1.44453 12.1475 0.5 13.2971 0.5H35.2205C36.3701 0.5 37.308 1.44453 37.308 2.60234V16.6281C37.308 17.7859 36.3701 18.7305 35.2205 18.7305H30.9044V21.8586H33.5768C34.7264 21.8586 35.6642 22.8031 35.6642 23.9609V37.8852H38.0845C39.2341 37.8852 40.1619 38.8195 40.1619 39.9773V41.7445C40.1619 42.9023 39.224 43.8367 38.0845 43.8367H37.6408V45.8273C37.6408 47.6453 39.103 49.1281 40.9081 49.1281C41.7854 49.1281 42.6023 48.7828 43.2174 48.1633C43.8326 47.5437 44.1754 46.7109 44.1754 45.8273V30.8062H44.125C43.0762 30.8062 42.2292 29.9531 42.2292 28.8969V28.0742H41.7048C40.7468 28.0742 39.9602 27.282 39.9602 26.3172V18.7406C39.9602 17.7758 40.7468 16.9836 41.7048 16.9836H47.7352C48.7235 16.9836 49.5 17.7656 49.5 18.7406ZM13.3172 17.6437H35.2407C35.7953 17.6437 36.239 17.1867 36.239 16.6383V2.60234C36.239 2.04375 35.7852 1.59687 35.2407 1.59687H13.3172C12.7626 1.59687 12.3189 2.05391 12.3189 2.60234V16.6281C12.3189 17.1867 12.7626 17.6437 13.3172 17.6437ZM29.8355 21.8586V18.7305H18.7225V21.8586H29.8355ZM1.94207 20.4062C3.05135 21.1578 4.55392 21.1578 5.6632 20.4062C5.87497 20.2641 6.01616 19.9898 6.01616 19.7055V16.5875C6.01616 16.3539 5.91531 16.1305 5.75396 15.968L4.39257 14.668C4.23122 14.5156 4.01945 14.4344 3.80768 14.4344C3.5959 14.4344 3.38413 14.5156 3.22278 14.668L1.86139 15.968C1.68996 16.1305 1.5992 16.3539 1.5992 16.5875V19.7055C1.5992 19.9898 1.73029 20.2641 1.94207 20.4062ZM17.7544 50.2352H16.1207V51.4031H17.7544V50.2352ZM32.4372 50.2352H30.8036V51.4031H32.4372V50.2352ZM12.8735 33.1727V29.4148H10.4533C9.90873 29.4148 9.46501 29.8617 9.46501 30.4102V32.1773C9.46501 32.7258 9.90873 33.1727 10.4533 33.1727H12.8735ZM34.5953 48.1328V23.9711C34.5953 23.4125 34.1415 22.9656 33.5969 22.9656H14.961C14.4064 22.9656 13.9626 23.4227 13.9626 23.9711V48.1328C13.9626 48.6914 14.4164 49.1383 14.961 49.1383H33.5868C34.1415 49.1383 34.5953 48.6812 34.5953 48.1328ZM35.6844 42.75H38.1047C38.6492 42.75 39.0929 42.3031 39.0929 41.7547V39.9875C39.0929 39.4391 38.6492 38.9922 38.1047 38.9922H35.6844V42.75ZM46.1419 28.0742H43.3384V28.8969C43.3384 29.3438 43.7015 29.7094 44.1452 29.7094H45.3352C45.7789 29.7094 46.1419 29.3438 46.1419 28.8969V28.0742ZM48.4109 18.7406C48.4109 18.375 48.1184 18.0805 47.7554 18.0805H41.7249C41.3619 18.0805 41.0695 18.375 41.0695 18.7406V26.3172C41.0695 26.6828 41.3619 26.9773 41.7249 26.9773H47.7554C48.1184 26.9773 48.4109 26.6828 48.4109 26.3172V18.7406Z" fill="#02C898"/>
</svg>
