<svg width="481" height="136" viewBox="0 0 481 136" fill="none" xmlns="http://www.w3.org/2000/svg">
<path d="M100.5 100.02H80.3713V130H65.4816V100.02H0.5V87.6395L64.4706 0H80.3713V86.7551H100.5V100.02ZM65.4816 86.7551V44.483C65.4816 41.2404 65.5123 38.322 65.5735 35.7279C65.6348 33.0748 65.7267 30.6281 65.8493 28.3878C65.9718 26.0884 66.0637 23.907 66.125 21.8435C66.2476 19.78 66.3395 17.746 66.4007 15.7415H65.6654C64.5012 18.0998 63.1532 20.6054 61.6213 23.2585C60.1507 25.8526 58.6495 28.1814 57.1176 30.2449L15.6654 86.7551H65.4816Z" fill="#053D4C"/>
<path d="M301.626 59.7044H277.605L266.623 44.4194L255.641 61.8746L242.609 36.0043L227.695 82.5093L212.891 54.9129L199.072 77.7643H185.958C178.421 65.19 173.778 53.0417 173.778 44.4194C173.778 29.1911 183.704 16.5302 196.199 11.5192C202.389 9.03668 209.133 8.45632 215.651 10.265C222.15 12.0687 228.819 16.3593 234.647 24.2538L238.269 29.1605L242.609 24.7887C257.947 9.33736 275.458 8.95792 287.649 16.0305C300.065 23.2331 307.968 38.7154 302.427 57.0933L302.424 57.1024L301.626 59.7044Z" fill="#02C898"/>
<path d="M287.921 88.321C278.492 98.279 258.538 124.113 241.5 129.533C227.586 133.96 199.432 106.089 183.775 81.2372M183.775 81.2372C175.465 68.0479 169.785 54.4239 169.785 44.2801C169.785 11.0174 213.379 -11.4647 238.337 22.1052C271.282 -10.849 317.205 18.4092 305.225 57.8307L303.229 64.2983M183.775 81.2372H202.397L212.713 64.2983L228.686 93.8644L243.661 45.8601L255.974 68.302L266.29 51.3631L276.274 64.2983H303.229M183.775 81.2372H140.5M303.229 64.2983H308.553M280.6 64.3389H340.5" stroke="#053D4C" stroke-width="10" stroke-linecap="round"/>
<path d="M480.5 100.02H460.371V130H445.482V100.02H380.5V87.6395L444.471 0H460.371V86.7551H480.5V100.02ZM445.482 86.7551V44.483C445.482 41.2404 445.512 38.322 445.574 35.7279C445.635 33.0748 445.727 30.6281 445.849 28.3878C445.972 26.0884 446.064 23.907 446.125 21.8435C446.248 19.78 446.339 17.746 446.401 15.7415H445.665C444.501 18.0998 443.153 20.6054 441.621 23.2585C440.151 25.8526 438.65 28.1814 437.118 30.2449L395.665 86.7551H445.482Z" fill="#053D4C"/>
</svg>
