<svg width="13" height="13" viewBox="0 0 13 13" fill="none" xmlns="http://www.w3.org/2000/svg">
<path d="M12.6215 2.10011C12.6207 2.10011 12.6199 2.1 12.6191 2.1H9.16602V1.7C9.16602 1.03832 8.65343 0.5 8.02344 0.5H4.97656C4.34654 0.5 3.83398 1.03835 3.83398 1.7V2.1H0.380859C0.168797 2.1 0 2.28251 0 2.5V11.3C0 11.9617 0.512586 12.5 1.14258 12.5H11.8574C12.4874 12.5 13 11.9617 13 11.3V2.50688C12.9854 2.24416 12.8316 2.10155 12.6215 2.10011ZM4.5957 1.7C4.5957 1.47947 4.76658 1.3 4.97656 1.3H8.02344C8.23342 1.3 8.4043 1.47947 8.4043 1.7V2.1H4.5957V1.7ZM12.0907 2.9L10.9079 6.62645C10.8828 6.70614 10.8343 6.77546 10.7695 6.82457C10.7046 6.87367 10.6267 6.90007 10.5468 6.9H8.4043V6.5C8.4043 6.27907 8.2338 6.1 8.02344 6.1H4.97656C4.7662 6.1 4.5957 6.27907 4.5957 6.5V6.9H2.45327C2.37332 6.90007 2.29539 6.87368 2.23054 6.82457C2.1657 6.77547 2.11724 6.70614 2.09206 6.62645L0.909314 2.9H12.0907ZM7.64258 6.9V7.7H5.35742V6.9H7.64258ZM12.2383 11.3C12.2383 11.5205 12.0674 11.7 11.8574 11.7H1.14258C0.932598 11.7 0.761719 11.5205 0.761719 11.3V4.96491L1.36942 6.87947C1.44503 7.11852 1.59044 7.32648 1.78501 7.47378C1.97958 7.62108 2.21339 7.70024 2.45324 7.7H4.5957V8.1C4.5957 8.32093 4.7662 8.5 4.97656 8.5H8.02344C8.2338 8.5 8.4043 8.32093 8.4043 8.1V7.7H10.5467C10.7866 7.70024 11.0204 7.62109 11.215 7.47379C11.4096 7.32649 11.555 7.11853 11.6306 6.87947L12.2383 4.96491V11.3Z" fill="#053D4C"/>
</svg>
