<svg width="32" height="32" viewBox="0 0 32 32" fill="none" xmlns="http://www.w3.org/2000/svg">
<rect width="32" height="32" fill="#02C898"/>
<path d="M17.3105 25H14.428C13.9466 25 13.5549 24.6084 13.5549 24.1269V17.6252H11.8731C11.3916 17.6252 11 17.2334 11 16.752V13.966C11 13.4845 11.3916 13.0929 11.8731 13.0929H13.5549V11.6977C13.5549 10.3144 13.9892 9.1375 14.8109 8.29442C15.6362 7.44754 16.7897 7 18.1465 7L20.3448 7.00359C20.8255 7.00439 21.2165 7.39607 21.2165 7.87669V10.4635C21.2165 10.9449 20.8249 11.3366 20.3436 11.3366L18.8635 11.3371C18.4121 11.3371 18.2971 11.4276 18.2725 11.4554C18.232 11.5014 18.1838 11.6314 18.1838 11.9905V13.0928H20.2324C20.3866 13.0928 20.536 13.1308 20.6644 13.2024C20.9414 13.3572 21.1136 13.6499 21.1136 13.9661L21.1125 16.7522C21.1125 17.2334 20.7208 17.625 20.2394 17.625H18.1838V24.1269C18.1838 24.6084 17.792 25 17.3105 25ZM14.6101 23.9447H17.1284V17.1528C17.1284 16.8313 17.3901 16.5698 17.7114 16.5698H20.0573L20.0582 14.1481H17.7113C17.3899 14.1481 17.1284 13.8867 17.1284 13.5652V11.9906C17.1284 11.5783 17.1703 11.1095 17.4815 10.7571C17.8575 10.3311 18.4501 10.2819 18.8632 10.2819L20.1612 10.2814V8.05852L18.1456 8.05525C15.9651 8.05525 14.6101 9.45106 14.6101 11.6978V13.5651C14.6101 13.8865 14.3486 14.1481 14.0273 14.1481H12.0553V16.5698H14.0273C14.3486 16.5698 14.6101 16.8313 14.6101 17.1527L14.6101 23.9447Z" fill="white"/>
</svg>
