<svg width="52" height="53" viewBox="0 0 52 53" fill="none" xmlns="http://www.w3.org/2000/svg">
<path d="M0.0618157 48.5305C0.0906958 49.5016 0.121886 50.5529 0.136274 51.6979C0.138982 51.9116 0.226596 52.1156 0.380126 52.2658C0.533656 52.4159 0.740731 52.5001 0.95647 52.5H6.67348C6.79147 52.5 6.90806 52.4747 7.01531 52.426C7.12255 52.3772 7.21792 52.3061 7.29492 52.2176C7.37193 52.129 7.42874 52.025 7.4615 51.9128C7.49426 51.8005 7.50219 51.6825 7.48475 51.5669C7.23008 49.8919 6.87921 45.1321 8.2873 43.2516C9.62566 41.4653 12.902 43.1204 14.8573 44.1609C16.6305 45.1051 18.8379 46.2801 21.8966 46.9554C27.6736 48.2345 36.1827 49.1319 43.3326 42.2193C43.4097 42.1449 43.4713 42.0561 43.5137 41.958C43.5562 41.8599 43.5788 41.7545 43.5801 41.6479C43.5814 41.5412 43.5615 41.4352 43.5215 41.3362C43.4815 41.2371 43.4222 41.1468 43.347 41.0705C43.0306 40.7484 42.5116 40.7436 42.1872 41.0562C35.6797 47.3451 28.1158 46.6658 22.2537 45.3701C19.4153 44.7425 17.4065 43.6729 15.6341 42.7295C12.7981 41.2193 8.96877 39.6126 6.97047 42.2836C5.3222 44.4838 5.55366 48.9335 5.7491 50.875H1.76364C1.74758 50.0268 1.72363 49.231 1.70116 48.4828C1.53218 42.7993 1.45531 40.2056 5.04506 37.4199C7.49346 35.5283 10.9006 35.5339 13.3226 35.8687C20.2366 36.8519 26.2956 30.7435 25.2284 22.8157C24.6701 18.6724 22.2794 14.6647 18.99 12.3582C14.0738 8.90751 15.4763 3.80011 16.0898 2.17442L20.3699 2.54334C20.2915 3.14155 20.2586 3.71053 20.2706 4.24133C20.3517 7.65022 24.1962 9.6442 27.1505 7.79202C28.1782 7.14221 29.2274 6.54867 30.2694 6.02817C37.0327 2.63739 45.2241 5.41727 48.3535 12.1742C51.2825 18.4979 50.9934 26.4458 47.5814 33.4353C47.4907 33.6287 47.4804 33.8498 47.5528 34.0507C47.6252 34.2517 47.7744 34.4163 47.9682 34.5092C48.1621 34.6021 48.385 34.6158 48.589 34.5473C48.7929 34.4788 48.9615 34.3336 49.0583 34.143C52.6809 26.7219 52.9749 18.2559 49.8448 11.4966C46.3288 3.90717 37.1281 0.769398 29.5301 4.57779C28.4392 5.12211 27.3419 5.74332 26.2711 6.42019C24.3954 7.59425 21.9613 6.34622 21.9109 4.20336C21.8948 3.53211 21.9669 2.77836 22.1255 1.96343C22.1474 1.85171 22.1453 1.73669 22.1193 1.62582C22.0934 1.51496 22.0442 1.41075 21.9749 1.31996C21.9058 1.2291 21.8182 1.15367 21.7178 1.09859C21.6173 1.0435 21.5063 1.01 21.3918 1.00026L15.6348 0.504311C15.2864 0.468626 14.9725 0.657454 14.8251 0.960515C14.7867 1.03906 11.1097 8.81877 18.0416 13.6849C20.9274 15.7082 23.11 19.3763 23.6025 23.0309C24.5205 29.8615 19.4164 35.096 13.5533 34.2596C10.8141 33.8796 6.9376 33.8971 4.03425 36.1393C-0.208082 39.4328 -0.11283 42.6645 0.0618157 48.5305Z" fill="#02C898"/>
</svg>
