<svg width="40" height="40" viewBox="0 0 40 40" fill="none" xmlns="http://www.w3.org/2000/svg">
<path d="M1.47287 35.7362C1.49349 36.4299 1.51577 37.1808 1.52605 37.9986C1.52798 38.1513 1.59056 38.297 1.70023 38.4043C1.80989 38.5115 1.9578 38.5716 2.1119 38.5716H6.19548C6.27976 38.5715 6.36304 38.5535 6.43964 38.5187C6.51625 38.4839 6.58437 38.4331 6.63937 38.3698C6.69437 38.3066 6.73496 38.2323 6.75835 38.1521C6.78175 38.0719 6.78742 37.9876 6.77496 37.9051C6.59305 36.7086 6.34243 33.3088 7.34821 31.9656C8.30418 30.6896 10.6445 31.8719 12.041 32.6151C13.3077 33.2895 14.8844 34.1288 17.0691 34.6112C21.1956 35.5248 27.2735 36.1658 32.3805 31.2282C32.4356 31.175 32.4796 31.1116 32.51 31.0416C32.5403 30.9715 32.5564 30.8962 32.5573 30.82C32.5583 30.7438 32.5441 30.6682 32.5155 30.5974C32.4869 30.5266 32.4446 30.4621 32.3908 30.4076C32.1649 30.1775 31.7942 30.1741 31.5625 30.3974C26.9142 34.8895 21.5114 34.4043 17.3242 33.4788C15.2968 33.0305 13.8619 32.2665 12.5959 31.5927C10.5702 30.514 7.83497 29.3663 6.40762 31.2742C5.23028 32.8457 5.39561 36.0241 5.53521 37.4109H2.68846C2.67698 36.805 2.65988 36.2366 2.64382 35.7021C2.52313 31.6425 2.46822 29.7899 5.03232 27.8001C6.78119 26.4489 9.21484 26.4529 10.9449 26.6921C15.8835 27.3944 20.2113 23.0312 19.449 17.3685C19.0502 14.409 17.3425 11.5464 14.993 9.89887C11.4814 7.43408 12.4832 3.78593 12.9214 2.62473L15.9787 2.88824C15.9226 3.31554 15.8991 3.72195 15.9077 4.10109C15.9657 6.53601 18.7117 7.96028 20.822 6.6373C21.556 6.17315 22.3054 5.74919 23.0497 5.37741C27.8806 2.95542 33.7316 4.94105 35.9669 9.76741C38.0591 14.2843 37.8525 19.9614 35.4154 24.9539C35.3506 25.0921 35.3433 25.25 35.395 25.3935C35.4467 25.537 35.5533 25.6547 35.6917 25.721C35.8302 25.7874 35.9894 25.7972 36.1351 25.7482C36.2808 25.6993 36.4012 25.5956 36.4704 25.4594C39.0579 20.1587 39.2679 14.1115 37.0321 9.28342C34.5207 3.8624 27.9488 1.62114 22.5216 4.34142C21.7425 4.73022 20.9586 5.17394 20.1938 5.65742C18.854 6.49603 17.1153 5.60458 17.0793 4.07397C17.0678 3.5945 17.1194 3.05611 17.2326 2.47402C17.2483 2.39422 17.2468 2.31206 17.2282 2.23287C17.2097 2.15368 17.1746 2.07925 17.1251 2.0144C17.0757 1.9495 17.0132 1.89562 16.9414 1.85627C16.8696 1.81693 16.7903 1.793 16.7086 1.78604L12.5964 1.43179C12.3476 1.4063 12.1233 1.54118 12.0181 1.75765C11.9906 1.81376 9.3642 7.37069 14.3156 10.8465C16.3768 12.2917 17.9358 14.9118 18.2876 17.5222C18.9433 22.4012 15.2976 26.1401 11.1096 25.5427C9.15303 25.2713 6.38414 25.2838 4.31032 26.8854C1.28008 29.2379 1.34812 31.5462 1.47287 35.7362Z" fill="#001C15"/>
<path d="M34.2085 28.7414C34.3023 28.7415 34.3948 28.7193 34.4781 28.6766C34.5614 28.6339 34.6332 28.5719 34.6873 28.496C34.7651 28.3872 34.8429 28.2778 34.9144 28.1616C35.0832 27.8878 34.9957 27.5308 34.7199 27.3636C34.6543 27.3238 34.5813 27.2973 34.5053 27.2854C34.4293 27.2736 34.3516 27.2767 34.2768 27.2946C34.202 27.3125 34.1315 27.3448 34.0693 27.3897C34.0071 27.4346 33.9545 27.4912 33.9144 27.5563C33.8567 27.6498 33.7937 27.7376 33.7308 27.8261C33.6863 27.8883 33.6547 27.9585 33.6376 28.0329C33.6206 28.1072 33.6185 28.1841 33.6316 28.2592C33.6446 28.3344 33.6724 28.4062 33.7135 28.4706C33.7546 28.5351 33.808 28.5909 33.8709 28.6348C33.9695 28.7042 34.0875 28.7414 34.2085 28.7414ZM34.0792 11.2607C34.3733 11.1269 34.5026 10.7823 34.3676 10.491C33.1295 7.81598 30.3898 6.0874 27.3881 6.0874C27.0643 6.0874 26.8022 6.34698 26.8022 6.66778C26.8022 6.98859 27.0643 7.24816 27.3881 7.24816C29.9333 7.24816 32.2549 8.71093 33.3024 10.9751C33.3673 11.1149 33.4855 11.2235 33.6312 11.277C33.7768 11.3306 33.938 11.3247 34.0792 11.2607Z" fill="#001C15"/>
</svg>
