<svg width="15" height="15" viewBox="0 0 15 15" fill="none" xmlns="http://www.w3.org/2000/svg">
<rect width="14" height="14" transform="translate(0.5 0.5)" fill="white"/>
<path d="M7.64882 5.63576L3.64378 9.42315C3.55107 9.51075 3.5 9.62769 3.5 9.75237C3.5 9.87706 3.55107 9.99399 3.64378 10.0816L3.93865 10.3605C4.1308 10.542 4.44309 10.542 4.63494 10.3605L7.99813 7.18014L11.3651 10.364C11.4578 10.4516 11.5813 10.5 11.7131 10.5C11.8451 10.5 11.9686 10.4516 12.0614 10.364L12.3562 10.0851C12.4489 9.99745 12.5 9.88059 12.5 9.7559C12.5 9.63122 12.4489 9.51428 12.3562 9.42668L8.34752 5.63576C8.25452 5.54795 8.13035 5.49972 7.99835 5.5C7.86584 5.49972 7.74175 5.54795 7.64882 5.63576Z" fill="#989898"/>
</svg>
