<svg width="32" height="33" viewBox="0 0 32 33" fill="none" xmlns="http://www.w3.org/2000/svg">
<path d="M19.001 4.08666L14.4281 1.48242L0.625 9.34284V12.9563L14.4281 5.03222L28.2305 12.9563V9.34284L23.7679 6.80147M25.4899 24.5187C24.0719 24.5187 22.9231 23.3699 22.9231 21.9518C22.9231 20.5343 24.0719 19.3849 25.4899 19.3849C26.9075 19.3849 28.0568 20.5343 28.0568 21.9518C28.0568 23.3699 26.9075 24.5187 25.4899 24.5187ZM25.4062 16.0737C22.2362 16.1181 19.6494 18.7049 19.6056 21.8749C19.5881 23.1267 19.9612 24.2899 20.6112 25.2512L24.1712 30.7967C24.7875 31.7573 26.1924 31.7573 26.8087 30.7967L30.3687 25.2512C30.6898 24.7764 30.9395 24.2571 31.1099 23.7099C31.2825 23.1561 31.3749 22.5687 31.3749 21.9587C31.3749 18.6806 28.6949 16.028 25.4062 16.0737ZM5.57236 6.52547V1.48242H8.80291V4.68573L5.57236 6.52547ZM25.4899 11.3831V16.0668C25.4619 16.0668 25.4337 16.0668 25.4056 16.0674C22.2362 16.1111 19.6494 18.6987 19.6049 21.8687C19.5918 22.813 19.8012 23.7074 20.1843 24.5024H3.36562V11.3575L14.4275 5.03185L25.4899 11.3831ZM12.1992 24.5026H16.6563V17.0617H12.1992V24.5026ZM12.4851 11.3575C12.4851 12.4304 13.3548 13.3001 14.4277 13.3001C15.5006 13.3001 16.3704 12.4304 16.3704 11.3575C16.3704 10.2846 15.5006 9.41484 14.4277 9.41484C13.3548 9.41484 12.4851 10.2846 12.4851 11.3575Z" stroke="white" stroke-width="1.5" stroke-miterlimit="10" stroke-linecap="round" stroke-linejoin="round"/>
</svg>
