<svg width="32" height="32" viewBox="0 0 32 32" fill="none" xmlns="http://www.w3.org/2000/svg">
<rect width="32" height="32" fill="#02C898"/>
<path d="M20.4999 7H11.5001C9.02541 7 7.00024 9.02517 7.00024 11.4999V20.5001C7.00024 22.9742 9.02541 25 11.5001 25H20.4999C22.9746 25 24.9998 22.9742 24.9998 20.5001V11.4999C24.9998 9.02517 22.9746 7 20.4999 7ZM23.4998 20.5001C23.4998 22.1538 22.1545 23.5 20.4999 23.5H11.5001C9.8462 23.5 8.50028 22.1538 8.50028 20.5001V11.4999C8.50028 9.84574 9.8462 8.50004 11.5001 8.50004H20.4999C22.1545 8.50004 23.4998 9.84574 23.4998 11.4999V20.5001Z" fill="white"/>
<path d="M20.8756 12.2499C21.4969 12.2499 22.0006 11.7463 22.0006 11.125C22.0006 10.5037 21.4969 10 20.8756 10C20.2543 10 19.7506 10.5037 19.7506 11.125C19.7506 11.7463 20.2543 12.2499 20.8756 12.2499Z" fill="white"/>
<path d="M16 11.5C13.5143 11.5 11.5001 13.5144 11.5001 15.9999C11.5001 18.4845 13.5143 20.5002 16 20.5002C18.4851 20.5002 20.4999 18.4845 20.4999 15.9999C20.4999 13.5144 18.4851 11.5 16 11.5ZM16 19.0002C14.3434 19.0002 13.0002 17.657 13.0002 15.9999C13.0002 14.3428 14.3434 13 16 13C17.6567 13 18.9999 14.3428 18.9999 15.9999C18.9999 17.657 17.6567 19.0002 16 19.0002Z" fill="white"/>
</svg>
