<svg width="32" height="23" viewBox="0 0 32 23" fill="none" xmlns="http://www.w3.org/2000/svg">
<path d="M29.5 0.686523H11.3792C11.0341 0.686523 10.7542 0.966336 10.7542 1.31152C10.7542 1.65671 11.0341 1.93652 11.3792 1.93652H29.5C29.5324 1.93652 29.5642 1.93896 29.5959 1.9414L27.8495 3.68784H19.6969C19.3517 3.68784 19.0719 3.96765 19.0719 4.31284C19.0719 4.65802 19.3517 4.93784 19.6969 4.93784H26.5995L17.8877 13.6496C16.8468 14.6905 15.1532 14.6906 14.1123 13.6496L2.40406 1.9414C2.43597 1.93854 2.46797 1.93692 2.5 1.93652H5.8125C6.15769 1.93652 6.4375 1.65671 6.4375 1.31152C6.4375 0.966336 6.15769 0.686523 5.8125 0.686523H2.5C1.1215 0.686523 0 1.80802 0 3.18652V19.8141C0 21.1926 1.1215 22.3141 2.5 22.3141H29.5C30.8785 22.3141 32 21.1926 32 19.8141V3.18652C32 1.80802 30.8785 0.686523 29.5 0.686523ZM1.25 19.8141V3.18652C1.25 3.00171 1.29138 2.82677 1.36369 2.66877L10.0626 11.3676L1.29369 20.1365C1.26508 20.0314 1.2504 19.9231 1.25 19.8141ZM29.5 21.0641H2.5C2.38838 21.0641 2.28069 21.048 2.17762 21.0205L10.9465 12.2516L13.2285 14.5336C13.9926 15.2976 14.9963 15.6797 16 15.6797C17.0037 15.6797 18.0074 15.2976 18.7716 14.5336L21.0535 12.2516L29.8224 21.0205C29.7173 21.0491 29.6089 21.0638 29.5 21.0641ZM30.75 19.8141C30.75 19.9258 30.7339 20.0335 30.7063 20.1365L21.9374 11.3677L30.6363 2.66877C30.7111 2.83115 30.7499 3.00776 30.75 3.18652V19.8141Z" fill="white"/>
</svg>
