<svg width="217" height="50" viewBox="0 0 217 50" fill="none" xmlns="http://www.w3.org/2000/svg">
<path fill-rule="evenodd" clip-rule="evenodd" d="M30.5 0H0.5V50H30.5V0ZM12.02 8.3335C9.25437 10.4535 5.10882 16.027 10.6514 21.3603C16.194 26.6936 17.9788 28.4868 18.1784 28.7166C19.1478 29.9682 20.7958 33.1304 19.6325 35.7664C19.2904 36.5417 22.3696 34.0806 22.9683 31.0921C23.5671 28.1036 21.8887 24.4254 16.9824 19.5212C12.536 15.0768 12.02 12.7779 12.02 8.3335ZM11.6778 24.4254C9.88162 25.9069 7.36692 29.7741 11.6778 33.391C16.7383 37.6367 16.6706 39.1117 16.5727 41.243C16.5664 41.3812 16.5599 41.5222 16.5547 41.6668C17.3245 40.9772 19.9761 36.9159 17.6666 34.4638C17.3921 34.1272 17.0175 33.7054 16.5881 33.2219L16.588 33.2218C14.4755 30.8432 11.0381 26.9728 11.6778 24.4254Z" fill="#02C898"/>
<path d="M55.6719 37L48 16.7812H47.875C47.9167 17.2083 47.9531 17.7292 47.9844 18.3438C48.0156 18.9583 48.0417 19.6302 48.0625 20.3594C48.0833 21.0781 48.0938 21.8125 48.0938 22.5625V37H45.625V14.1562H49.5625L56.7969 33.1562H56.9062L64.25 14.1562H68.1562V37H65.5312V22.375C65.5312 21.6979 65.5417 21.0208 65.5625 20.3438C65.5833 19.6562 65.6094 19.0104 65.6406 18.4062C65.6719 17.7917 65.7031 17.2604 65.7344 16.8125H65.6094L57.8438 37H55.6719ZM85.6094 19.5625C87.0677 19.5625 88.3177 19.8854 89.3594 20.5312C90.401 21.1771 91.1979 22.0833 91.75 23.25C92.3021 24.4062 92.5781 25.7604 92.5781 27.3125V28.9219H80.75C80.7812 30.9323 81.2812 32.4635 82.25 33.5156C83.2188 34.5677 84.5833 35.0938 86.3438 35.0938C87.4271 35.0938 88.3854 34.9948 89.2188 34.7969C90.0521 34.599 90.9167 34.3073 91.8125 33.9219V36.2031C90.9479 36.5885 90.0885 36.8698 89.2344 37.0469C88.3906 37.224 87.3906 37.3125 86.2344 37.3125C84.5885 37.3125 83.151 36.9792 81.9219 36.3125C80.7031 35.6354 79.7552 34.6458 79.0781 33.3438C78.401 32.0417 78.0625 30.4479 78.0625 28.5625C78.0625 26.7188 78.3698 25.125 78.9844 23.7812C79.6094 22.4271 80.4844 21.3854 81.6094 20.6562C82.7448 19.9271 84.0781 19.5625 85.6094 19.5625ZM85.5781 21.6875C84.1927 21.6875 83.0885 22.1406 82.2656 23.0469C81.4427 23.9531 80.9531 25.2188 80.7969 26.8438H89.8594C89.849 25.8229 89.6875 24.9271 89.375 24.1562C89.0729 23.375 88.6094 22.7708 87.9844 22.3438C87.3594 21.9062 86.5573 21.6875 85.5781 21.6875ZM108.078 37.3125C105.911 37.3125 104.193 36.5729 102.922 35.0938C101.661 33.6146 101.031 31.4167 101.031 28.5C101.031 25.5521 101.677 23.3281 102.969 21.8281C104.26 20.3177 105.979 19.5625 108.125 19.5625C109.031 19.5625 109.823 19.6823 110.5 19.9219C111.177 20.1615 111.76 20.4844 112.25 20.8906C112.74 21.2865 113.151 21.7396 113.484 22.25H113.672C113.63 21.9271 113.589 21.4844 113.547 20.9219C113.505 20.3594 113.484 19.901 113.484 19.5469V12.6875H116.078V37H113.984L113.594 34.5625H113.484C113.161 35.0729 112.75 35.5365 112.25 35.9531C111.76 36.3698 111.172 36.7031 110.484 36.9531C109.807 37.1927 109.005 37.3125 108.078 37.3125ZM108.484 35.1562C110.318 35.1562 111.615 34.6354 112.375 33.5938C113.135 32.5521 113.516 31.0052 113.516 28.9531V28.4844C113.516 26.3073 113.151 24.6354 112.422 23.4688C111.703 22.3021 110.391 21.7188 108.484 21.7188C106.891 21.7188 105.698 22.3333 104.906 23.5625C104.115 24.7812 103.719 26.4479 103.719 28.5625C103.719 30.6667 104.109 32.2917 104.891 33.4375C105.682 34.5833 106.88 35.1562 108.484 35.1562ZM129.172 19.875V37H126.578V19.875H129.172ZM127.906 13.4688C128.333 13.4688 128.698 13.6094 129 13.8906C129.312 14.1615 129.469 14.5885 129.469 15.1719C129.469 15.7448 129.312 16.1719 129 16.4531C128.698 16.7344 128.333 16.875 127.906 16.875C127.458 16.875 127.083 16.7344 126.781 16.4531C126.49 16.1719 126.344 15.7448 126.344 15.1719C126.344 14.5885 126.49 14.1615 126.781 13.8906C127.083 13.6094 127.458 13.4688 127.906 13.4688ZM146.031 14.1562C148.979 14.1562 151.13 14.7344 152.484 15.8906C153.849 17.0365 154.531 18.6823 154.531 20.8281C154.531 21.7969 154.37 22.7188 154.047 23.5938C153.734 24.4583 153.224 25.224 152.516 25.8906C151.807 26.5469 150.875 27.0677 149.719 27.4531C148.573 27.8281 147.167 28.0156 145.5 28.0156H142.719V37H140.062V14.1562H146.031ZM145.781 16.4219H142.719V25.7344H145.203C146.661 25.7344 147.875 25.5781 148.844 25.2656C149.823 24.9531 150.557 24.4479 151.047 23.75C151.536 23.0417 151.781 22.1042 151.781 20.9375C151.781 19.4167 151.297 18.2865 150.328 17.5469C149.359 16.7969 147.844 16.4219 145.781 16.4219ZM166.531 37H163.922V12.6875H166.531V37ZM191.156 19.875V37H189.031L188.656 34.5938H188.516C188.161 35.1875 187.703 35.6875 187.141 36.0938C186.578 36.5 185.943 36.8021 185.234 37C184.536 37.2083 183.792 37.3125 183 37.3125C181.646 37.3125 180.51 37.0938 179.594 36.6562C178.677 36.2188 177.984 35.5417 177.516 34.625C177.057 33.7083 176.828 32.5312 176.828 31.0938V19.875H179.453V30.9062C179.453 32.3333 179.776 33.401 180.422 34.1094C181.068 34.8073 182.052 35.1562 183.375 35.1562C184.646 35.1562 185.656 34.9167 186.406 34.4375C187.167 33.9583 187.714 33.2552 188.047 32.3281C188.38 31.3906 188.547 30.2448 188.547 28.8906V19.875H191.156ZM212.719 32.3125C212.719 33.4062 212.443 34.3281 211.891 35.0781C211.349 35.8177 210.568 36.375 209.547 36.75C208.536 37.125 207.328 37.3125 205.922 37.3125C204.724 37.3125 203.688 37.2188 202.812 37.0312C201.938 36.8438 201.172 36.5781 200.516 36.2344V33.8438C201.214 34.1875 202.047 34.5 203.016 34.7812C203.984 35.0625 204.974 35.2031 205.984 35.2031C207.464 35.2031 208.536 34.9635 209.203 34.4844C209.87 34.0052 210.203 33.3542 210.203 32.5312C210.203 32.0625 210.068 31.651 209.797 31.2969C209.536 30.9323 209.094 30.5833 208.469 30.25C207.844 29.9062 206.979 29.5312 205.875 29.125C204.781 28.7083 203.833 28.2969 203.031 27.8906C202.24 27.474 201.625 26.9688 201.188 26.375C200.76 25.7812 200.547 25.0104 200.547 24.0625C200.547 22.6146 201.13 21.5052 202.297 20.7344C203.474 19.9531 205.016 19.5625 206.922 19.5625C207.953 19.5625 208.917 19.6667 209.812 19.875C210.719 20.0729 211.562 20.3438 212.344 20.6875L211.469 22.7656C210.76 22.4635 210.005 22.2083 209.203 22C208.401 21.7917 207.583 21.6875 206.75 21.6875C205.552 21.6875 204.63 21.8854 203.984 22.2812C203.349 22.6771 203.031 23.2188 203.031 23.9062C203.031 24.4375 203.177 24.875 203.469 25.2188C203.771 25.5625 204.25 25.8854 204.906 26.1875C205.562 26.4896 206.427 26.8438 207.5 27.25C208.573 27.6458 209.5 28.0573 210.281 28.4844C211.062 28.901 211.661 29.4115 212.078 30.0156C212.505 30.6094 212.719 31.375 212.719 32.3125Z" fill="white"/>
</svg>
