<svg width="216" height="50" viewBox="0 0 216 50" fill="none" xmlns="http://www.w3.org/2000/svg">
<path fill-rule="evenodd" clip-rule="evenodd" d="M30 0H0V50H30V0ZM11.52 8.3335C8.75437 10.4535 4.60882 16.027 10.1514 21.3603C15.694 26.6936 17.4788 28.4868 17.6784 28.7166C18.6478 29.9682 20.2958 33.1304 19.1325 35.7664C18.7904 36.5417 21.8696 34.0806 22.4683 31.0921C23.0671 28.1036 21.3887 24.4254 16.4824 19.5212C12.036 15.0768 11.52 12.7779 11.52 8.3335ZM11.1778 24.4254C9.38162 25.9069 6.86692 29.7741 11.1778 33.391C16.2383 37.6367 16.1706 39.1117 16.0727 41.243C16.0664 41.3812 16.0599 41.5222 16.0547 41.6668C16.8245 40.9772 19.4761 36.9159 17.1666 34.4638C16.8921 34.1272 16.5175 33.7054 16.0881 33.2219L16.088 33.2218C13.9755 30.8432 10.5381 26.9728 11.1778 24.4254Z" fill="#02C898"/>
<path d="M55.1719 37L47.5 16.7812H47.375C47.4167 17.2083 47.4531 17.7292 47.4844 18.3438C47.5156 18.9583 47.5417 19.6302 47.5625 20.3594C47.5833 21.0781 47.5938 21.8125 47.5938 22.5625V37H45.125V14.1562H49.0625L56.2969 33.1562H56.4062L63.75 14.1562H67.6562V37H65.0312V22.375C65.0312 21.6979 65.0417 21.0208 65.0625 20.3438C65.0833 19.6562 65.1094 19.0104 65.1406 18.4062C65.1719 17.7917 65.2031 17.2604 65.2344 16.8125H65.1094L57.3438 37H55.1719ZM85.1094 19.5625C86.5677 19.5625 87.8177 19.8854 88.8594 20.5312C89.901 21.1771 90.6979 22.0833 91.25 23.25C91.8021 24.4062 92.0781 25.7604 92.0781 27.3125V28.9219H80.25C80.2812 30.9323 80.7812 32.4635 81.75 33.5156C82.7188 34.5677 84.0833 35.0938 85.8438 35.0938C86.9271 35.0938 87.8854 34.9948 88.7188 34.7969C89.5521 34.599 90.4167 34.3073 91.3125 33.9219V36.2031C90.4479 36.5885 89.5885 36.8698 88.7344 37.0469C87.8906 37.224 86.8906 37.3125 85.7344 37.3125C84.0885 37.3125 82.651 36.9792 81.4219 36.3125C80.2031 35.6354 79.2552 34.6458 78.5781 33.3438C77.901 32.0417 77.5625 30.4479 77.5625 28.5625C77.5625 26.7188 77.8698 25.125 78.4844 23.7812C79.1094 22.4271 79.9844 21.3854 81.1094 20.6562C82.2448 19.9271 83.5781 19.5625 85.1094 19.5625ZM85.0781 21.6875C83.6927 21.6875 82.5885 22.1406 81.7656 23.0469C80.9427 23.9531 80.4531 25.2188 80.2969 26.8438H89.3594C89.349 25.8229 89.1875 24.9271 88.875 24.1562C88.5729 23.375 88.1094 22.7708 87.4844 22.3438C86.8594 21.9062 86.0573 21.6875 85.0781 21.6875ZM107.578 37.3125C105.411 37.3125 103.693 36.5729 102.422 35.0938C101.161 33.6146 100.531 31.4167 100.531 28.5C100.531 25.5521 101.177 23.3281 102.469 21.8281C103.76 20.3177 105.479 19.5625 107.625 19.5625C108.531 19.5625 109.323 19.6823 110 19.9219C110.677 20.1615 111.26 20.4844 111.75 20.8906C112.24 21.2865 112.651 21.7396 112.984 22.25H113.172C113.13 21.9271 113.089 21.4844 113.047 20.9219C113.005 20.3594 112.984 19.901 112.984 19.5469V12.6875H115.578V37H113.484L113.094 34.5625H112.984C112.661 35.0729 112.25 35.5365 111.75 35.9531C111.26 36.3698 110.672 36.7031 109.984 36.9531C109.307 37.1927 108.505 37.3125 107.578 37.3125ZM107.984 35.1562C109.818 35.1562 111.115 34.6354 111.875 33.5938C112.635 32.5521 113.016 31.0052 113.016 28.9531V28.4844C113.016 26.3073 112.651 24.6354 111.922 23.4688C111.203 22.3021 109.891 21.7188 107.984 21.7188C106.391 21.7188 105.198 22.3333 104.406 23.5625C103.615 24.7812 103.219 26.4479 103.219 28.5625C103.219 30.6667 103.609 32.2917 104.391 33.4375C105.182 34.5833 106.38 35.1562 107.984 35.1562ZM128.672 19.875V37H126.078V19.875H128.672ZM127.406 13.4688C127.833 13.4688 128.198 13.6094 128.5 13.8906C128.812 14.1615 128.969 14.5885 128.969 15.1719C128.969 15.7448 128.812 16.1719 128.5 16.4531C128.198 16.7344 127.833 16.875 127.406 16.875C126.958 16.875 126.583 16.7344 126.281 16.4531C125.99 16.1719 125.844 15.7448 125.844 15.1719C125.844 14.5885 125.99 14.1615 126.281 13.8906C126.583 13.6094 126.958 13.4688 127.406 13.4688ZM147.219 19.5625C149.354 19.5625 151.057 20.2969 152.328 21.7656C153.599 23.2344 154.234 25.4427 154.234 28.3906C154.234 30.3385 153.943 31.974 153.359 33.2969C152.776 34.6198 151.953 35.6198 150.891 36.2969C149.839 36.974 148.594 37.3125 147.156 37.3125C146.25 37.3125 145.453 37.1927 144.766 36.9531C144.078 36.7135 143.49 36.3906 143 35.9844C142.51 35.5781 142.104 35.1354 141.781 34.6562H141.594C141.625 35.0625 141.661 35.5521 141.703 36.125C141.755 36.6979 141.781 37.1979 141.781 37.625V44.6562H139.172V19.875H141.312L141.656 22.4062H141.781C142.115 21.8854 142.521 21.4115 143 20.9844C143.479 20.5469 144.062 20.2031 144.75 19.9531C145.448 19.6927 146.271 19.5625 147.219 19.5625ZM146.766 21.75C145.578 21.75 144.62 21.9792 143.891 22.4375C143.172 22.8958 142.646 23.5833 142.312 24.5C141.979 25.4062 141.802 26.5469 141.781 27.9219V28.4219C141.781 29.8698 141.938 31.0938 142.25 32.0938C142.573 33.0938 143.099 33.8542 143.828 34.375C144.568 34.8958 145.557 35.1562 146.797 35.1562C147.859 35.1562 148.745 34.8698 149.453 34.2969C150.161 33.724 150.688 32.9271 151.031 31.9062C151.385 30.875 151.562 29.6927 151.562 28.3594C151.562 26.3385 151.167 24.7344 150.375 23.5469C149.594 22.349 148.391 21.75 146.766 21.75ZM166.375 37H163.766V12.6875H166.375V37ZM191 19.875V37H188.875L188.5 34.5938H188.359C188.005 35.1875 187.547 35.6875 186.984 36.0938C186.422 36.5 185.786 36.8021 185.078 37C184.38 37.2083 183.635 37.3125 182.844 37.3125C181.49 37.3125 180.354 37.0938 179.438 36.6562C178.521 36.2188 177.828 35.5417 177.359 34.625C176.901 33.7083 176.672 32.5312 176.672 31.0938V19.875H179.297V30.9062C179.297 32.3333 179.62 33.401 180.266 34.1094C180.911 34.8073 181.896 35.1562 183.219 35.1562C184.49 35.1562 185.5 34.9167 186.25 34.4375C187.01 33.9583 187.557 33.2552 187.891 32.3281C188.224 31.3906 188.391 30.2448 188.391 28.8906V19.875H191ZM212.562 32.3125C212.562 33.4062 212.286 34.3281 211.734 35.0781C211.193 35.8177 210.411 36.375 209.391 36.75C208.38 37.125 207.172 37.3125 205.766 37.3125C204.568 37.3125 203.531 37.2188 202.656 37.0312C201.781 36.8438 201.016 36.5781 200.359 36.2344V33.8438C201.057 34.1875 201.891 34.5 202.859 34.7812C203.828 35.0625 204.818 35.2031 205.828 35.2031C207.307 35.2031 208.38 34.9635 209.047 34.4844C209.714 34.0052 210.047 33.3542 210.047 32.5312C210.047 32.0625 209.911 31.651 209.641 31.2969C209.38 30.9323 208.938 30.5833 208.312 30.25C207.688 29.9062 206.823 29.5312 205.719 29.125C204.625 28.7083 203.677 28.2969 202.875 27.8906C202.083 27.474 201.469 26.9688 201.031 26.375C200.604 25.7812 200.391 25.0104 200.391 24.0625C200.391 22.6146 200.974 21.5052 202.141 20.7344C203.318 19.9531 204.859 19.5625 206.766 19.5625C207.797 19.5625 208.76 19.6667 209.656 19.875C210.562 20.0729 211.406 20.3438 212.188 20.6875L211.312 22.7656C210.604 22.4635 209.849 22.2083 209.047 22C208.245 21.7917 207.427 21.6875 206.594 21.6875C205.396 21.6875 204.474 21.8854 203.828 22.2812C203.193 22.6771 202.875 23.2188 202.875 23.9062C202.875 24.4375 203.021 24.875 203.312 25.2188C203.615 25.5625 204.094 25.8854 204.75 26.1875C205.406 26.4896 206.271 26.8438 207.344 27.25C208.417 27.6458 209.344 28.0573 210.125 28.4844C210.906 28.901 211.505 29.4115 211.922 30.0156C212.349 30.6094 212.562 31.375 212.562 32.3125Z" fill="black"/>
</svg>
