<svg width="30" height="50" viewBox="0 0 30 50" fill="none" xmlns="http://www.w3.org/2000/svg">
<path fill-rule="evenodd" clip-rule="evenodd" d="M30 0H0V50H30V0ZM11.52 8.3335C8.75437 10.4535 4.60882 16.027 10.1514 21.3603C15.694 26.6936 17.4788 28.4868 17.6784 28.7166C18.6478 29.9682 20.2958 33.1304 19.1325 35.7664C18.7904 36.5417 21.8696 34.0806 22.4683 31.0921C23.0671 28.1036 21.3887 24.4254 16.4824 19.5212C12.036 15.0768 11.52 12.7779 11.52 8.3335ZM11.1778 24.4254C9.38162 25.9069 6.86692 29.7741 11.1778 33.391C16.2383 37.6367 16.1706 39.1117 16.0727 41.243C16.0664 41.3812 16.0599 41.5222 16.0547 41.6668C16.8245 40.9772 19.4761 36.9159 17.1666 34.4638C16.8921 34.1272 16.5175 33.7054 16.0881 33.2219L16.088 33.2218C13.9755 30.8432 10.5381 26.9728 11.1778 24.4254Z" fill="#02C898"/>
</svg>
