<svg width="20" height="2" viewBox="0 0 20 2" fill="none" xmlns="http://www.w3.org/2000/svg">
<path d="M19.2188 0.21875H10.7812C10.4213 0.218756 10.4315 0.21875 10 0.21875C9.56852 0.21875 9.65633 0.21875 9.21875 0.218756C8.78117 0.218762 0.78125 0.21875 0.78125 0.21875C0.349766 0.21875 0 0.568515 0 1C0 1.43148 0.349766 1.78125 0.78125 1.78125H9.21875C9.75459 1.78125 9.56852 1.78125 10 1.78125C10.4315 1.78125 10.4434 1.78125 10.7812 1.78125H19.2188C19.6502 1.78125 20 1.43148 20 1C20 0.568515 19.6502 0.21875 19.2188 0.21875Z" fill="#001C15"/>
</svg>
