<svg width="46" height="53" viewBox="0 0 46 53" fill="none" xmlns="http://www.w3.org/2000/svg">
<path d="M45.7411 23.6249C45.3489 22.0597 44.5469 20.892 43.4441 20.2545C44.2182 18.3332 44.0915 16.1971 43.0669 14.4001C42.1805 12.8455 40.7656 11.8062 39.0868 11.4419C39.6318 9.96684 39.5434 8.18239 38.7935 6.76824C37.9661 5.20814 36.4884 4.302 34.6037 4.18683C33.0789 1.89914 30.9672 0.595993 28.6193 0.505094C26.5317 0.423845 24.475 1.34024 22.962 2.98992C21.4504 1.34004 19.396 0.423641 17.306 0.504993C14.9577 0.595891 12.8462 1.89904 11.3227 4.18673C9.43729 4.3021 7.95878 5.20875 7.13099 6.76966C6.38119 8.18351 6.29275 9.96745 6.83697 11.4418C5.15796 11.806 3.74324 12.8453 2.85683 14.4C1.83197 16.1973 1.7056 18.3337 2.47985 20.2553C1.49222 20.8292 0.736432 21.8372 0.31148 23.1702C0.251342 23.3624 0.269603 23.5705 0.362271 23.7492C0.454939 23.9279 0.614478 24.0626 0.806015 24.1238C0.997553 24.1851 1.20551 24.1679 1.38444 24.076C1.56336 23.9842 1.69871 23.8251 1.76088 23.6337C2.02802 22.7959 2.58604 21.721 3.72772 21.3586C3.83466 21.3246 3.93277 21.2673 4.01502 21.1909C4.09727 21.1145 4.16163 21.0209 4.20349 20.9166C4.24536 20.8124 4.26368 20.7002 4.25716 20.588C4.25063 20.4759 4.21942 20.3666 4.16576 20.2679C3.27813 18.6368 3.28269 16.7257 4.17803 15.1557C4.99102 13.7299 6.39386 12.8802 8.02663 12.8243C8.16255 12.8197 8.29475 12.7786 8.40945 12.7055C8.52416 12.6323 8.61718 12.5297 8.67883 12.4083C8.74049 12.2869 8.76851 12.1512 8.75999 12.0153C8.75147 11.8794 8.70671 11.7482 8.63039 11.6355C7.86466 10.5042 7.79914 8.75845 8.47481 7.48445C8.90706 6.66931 9.8235 5.69858 11.7367 5.69797C12.8678 5.7256 13.973 5.92425 15.0581 7.98059C15.1048 8.06906 15.1684 8.14745 15.2453 8.2113C15.3222 8.27515 15.4109 8.3232 15.5064 8.3527C15.6018 8.3822 15.7022 8.39258 15.8016 8.38324C15.9011 8.3739 15.9978 8.34503 16.0861 8.29827C16.2645 8.20388 16.3981 8.0424 16.4576 7.84935C16.5171 7.65629 16.4976 7.44748 16.4033 7.26884C15.4009 5.36922 14.2343 4.62385 13.1013 4.33937C14.2801 2.90125 15.7621 2.08967 17.3648 2.02772C19.1735 1.95784 20.9644 2.8585 22.2012 4.44703V15.2449C20.6475 13.7196 18.5302 13.0717 16.2853 13.5239C15.8734 13.6067 15.6067 14.0084 15.6895 14.4209C15.7724 14.8333 16.1733 15.1009 16.5853 15.0174C19.3179 14.4674 21.258 16.0439 22.2012 17.7577V45.7511C22.1923 48.6456 19.8002 50.262 17.7483 50.767C15.2223 51.3887 11.9889 50.6966 10.4589 47.7484C10.3995 47.6339 10.3119 47.5363 10.2045 47.4649C10.0971 47.3936 9.97338 47.3507 9.84489 47.3403C8.63272 47.2427 7.43058 46.4855 6.54681 45.2627C5.43869 43.7297 5.03706 41.7392 5.47246 39.9383C5.49843 39.8308 5.50072 39.7189 5.47919 39.6105C5.45765 39.502 5.4128 39.3996 5.34775 39.3102C5.28269 39.2209 5.199 39.1468 5.10248 39.0931C5.00595 39.0394 4.89891 39.0073 4.78878 38.9992C3.73036 38.9214 2.71007 37.9123 2.12599 36.3658C1.58197 34.9252 1.4623 33.0355 2.24922 31.6637C3.50176 32.922 5.33291 33.6018 7.52845 33.6018C7.60269 33.6018 7.67754 33.601 7.75259 33.5995C7.95431 33.5953 8.1461 33.511 8.28577 33.3652C8.42545 33.2194 8.50158 33.024 8.49742 32.822C8.4888 32.4014 8.14144 32.0685 7.72115 32.0761C5.9396 32.1136 4.50318 31.6631 3.50541 30.7652C3.25744 30.542 2.23654 29.5322 1.9979 28.701C1.7482 28.1117 1.59648 27.482 1.51524 26.8481C1.50252 26.7489 1.47041 26.6531 1.42074 26.5663C1.37106 26.4795 1.3048 26.4034 1.22574 26.3422C1.14667 26.2811 1.05636 26.2361 0.95994 26.2099C0.863524 26.1837 0.7629 26.1768 0.663815 26.1896C0.564727 26.2023 0.469115 26.2345 0.382439 26.2842C0.295763 26.334 0.21972 26.4003 0.158654 26.4795C0.0975878 26.5587 0.0526943 26.6491 0.0265369 26.7457C0.000379504 26.8422 -0.00652922 26.943 0.00620515 27.0422C0.178924 28.3889 0.606614 29.5697 1.22974 30.4431C-0.114992 32.2934 -0.0360872 34.9478 0.702862 36.9046C1.37497 38.6845 2.51626 39.9187 3.84872 40.3544C3.57955 42.3647 4.10521 44.4832 5.31424 46.1558C6.36293 47.6066 7.79864 48.5551 9.30524 48.807C10.8407 51.4333 13.491 52.5001 16.0044 52.5C16.7279 52.5 17.4405 52.4115 18.1114 52.2464C19.6545 51.8666 21.0478 51.0729 22.0348 50.0118C22.4023 49.6167 22.7121 49.1895 22.9619 48.7357C23.2117 49.1895 23.5214 49.6167 23.8889 50.0118C24.8758 51.0731 26.2693 51.8666 27.8123 52.2464C28.502 52.4152 29.2094 52.5003 29.9193 52.5C32.4324 52.5 35.0828 51.4331 36.6184 48.8074C37.7242 48.6243 38.7841 48.072 39.7057 47.1942C39.8518 47.0549 39.9368 46.8633 39.9419 46.6613C39.9469 46.4593 39.8717 46.2636 39.7327 46.1172C39.5936 45.9709 39.4022 45.8858 39.2005 45.8807C38.9988 45.8757 38.8034 45.951 38.6572 46.0902C37.8754 46.8349 36.9839 47.2671 36.0789 47.3401C35.9504 47.3505 35.8267 47.3934 35.7193 47.4647C35.6119 47.5361 35.5244 47.6336 35.465 47.7481C33.9351 50.6962 30.7018 51.3886 28.1756 50.7667C26.1237 50.2617 23.7316 48.6453 23.7227 45.7508V17.7574C24.6659 16.0437 26.6055 14.4672 29.3386 15.0172C29.7506 15.1003 30.1515 14.8331 30.2343 14.4206C30.3172 14.0082 30.0505 13.6065 29.6385 13.5237C27.3937 13.0713 25.2764 13.7192 23.7227 15.2447V4.44693C24.9608 2.85839 26.7522 1.95743 28.5606 2.02741C30.163 2.08947 31.6452 2.90095 32.8248 4.33897C31.6908 4.62334 30.5232 5.36871 29.5207 7.26853C29.4278 7.44702 29.4092 7.65506 29.469 7.84721C29.5288 8.03937 29.6621 8.20001 29.8398 8.29404C30.0175 8.38808 30.2252 8.40786 30.4174 8.34907C30.6096 8.29028 30.7708 8.15769 30.8657 7.98028C31.9508 5.92405 33.0574 5.72529 34.19 5.69767C36.102 5.69828 37.0179 6.6682 37.4499 7.48263C38.1256 8.75672 38.0597 10.5031 37.2934 11.6352C37.2172 11.7479 37.1725 11.8791 37.164 12.0149C37.1555 12.1508 37.1835 12.2865 37.2451 12.4079C37.3068 12.5292 37.3997 12.6318 37.5144 12.705C37.629 12.7782 37.7612 12.8193 37.8971 12.824C39.5299 12.8798 40.9327 13.7296 41.7458 15.1555C42.6411 16.7255 42.6457 18.6366 41.7579 20.2677C41.7043 20.3663 41.6731 20.4755 41.6666 20.5876C41.66 20.6997 41.6783 20.8119 41.7201 20.916C41.7619 21.0202 41.8261 21.1139 41.9083 21.1903C41.9904 21.2667 42.0884 21.324 42.1953 21.3581C43.528 21.7828 44.0643 23.1928 44.2654 23.9954C44.6626 25.5808 44.4751 27.4874 43.8686 28.8281C43.6736 29.2592 43.1293 30.2598 42.318 30.8523C41.3253 31.6918 39.9255 32.1117 38.2026 32.0757C38.1027 32.0735 38.0033 32.091 37.9102 32.1273C37.817 32.1636 37.7319 32.2179 37.6598 32.2872C37.5877 32.3565 37.5299 32.4394 37.4899 32.5311C37.4498 32.6228 37.4282 32.7215 37.4264 32.8216C37.4243 32.9216 37.4419 33.0211 37.4782 33.1143C37.5145 33.2075 37.5688 33.2926 37.6379 33.3648C37.7071 33.437 37.7898 33.4948 37.8812 33.535C37.9727 33.5752 38.0712 33.597 38.1711 33.5991C38.2463 33.6006 38.3209 33.6014 38.3952 33.6014C40.5906 33.6014 42.4218 32.9215 43.6745 31.6632C44.4616 33.0352 44.3419 34.9254 43.7978 36.3665C43.2141 37.9124 42.1949 38.9209 41.1378 38.9987C41.0278 39.0068 40.9208 39.0388 40.8243 39.0924C40.7278 39.1461 40.6441 39.2201 40.5791 39.3094C40.514 39.3987 40.4691 39.501 40.4475 39.6094C40.426 39.7178 40.4282 39.8296 40.4541 39.937C40.7235 41.0557 40.6772 42.246 40.3203 43.3794C40.2902 43.4748 40.2792 43.5752 40.2879 43.6749C40.2966 43.7745 40.3248 43.8715 40.371 43.9602C40.4171 44.049 40.4802 44.1277 40.5567 44.1921C40.6332 44.2564 40.7216 44.305 40.8169 44.3351C40.9122 44.3652 41.0124 44.3762 41.1119 44.3675C41.2115 44.3588 41.3083 44.3305 41.3969 44.2843C41.4855 44.2381 41.5642 44.1749 41.6284 44.0983C41.6926 44.0217 41.7412 43.9332 41.7712 43.8378C42.1305 42.6973 42.2339 41.5071 42.0782 40.3537C43.4092 39.9179 44.5492 38.6843 45.2209 36.9053C45.9601 34.9479 46.0388 32.2924 44.6934 30.4418C45.88 28.7691 46.3327 25.9861 45.7411 23.6249Z" fill="#02C898"/>
</svg>
