<svg width="22" height="24" viewBox="0 0 22 24" fill="none" xmlns="http://www.w3.org/2000/svg">
<path d="M18.5778 12.3217V10.0781C18.5778 6.80522 16.3088 4.0312 13.2 3.12516V2.10938C13.2 0.946266 12.2131 0 11 0C9.78696 0 8.80004 0.946266 8.80004 2.10938V3.12516C5.69121 4.0312 3.42229 6.80517 3.42229 10.0781V12.3217C3.42229 15.1966 2.27937 17.9227 0.204101 19.9977C0.104596 20.0972 0.0377731 20.2225 0.0119398 20.3581C-0.0138935 20.4936 0.00240186 20.6335 0.0588001 20.7603C0.115198 20.887 0.209212 20.9951 0.329154 21.0711C0.449096 21.147 0.589676 21.1875 0.733418 21.1875H7.40716C7.74781 22.7903 9.22933 24 11 24C12.7708 24 14.2522 22.7903 14.5929 21.1875H21.2666C21.4104 21.1875 21.5509 21.147 21.6709 21.071C21.7908 20.9951 21.8848 20.887 21.9412 20.7603C21.9976 20.6335 22.0139 20.4936 21.9881 20.3581C21.9622 20.2225 21.8954 20.0972 21.796 19.9977C19.7207 17.9227 18.5778 15.1965 18.5778 12.3217ZM10.2667 2.10938C10.2667 1.72167 10.5957 1.40625 11 1.40625C11.4044 1.40625 11.7334 1.72167 11.7334 2.10938V2.84663C11.492 2.82431 11.2474 2.8125 11 2.8125C10.7527 2.8125 10.5081 2.82431 10.2667 2.84663V2.10938ZM11 22.5938C10.044 22.5938 9.22889 22.0059 8.92618 21.1875H13.0739C12.7712 22.0059 11.956 22.5938 11 22.5938ZM2.31399 19.7812C3.98407 17.6348 4.88895 15.0371 4.88895 12.3217V10.0781C4.88895 6.84727 7.63038 4.21875 11 4.21875C14.3697 4.21875 17.1111 6.84727 17.1111 10.0781V12.3217C17.1111 15.0371 18.016 17.6348 19.6861 19.7812H2.31399ZM20.5333 10.0781C20.5333 10.4664 20.8617 10.7812 21.2666 10.7812C21.6716 10.7812 22 10.4664 22 10.0781C22 7.26094 20.8558 4.61236 18.7782 2.62031C18.4918 2.34577 18.0275 2.34572 17.7411 2.62031C17.4547 2.89491 17.4547 3.34008 17.7411 3.61467C19.5417 5.34113 20.5333 7.63655 20.5333 10.0781ZM0.733418 10.7812C1.13841 10.7812 1.46675 10.4664 1.46675 10.0781C1.46675 7.63659 2.4584 5.34117 4.25897 3.61472C4.54536 3.34012 4.54536 2.89495 4.25897 2.62036C3.97263 2.34577 3.50829 2.34577 3.2219 2.62036C1.14428 4.61241 8.83897e-05 7.26094 8.83897e-05 10.0781C8.83897e-05 10.4664 0.328424 10.7812 0.733418 10.7812Z" fill="#001C15"/>
</svg>
