<svg width="24" height="24" viewBox="0 0 24 24" fill="none" xmlns="http://www.w3.org/2000/svg">
<g clip-path="url(#clip0_630_3010)">
<path d="M2.49988 21.1H2.5H21.5C22.9332 21.1 24.1 19.9332 24.1 18.5V5.5C24.1 4.06677 22.9332 2.9 21.5 2.9H2.5C1.06677 2.9 -0.1 4.06677 -0.1 5.5L-0.1 18.5L-0.0999999 18.5001C-0.0991743 19.1894 0.175006 19.8502 0.662399 20.3376C1.14979 20.825 1.8106 21.0992 2.49988 21.1ZM1.1 5.5C1.1 4.72823 1.72823 4.1 2.5 4.1H21.5C22.2718 4.1 22.9 4.72823 22.9 5.5V18.5C22.9 19.2718 22.2718 19.9 21.5 19.9H2.5C1.72823 19.9 1.1 19.2718 1.1 18.5V5.5Z" fill="#001C15" stroke="#001C15" stroke-width="0.2"/>
<path d="M4.95 9.5C4.95 10.9056 6.09439 12.05 7.5 12.05C8.90561 12.05 10.05 10.9056 10.05 9.5C10.05 8.09439 8.90561 6.95 7.5 6.95C6.09439 6.95 4.95 8.09439 4.95 9.5ZM6.05 9.5C6.05 8.70061 6.70061 8.05 7.5 8.05C8.29939 8.05 8.95 8.70061 8.95 9.5C8.95 10.2994 8.29939 10.95 7.5 10.95C6.70061 10.95 6.05 10.2994 6.05 9.5ZM11.1111 16.8889C11.2142 16.9921 11.3541 17.05 11.5 17.05C11.6459 17.05 11.7858 16.9921 11.8889 16.8889C11.9921 16.7858 12.05 16.6459 12.05 16.5V15.5C12.05 14.0944 10.9056 12.95 9.5 12.95H5.5C4.09439 12.95 2.95 14.0944 2.95 15.5V16.5C2.95 16.6459 3.00795 16.7858 3.11109 16.8889C3.21424 16.9921 3.35413 17.05 3.5 17.05C3.64587 17.05 3.78576 16.9921 3.88891 16.8889C3.99205 16.7858 4.05 16.6459 4.05 16.5V15.5C4.05 14.7006 4.70061 14.05 5.5 14.05H9.5C10.2994 14.05 10.95 14.7006 10.95 15.5V16.5C10.95 16.6459 11.0079 16.7858 11.1111 16.8889ZM14.5 9.05H20.5C20.6459 9.05 20.7858 8.99205 20.8889 8.88891C20.9921 8.78576 21.05 8.64587 21.05 8.5C21.05 8.35413 20.9921 8.21424 20.8889 8.11109C20.7858 8.00795 20.6459 7.95 20.5 7.95H14.5C14.3541 7.95 14.2142 8.00795 14.1111 8.11109C14.0079 8.21424 13.95 8.35413 13.95 8.5C13.95 8.64587 14.0079 8.78576 14.1111 8.88891C14.2142 8.99205 14.3541 9.05 14.5 9.05ZM14.5 13.05H20.5C20.6459 13.05 20.7858 12.9921 20.8889 12.8889C20.9921 12.7858 21.05 12.6459 21.05 12.5C21.05 12.3541 20.9921 12.2142 20.8889 12.1111C20.7858 12.0079 20.6459 11.95 20.5 11.95H14.5C14.3541 11.95 14.2142 12.0079 14.1111 12.1111C14.0079 12.2142 13.95 12.3541 13.95 12.5C13.95 12.6459 14.0079 12.7858 14.1111 12.8889C14.2142 12.9921 14.3541 13.05 14.5 13.05ZM14.5 17.05H20.5C20.6459 17.05 20.7858 16.9921 20.8889 16.8889C20.9921 16.7858 21.05 16.6459 21.05 16.5C21.05 16.3541 20.9921 16.2142 20.8889 16.1111C20.7858 16.0079 20.6459 15.95 20.5 15.95H14.5C14.3541 15.95 14.2142 16.0079 14.1111 16.1111C14.0079 16.2142 13.95 16.3541 13.95 16.5C13.95 16.6459 14.0079 16.7858 14.1111 16.8889C14.2142 16.9921 14.3541 17.05 14.5 17.05Z" fill="#001C15" stroke="#001C15" stroke-width="0.1"/>
</g>
<defs>
<clipPath id="clip0_630_3010">
<rect width="24" height="24" fill="white"/>
</clipPath>
</defs>
</svg>
