<svg width="32" height="33" viewBox="0 0 32 33" fill="none" xmlns="http://www.w3.org/2000/svg">
<path d="M30.6677 22.8108L28.1879 20.3312C26.4142 18.5573 23.5282 18.5573 21.7543 20.3312L20.0851 22.0002C19.4384 22.6474 18.4208 22.6931 17.7184 22.1069C15.0623 19.8892 12.6107 17.4376 10.393 14.7815C9.80686 14.0791 9.85279 13.0615 10.4997 12.4148L12.1687 10.7456C13.9424 8.97187 13.9424 6.08569 12.1687 4.312L9.68917 1.83225C8.82998 0.973125 7.68742 0.5 6.47242 0.5C5.25742 0.5 4.11492 0.973125 3.25554 1.83225C1.40254 3.68563 0.26023 6.14437 0.0392927 8.75587C-0.181645 11.3672 0.53148 13.9829 2.04711 16.1211C5.99192 21.6861 10.8137 26.508 16.3789 30.4529C18.2622 31.7879 20.5156 32.5003 22.8105 32.5C23.1211 32.5 23.4329 32.4869 23.7441 32.4607C26.3557 32.2397 28.8144 31.0974 30.6675 29.2444C31.5269 28.3853 32 27.2427 32 26.0276C32 24.8124 31.5269 23.6699 30.6677 22.8108H30.6677ZM17.1017 29.4331C11.652 25.57 6.92986 20.8479 3.06679 15.3981C0.276543 11.4617 0.72773 6.12819 4.13954 2.71631C4.76267 2.09325 5.59123 1.75 6.47242 1.75C7.35373 1.75 8.18211 2.09325 8.80542 2.71625L11.2849 5.19581C11.9082 5.81906 12.2512 6.64744 12.2512 7.52881C12.2512 8.41012 11.9079 9.2385 11.2849 9.86181L11.1819 9.96481L7.10836 5.89138C6.86423 5.64744 6.46848 5.64744 6.22436 5.89138C5.98048 6.1355 5.98048 6.53125 6.22436 6.77537L10.2979 10.8489L9.61573 11.5308C8.50854 12.6382 8.42992 14.3801 9.43336 15.5825C11.699 18.2962 14.2037 20.801 16.9174 23.0666C18.12 24.0701 19.8618 23.9917 20.9692 22.8843L21.6513 22.2024L28.7272 29.2783C25.3388 31.8291 20.6522 31.9497 17.1017 29.4331ZM29.7836 28.3604C29.7485 28.3955 29.7128 28.4299 29.6774 28.4644C29.6655 28.4502 29.6532 28.4362 29.6399 28.4229L22.535 21.3181L22.6383 21.2151C23.2614 20.5921 24.0897 20.2488 24.971 20.2488C25.8524 20.2488 26.6808 20.5921 27.304 21.2151L29.7835 23.6948C30.4069 24.3179 30.7499 25.1465 30.7499 26.0276C30.7499 26.9089 30.4066 27.7373 29.7836 28.3604Z" fill="white"/>
</svg>
