<svg width="40" height="40" viewBox="0 0 40 40" fill="none" xmlns="http://www.w3.org/2000/svg">
<path d="M5.08377 29.6713C5.08377 29.6713 4.47378 28.7865 4.36765 27.6759M11.4656 21.212C10.2794 20.0812 8.34447 17.9068 7.62358 15.1985M10.0314 15.52C9.54988 16.9138 9.57477 19.0793 9.57477 19.0793C9.57477 19.0793 7.6392 18.4572 6.07962 19.0793M8.04419 25.3511C7.10589 24.651 5.68763 23.3862 5.17996 21.8373M6.43327 23.8922C6.43327 23.8922 5.14431 23.8029 3.93143 24.3746M11.6851 24.8549C12.2676 25.9029 13.3017 27.3456 14.9543 28.3676M12.8045 26.4871C12.8045 26.4871 12.4572 28.582 13.0101 30.1186M8.33783 31.0798C9.11739 31.6614 10.2957 32.7123 10.7175 33.9991M9.67633 32.2919C9.67633 32.2919 10.7471 32.3662 11.7549 31.8911M6.43117 30.0578C5.52516 29.7205 4.2365 29.3898 3.08684 29.6449M2.77662 35.9195C3.98763 37.8222 5.99181 38.5705 8.69865 38.5705C15.0394 38.5705 18.1697 38.8774 18.1697 29.2432C18.1697 24.1618 17.6563 21.7569 17.3122 20.2642C16.2435 21.072 14.734 22.0262 12.7604 23.7753M12.7604 23.7753C9.48038 26.6822 8.28237 30.9796 7.91968 32.6865C7.8725 32.9081 7.74635 33.105 7.56482 33.2402C7.38328 33.3755 7.1588 33.4399 6.93332 33.4213C6.41137 33.3797 6.03493 32.8988 6.08403 32.3765C6.29695 30.1135 7.19751 24.7224 10.9947 21.6043M12.7604 23.7753C16.0306 20.8772 18.0285 20.1605 18.854 18.678C19.0789 18.274 19.4988 18.0182 19.9606 18.0182H20.0393C20.5011 18.0182 20.9209 18.274 21.1459 18.678C21.9713 20.1605 23.9691 20.8772 27.2394 23.7753M10.9947 21.6043C13.6835 19.3963 15.4417 17.4315 16.4811 16.1081C14.8329 13.5526 14.7829 10.7558 14.9728 9.03213C15.0922 7.94784 14.6454 6.87898 13.7847 6.21083C12.6422 5.32376 11.0365 5.33401 9.91616 6.24902C7.60773 8.13442 4.05377 12.3364 2.41116 21.0256C1.28169 27.0008 1.14649 31.1292 1.90057 33.8733M10.9947 21.6043C14.3437 18.8542 16.2501 16.4802 17.1205 15.2546C17.4993 14.722 17.7031 14.0844 17.7035 13.4304V3.1256C17.7035 2.58293 18.1426 2.14307 18.6843 2.14307H21.3155C21.8571 2.14307 22.2963 2.58293 22.2963 3.1256V13.4304C22.2967 14.0844 22.5005 14.722 22.8793 15.2546C23.7497 16.4802 25.6561 18.8542 29.0052 21.6043M32.8062 9.14151C31.8366 7.83771 30.885 6.90354 30.0836 6.24901C28.9633 5.33401 27.3576 5.32375 26.2151 6.21075C25.3544 6.87898 24.9075 7.94784 25.027 9.03212C25.2169 10.7558 25.1668 13.5526 23.5187 16.1081C24.5581 17.4315 26.3163 19.3963 29.0052 21.6043M29.0052 21.6043C32.8022 24.7224 33.7028 30.1135 33.9158 32.3765C33.9649 32.8988 33.5884 33.3797 33.0664 33.4213M33.0664 33.4213C32.8409 33.4399 32.6164 33.3755 32.4349 33.2402C32.2534 33.105 32.1272 32.9081 32.08 32.6865M33.0664 33.4213C32.5954 33.4589 32.1767 33.1416 32.08 32.6865M32.08 32.6865C31.7174 30.9795 30.5193 26.6821 27.2394 23.7753M27.2394 23.7753C25.2657 22.0262 23.7563 21.072 22.6875 20.2642C22.3435 21.7569 21.8301 24.1618 21.8301 29.2431C21.8301 38.8774 24.9604 38.5705 31.3011 38.5705C37.6418 38.5705 40.13 34.4697 37.5886 21.0256C36.7494 16.5857 35.411 13.318 33.9947 10.9316M28.534 21.212C29.7203 20.0812 31.6552 17.9068 32.3761 15.1985M29.9683 15.52C30.4498 16.9138 30.4249 19.0793 30.4249 19.0793C30.4249 19.0793 32.3604 18.4572 33.9201 19.0793M31.9555 25.3511C32.8938 24.651 34.3121 23.3862 34.8198 21.8373M33.5664 23.8922C33.5664 23.8922 34.8553 23.8029 36.0683 24.3746M28.3147 24.8549C27.7321 25.9029 26.698 27.3456 25.0455 28.3676M27.1953 26.4871C27.1953 26.4871 27.5425 28.582 26.9896 30.1186M31.6619 31.0798C30.8823 31.6614 29.704 32.7123 29.2821 33.9991M30.3233 32.2919C30.3233 32.2919 29.2524 32.3662 28.2448 31.8911M33.5685 30.0578C34.4746 29.7205 35.7631 29.3898 36.9128 29.6449M34.9159 29.6713C34.9159 29.6713 35.5259 28.7865 35.6321 27.6759" stroke="#001C15" stroke-miterlimit="10" stroke-linecap="round" stroke-linejoin="round"/>
</svg>
