<svg width="54" height="54" viewBox="0 0 54 54" fill="none" xmlns="http://www.w3.org/2000/svg">
<path d="M6.11708 40.0396C6.11708 40.0396 5.26309 38.8008 5.11452 37.2459L6.11708 40.0396Z" fill="white"/>
<path d="M15.0517 28.1966C13.391 26.6134 10.6821 23.5692 9.67281 19.7775L15.0517 28.1966Z" fill="white"/>
<path d="M13.0438 20.2277C12.3696 22.179 12.4045 25.2107 12.4045 25.2107C12.4045 25.2107 9.69468 24.3398 7.51127 25.2107" fill="white"/>
<path d="M10.2617 33.9912C8.94804 33.0111 6.96249 31.2404 6.25174 29.0719L10.2617 33.9912Z" fill="white"/>
<path d="M8.00638 31.9488C8.00638 31.9488 6.20184 31.8237 4.50381 32.6241L8.00638 31.9488Z" fill="white"/>
<path d="M15.3589 33.2966C16.1745 34.7637 17.6222 36.7835 19.9358 38.2143L15.3589 33.2966Z" fill="white"/>
<path d="M16.926 35.5816C16.926 35.5816 16.4399 38.5145 17.214 40.6658L16.926 35.5816Z" fill="white"/>
<path d="M10.6728 42.0115C11.7641 42.8257 13.4138 44.2969 14.0044 46.0985L10.6728 42.0115Z" fill="white"/>
<path d="M12.5467 43.7084C12.5467 43.7084 14.0458 43.8124 15.4566 43.1472L12.5467 43.7084Z" fill="white"/>
<path d="M8.00345 40.5807C6.73502 40.1084 4.9309 39.6454 3.32138 40.0026L8.00345 40.5807Z" fill="white"/>
<path d="M2.88707 48.787C4.58249 51.4508 7.38833 52.4985 11.1779 52.4985C20.055 52.4985 24.4374 52.928 24.4374 39.4401C24.4374 32.3262 23.7186 28.9593 23.2369 26.8696C21.7407 28.0005 19.6275 29.3365 16.8644 31.7851C12.2723 35.8548 10.5951 41.8711 10.0874 44.2608C10.0213 44.5711 9.84469 44.8467 9.59055 45.036C9.3364 45.2254 9.02212 45.3155 8.70646 45.2896C7.97572 45.2313 7.44871 44.5581 7.51745 43.8268C7.81554 40.6587 9.07632 33.111 14.3923 28.7457C18.1567 25.6546 20.6182 22.9038 22.0734 21.0511C19.7659 17.4734 19.6959 13.5578 19.9617 11.1447C20.1289 9.62669 19.5034 8.13028 18.2984 7.19487C16.6989 5.95297 14.4509 5.96733 12.8824 7.24833C9.65063 9.8879 4.67508 15.7707 2.37543 27.9355C0.794169 36.3008 0.604894 42.0805 1.66061 45.9224" fill="white"/>
<path d="M44.9284 11.2978C43.571 9.47249 42.2388 8.16466 41.1168 7.24832C39.5484 5.96732 37.3004 5.95296 35.701 7.19476C34.4959 8.13028 33.8704 9.62668 34.0376 11.1447C34.3034 13.5578 34.2333 17.4734 31.9259 21.051C33.3811 22.9038 35.8426 25.6546 39.6071 28.7457C44.9229 33.111 46.1837 40.6586 46.4819 43.8268C46.5507 44.5581 46.0236 45.2313 45.2928 45.2896C44.9771 45.3155 44.6628 45.2254 44.4087 45.036C44.1545 44.8467 43.9779 44.5711 43.9119 44.2608C43.4042 41.871 41.7269 35.8547 37.1349 31.7851C34.3718 29.3365 32.2586 28.0005 30.7623 26.8696C30.2807 28.9593 29.5619 32.3262 29.5619 39.44C29.5619 52.928 33.9443 52.4985 42.8213 52.4985C51.6984 52.4985 55.1818 46.7573 51.6238 27.9355C50.4489 21.7197 48.5752 17.1449 46.5924 13.804" fill="white"/>
<path d="M46.4819 43.8268C46.1837 40.6586 44.9229 33.111 39.6071 28.7457C34.9183 24.8956 32.2494 21.572 31.0308 19.8561C30.5005 19.1105 30.2152 18.2179 30.2146 17.3023V2.87555C30.2146 2.11581 29.5998 1.5 28.8415 1.5H25.1578C24.3994 1.5 23.7847 2.11581 23.7847 2.87555V17.3023C23.7842 18.2179 23.4989 19.1105 22.9685 19.8561C21.75 21.572 19.081 24.8956 14.3923 28.7457C9.07632 33.111 7.81554 40.6587 7.51745 43.8268C7.44871 44.5581 7.97572 45.2313 8.70646 45.2896C9.02212 45.3155 9.3364 45.2254 9.59055 45.036C9.84469 44.8467 10.0213 44.5711 10.0874 44.2608C10.5951 41.8711 12.2723 35.8548 16.8644 31.7851C21.4427 27.7278 24.2397 26.7244 25.3954 24.6489C25.7102 24.0833 26.2981 23.7252 26.9446 23.7252H27.0548C27.7013 23.7252 28.2891 24.0833 28.604 24.6489C29.7597 26.7244 32.5565 27.7278 37.1349 31.7851C41.7269 35.8547 43.4042 41.871 43.9119 44.2608C44.0471 44.898 44.6334 45.3421 45.2928 45.2896C46.0236 45.2313 46.5507 44.5581 46.4819 43.8268Z" fill="white"/>
<path d="M38.9474 28.1966C40.6082 26.6134 43.3171 23.5692 44.3264 19.7775L38.9474 28.1966Z" fill="white"/>
<path d="M40.9554 20.2277C41.6296 22.179 41.5947 25.2107 41.5947 25.2107C41.5947 25.2107 44.3044 24.3398 46.4879 25.2107" fill="white"/>
<path d="M43.7374 33.9912C45.0512 33.0111 47.0367 31.2404 47.7475 29.0719L43.7374 33.9912Z" fill="white"/>
<path d="M45.9928 31.9488C45.9928 31.9488 47.7973 31.8237 49.4954 32.6241L45.9928 31.9488Z" fill="white"/>
<path d="M38.6403 33.2966C37.8247 34.7637 36.377 36.7835 34.0635 38.2143L38.6403 33.2966Z" fill="white"/>
<path d="M37.0732 35.5816C37.0732 35.5816 37.5593 38.5145 36.7852 40.6658L37.0732 35.5816Z" fill="white"/>
<path d="M43.3264 42.0115C42.2351 42.8257 40.5854 44.2969 39.9947 46.0985L43.3264 42.0115Z" fill="white"/>
<path d="M41.4524 43.7084C41.4524 43.7084 39.9532 43.8124 38.5425 43.1472L41.4524 43.7084Z" fill="white"/>
<path d="M45.9957 40.5807C47.2642 40.1084 49.0682 39.6454 50.6777 40.0026L45.9957 40.5807Z" fill="white"/>
<path d="M47.8821 40.0396C47.8821 40.0396 48.7361 38.8008 48.8847 37.2459L47.8821 40.0396Z" fill="white"/>
<path d="M6.11708 40.0396C6.11708 40.0396 5.26309 38.8008 5.11452 37.2459M15.0517 28.1966C13.391 26.6134 10.6821 23.5692 9.67281 19.7775M13.0438 20.2277C12.3696 22.179 12.4045 25.2107 12.4045 25.2107C12.4045 25.2107 9.69468 24.3398 7.51127 25.2107M10.2617 33.9912C8.94804 33.0111 6.96249 31.2404 6.25174 29.0719M8.00638 31.9488C8.00638 31.9488 6.20184 31.8237 4.50381 32.6241M15.3589 33.2966C16.1745 34.7637 17.6222 36.7835 19.9358 38.2143M16.926 35.5816C16.926 35.5816 16.4399 38.5145 17.214 40.6658M10.6728 42.0115C11.7641 42.8257 13.4138 44.2969 14.0044 46.0985M12.5467 43.7084C12.5467 43.7084 14.0458 43.8124 15.4566 43.1472M8.00345 40.5807C6.73502 40.1084 4.9309 39.6454 3.32138 40.0026M2.88707 48.787C4.58249 51.4508 7.38833 52.4985 11.1779 52.4985C20.055 52.4985 24.4374 52.928 24.4374 39.4401C24.4374 32.3262 23.7186 28.9593 23.2369 26.8696C21.7407 28.0005 19.6275 29.3365 16.8644 31.7851M16.8644 31.7851C12.2723 35.8548 10.5951 41.8711 10.0874 44.2608C10.0213 44.5711 9.84469 44.8467 9.59055 45.036C9.3364 45.2254 9.02212 45.3155 8.70646 45.2896C7.97572 45.2313 7.44871 44.5581 7.51745 43.8268C7.81554 40.6587 9.07632 33.111 14.3923 28.7457M16.8644 31.7851C21.4427 27.7278 24.2397 26.7244 25.3954 24.6489C25.7102 24.0833 26.2981 23.7252 26.9446 23.7252H27.0548C27.7013 23.7252 28.2891 24.0833 28.6041 24.6489C29.7597 26.7244 32.5565 27.7278 37.1349 31.7851M14.3923 28.7457C18.1567 25.6546 20.6182 22.9038 22.0734 21.0511C19.7659 17.4734 19.6959 13.5578 19.9617 11.1447C20.1289 9.62669 19.5034 8.13028 18.2984 7.19487C16.6989 5.95297 14.4509 5.96733 12.8824 7.24833C9.65063 9.8879 4.67508 15.7707 2.37543 27.9355C0.794169 36.3008 0.604894 42.0805 1.66061 45.9224M14.3923 28.7457C19.081 24.8956 21.75 21.572 22.9685 19.8561C23.4989 19.1105 23.7842 18.2179 23.7847 17.3023V2.87555C23.7847 2.11581 24.3994 1.5 25.1578 1.5H28.8415C29.5998 1.5 30.2146 2.11581 30.2146 2.87555V17.3023C30.2152 18.2179 30.5005 19.1105 31.0308 19.8561C32.2494 21.572 34.9183 24.8956 39.6071 28.7457M44.9284 11.2978C43.571 9.47249 42.2388 8.16466 41.1168 7.24832C39.5484 5.96732 37.3004 5.95296 35.701 7.19476C34.4959 8.13028 33.8704 9.62668 34.0376 11.1447C34.3034 13.5578 34.2333 17.4734 31.9259 21.051C33.3811 22.9038 35.8426 25.6546 39.6071 28.7457M39.6071 28.7457C44.9229 33.111 46.1837 40.6586 46.4819 43.8268C46.5507 44.5581 46.0236 45.2313 45.2928 45.2896M45.2928 45.2896C44.9771 45.3155 44.6628 45.2254 44.4087 45.036C44.1545 44.8467 43.9779 44.5711 43.9119 44.2608M45.2928 45.2896C44.6334 45.3421 44.0471 44.898 43.9119 44.2608M43.9119 44.2608C43.4042 41.871 41.7269 35.8547 37.1349 31.7851M37.1349 31.7851C34.3718 29.3365 32.2586 28.0005 30.7623 26.8696C30.2807 28.9593 29.5619 32.3262 29.5619 39.44C29.5619 52.928 33.9443 52.4985 42.8213 52.4985C51.6984 52.4985 55.1818 46.7573 51.6238 27.9355C50.4489 21.7197 48.5752 17.1449 46.5924 13.804M38.9474 28.1966C40.6082 26.6134 43.3171 23.5692 44.3264 19.7775M40.9554 20.2277C41.6296 22.179 41.5947 25.2107 41.5947 25.2107C41.5947 25.2107 44.3044 24.3398 46.4879 25.2107M43.7374 33.9912C45.0512 33.0111 47.0367 31.2404 47.7475 29.0719M45.9928 31.9488C45.9928 31.9488 47.7973 31.8237 49.4954 32.6241M38.6403 33.2966C37.8247 34.7637 36.377 36.7835 34.0635 38.2143M37.0732 35.5816C37.0732 35.5816 37.5593 38.5145 36.7852 40.6658M43.3264 42.0115C42.2351 42.8257 40.5854 44.2969 39.9947 46.0985M41.4524 43.7084C41.4524 43.7084 39.9532 43.8124 38.5425 43.1472M45.9957 40.5807C47.2642 40.1084 49.0682 39.6454 50.6777 40.0026M47.8821 40.0396C47.8821 40.0396 48.7361 38.8008 48.8847 37.2459" stroke="#02C898" stroke-width="1.5" stroke-miterlimit="10" stroke-linecap="round" stroke-linejoin="round"/>
</svg>
