<svg width="14" height="14" viewBox="0 0 14 14" fill="none" xmlns="http://www.w3.org/2000/svg">
<path d="M13 6.25H9.5C8.96957 6.25 8.46086 6.46071 8.08579 6.83579C7.71071 7.21086 7.5 7.71957 7.5 8.25C7.5 8.78043 7.71071 9.28914 8.08579 9.66421C8.46086 10.0393 8.96957 10.25 9.5 10.25H11.5V11.75C11.4999 11.8826 11.4471 12.0097 11.3534 12.1034C11.2597 12.1971 11.1326 12.2499 11 12.25H3C2.60218 12.25 2.22064 12.092 1.93934 11.8107C1.65804 11.5294 1.5 11.1478 1.5 10.75V3.25C1.5 2.85218 1.65804 2.47064 1.93934 2.18934C2.22064 1.90804 2.60218 1.75 3 1.75H10C10.1326 1.75 10.2598 1.80268 10.3536 1.89645C10.4473 1.99021 10.5 2.11739 10.5 2.25V2.75H3C2.86739 2.75 2.74021 2.80268 2.64645 2.89645C2.55268 2.99021 2.5 3.11739 2.5 3.25C2.5 3.38261 2.55268 3.50979 2.64645 3.60355C2.74021 3.69732 2.86739 3.75 3 3.75H11C11.1326 3.75013 11.2597 3.80285 11.3534 3.89659C11.4471 3.99033 11.4999 4.11743 11.5 4.25V4.7605C11.5 4.89311 11.5527 5.02029 11.6464 5.11405C11.7402 5.20782 11.8674 5.2605 12 5.2605C12.1326 5.2605 12.2598 5.20782 12.3536 5.11405C12.4473 5.02029 12.5 4.89311 12.5 4.7605V4.25C12.5224 3.93499 12.4351 3.62193 12.2528 3.36405C12.0705 3.10617 11.8045 2.9194 11.5 2.8355V2.25C11.5 1.85218 11.342 1.47064 11.0607 1.18934C10.7794 0.908035 10.3978 0.75 10 0.75H3C2.337 0.750133 1.70119 1.01357 1.23238 1.48238C0.763567 1.95119 0.500133 2.587 0.5 3.25V10.75C0.500133 11.413 0.763567 12.0488 1.23238 12.5176C1.70119 12.9864 2.337 13.2499 3 13.25H11C11.3977 13.2496 11.779 13.0914 12.0602 12.8102C12.3414 12.529 12.4996 12.1477 12.5 11.75V10.25H13C13.1326 10.25 13.2598 10.1973 13.3536 10.1036C13.4473 10.0098 13.5 9.88261 13.5 9.75V6.75C13.5 6.61739 13.4473 6.49021 13.3536 6.39645C13.2598 6.30268 13.1326 6.25 13 6.25ZM12.5 9.25H9.5C9.23478 9.25 8.98043 9.14464 8.79289 8.95711C8.60536 8.76957 8.5 8.51522 8.5 8.25C8.5 7.98478 8.60536 7.73043 8.79289 7.54289C8.98043 7.35536 9.23478 7.25 9.5 7.25H12.5V9.25Z" fill="#053D4C"/>
</svg>
