<svg width="14" height="15" viewBox="0 0 14 15" fill="none" xmlns="http://www.w3.org/2000/svg">
<rect width="14" height="14" transform="translate(0 0.5)" fill="white"/>
<path d="M7.14882 10.3642L3.14378 6.57685C3.05107 6.48925 3 6.37231 3 6.24763C3 6.12294 3.05107 6.00601 3.14378 5.91841L3.43865 5.63949C3.6308 5.458 3.94309 5.458 4.13494 5.63949L7.49813 8.81986L10.8651 5.63596C10.9578 5.54836 11.0813 5.5 11.2131 5.5C11.3451 5.5 11.4686 5.54836 11.5614 5.63596L11.8562 5.91488C11.9489 6.00255 12 6.11941 12 6.2441C12 6.36878 11.9489 6.48572 11.8562 6.57332L7.84752 10.3642C7.75452 10.452 7.63035 10.5003 7.49835 10.5C7.36584 10.5003 7.24175 10.452 7.14882 10.3642Z" fill="#989898"/>
</svg>
