<svg width="24" height="24" viewBox="0 0 24 24" fill="none" xmlns="http://www.w3.org/2000/svg">
<path d="M12.0365 21.0997H20.2592C20.7635 21.0997 21.1728 20.6904 21.1728 20.1861V3.74089C21.1728 3.23657 20.7634 2.82729 20.2592 2.82729H12.0365C11.5313 2.82729 11.1229 2.41891 11.1229 1.91369C11.1229 1.40846 11.5313 1 12.0365 1H20.2592C21.7703 1 23 2.22977 23 3.74089V20.1861C23 21.6972 21.7703 22.9269 20.2592 22.9269H12.0365C11.5313 22.9269 11.1229 22.5185 11.1229 22.0133C11.1229 21.5081 11.5313 21.0997 12.0365 21.0997Z" fill="#001C15"/>
<path d="M1.27166 11.3131L6.82649 5.83139C7.18464 5.47689 7.76386 5.48149 8.11835 5.84054C8.47284 6.19958 8.46919 6.7779 8.1092 7.13239L4.13953 11.05H14.7768C15.2821 11.05 15.6904 11.4584 15.6904 11.9636C15.6904 12.4688 15.2821 12.8772 14.7768 12.8772H4.13953L8.1092 16.7948C8.46914 17.1493 8.47189 17.7276 8.11835 18.0867C8.03337 18.1729 7.93211 18.2414 7.82043 18.2881C7.70876 18.3349 7.5889 18.3589 7.46784 18.3589C7.23577 18.3589 7.00374 18.2712 6.82649 18.0958L1.27166 12.614C1.18553 12.529 1.11712 12.4277 1.07038 12.3161C1.02365 12.2044 0.99953 12.0846 0.999414 11.9635C0.999414 11.7188 1.09717 11.4858 1.27166 11.3131Z" fill="#001C15"/>
</svg>
