<svg width="56" height="57" viewBox="0 0 56 57" fill="none" xmlns="http://www.w3.org/2000/svg">
<path d="M46.112 29.4528C43.1542 29.4528 40.6264 31.3582 39.6525 34.0249H37.1282C32.2212 34.0249 28.2291 38.0834 28.2291 43.0721V46.2075C28.2291 48.2153 26.6224 49.8486 24.6476 49.8486C22.6728 49.8486 21.0661 48.2152 21.0661 46.2075V35.1479C23.27 34.7327 25.3191 33.7273 27.0264 32.2176C28.9158 30.5467 30.2584 28.3685 30.9092 25.9184L31.4108 24.03C31.6717 23.0481 31.2705 22.041 30.4861 21.4992L33.3981 10.5363C33.7673 9.1469 33.4852 7.69485 32.6246 6.55227C31.764 5.40968 30.4586 4.7544 29.0431 4.7544H27.9976C27.6647 3.45896 26.5038 2.5 25.1267 2.5C23.4906 2.5 22.1597 3.85323 22.1597 5.51642C22.1597 7.17962 23.4907 8.53285 25.1267 8.53285C26.5065 8.53285 27.6693 7.57033 27.9997 6.27114H29.0431C29.9904 6.27114 30.8641 6.70969 31.4401 7.47436C32.0161 8.23903 32.2047 9.21088 31.9578 10.1407L29.0456 21.1044C28.6994 21.1277 28.363 21.2312 28.0622 21.407C27.8012 21.5585 27.5724 21.7612 27.3889 22.0033C27.2055 22.2453 27.0712 22.522 26.9936 22.8172L26.8105 23.5066C26.784 23.6031 26.7764 23.7039 26.7884 23.8034C26.8004 23.9028 26.8317 23.9988 26.8804 24.0859C26.9291 24.173 26.9943 24.2494 27.0722 24.3107C27.1502 24.3721 27.2393 24.4171 27.3344 24.4432C27.4295 24.4693 27.5288 24.476 27.6265 24.4629C27.7242 24.4498 27.8184 24.4171 27.9036 24.3668C27.9888 24.3165 28.0633 24.2495 28.1229 24.1697C28.1825 24.0899 28.226 23.9989 28.2508 23.902L28.4339 23.2126C28.4609 23.1099 28.5076 23.0137 28.5714 22.9295C28.6352 22.8452 28.7148 22.7747 28.8056 22.722C28.8961 22.6688 28.9961 22.6344 29.0998 22.6208C29.2035 22.6071 29.3088 22.6145 29.4096 22.6425C29.8331 22.7588 30.0847 23.2037 29.9704 23.6344L29.4688 25.5228C28.2998 29.9233 24.6705 33.1519 20.2224 33.7482C20.043 33.7723 19.8783 33.8618 19.759 34.0001C19.6397 34.1384 19.574 34.3161 19.574 34.5001V46.2073C19.574 49.0514 21.8499 51.3653 24.6475 51.3653C27.4451 51.3653 29.721 49.0514 29.721 46.2073V43.0719C29.721 38.9196 33.0438 35.5415 37.1281 35.5415H39.2844C39.2447 35.8444 39.2245 36.1497 39.2239 36.4553C39.2239 36.6929 39.2359 36.9279 39.2588 37.1595H37.1282C33.9214 37.1595 31.3125 39.8118 31.3125 43.0719V46.2073C31.3125 49.9436 28.3226 52.9833 24.6475 52.9833C20.9724 52.9833 17.9824 49.9436 17.9824 46.2073V44.8936C17.9824 44.6924 17.9039 44.4995 17.764 44.3573C17.6241 44.2151 17.4343 44.1352 17.2365 44.1352C17.0387 44.1352 16.8489 44.2151 16.709 44.3573C16.5691 44.4995 16.4905 44.6924 16.4905 44.8936V46.2073C16.4905 50.7799 20.1497 54.5 24.6475 54.5C29.1453 54.5 32.8045 50.7798 32.8045 46.2073V43.0719C32.8045 40.6482 34.7441 38.6764 37.1282 38.6764H39.5811C40.4969 41.4519 43.0774 43.4581 46.112 43.4581C49.9101 43.4581 53 40.3167 53 36.4554C53 32.5941 49.9101 29.4528 46.112 29.4528ZM25.1267 7.0161C24.3133 7.0161 23.6516 6.34335 23.6516 5.51642C23.6516 4.6895 24.3132 4.01674 25.1267 4.01674C25.9402 4.01674 26.6018 4.6895 26.6018 5.51642C26.6018 6.34335 25.9401 7.0161 25.1267 7.0161ZM46.112 41.9414C43.1367 41.9414 40.716 39.4804 40.716 36.4556C40.716 33.4307 43.1367 30.9698 46.112 30.9698C49.0873 30.9698 51.508 33.4307 51.508 36.4556C51.508 39.4804 49.0873 41.9414 46.112 41.9414Z" fill="#02C898"/>
<path d="M46.112 32.575C45.7336 32.575 45.3593 32.6313 45.0001 32.7424C44.8146 32.8042 44.6604 32.9374 44.5704 33.1134C44.4803 33.2894 44.4617 33.4943 44.5185 33.6841C44.5753 33.8739 44.703 34.0336 44.8742 34.1288C45.0454 34.224 45.2465 34.2473 45.4344 34.1936C45.6541 34.1259 45.8825 34.0916 46.1121 34.0918C47.3941 34.0918 48.4371 35.1521 48.4371 36.4555C48.4371 37.7589 47.394 38.8192 46.1121 38.8192C44.8302 38.8192 43.7871 37.7589 43.7871 36.4555C43.7871 36.3089 43.8003 36.1622 43.8265 36.0193C43.8444 35.9214 43.8432 35.8208 43.8229 35.7234C43.8026 35.6259 43.7636 35.5335 43.7082 35.4514C43.6527 35.3693 43.5819 35.2991 43.4998 35.2448C43.4176 35.1905 43.3258 35.1532 43.2295 35.135C42.8251 35.058 42.435 35.3301 42.3597 35.7419C42.3167 35.9773 42.2951 36.2161 42.2951 36.4555C42.2951 38.5952 44.0074 40.336 46.1121 40.336C48.2168 40.336 49.9291 38.5952 49.9291 36.4555C49.9291 34.3158 48.2168 32.575 46.112 32.575ZM16.4906 41.6579C16.4906 41.859 16.5692 42.0519 16.7091 42.1941C16.849 42.3363 17.0387 42.4162 17.2366 42.4162C17.4344 42.4162 17.6241 42.3363 17.764 42.1941C17.9039 42.0519 17.9825 41.859 17.9825 41.6579V34.5004C17.9825 34.3164 17.9167 34.1387 17.7975 34.0004C17.6782 33.8621 17.5135 33.7726 17.3341 33.7485C12.8861 33.1522 9.25675 29.9236 8.08782 25.5231L7.58622 23.6347C7.5587 23.5321 7.55146 23.4251 7.56492 23.3197C7.57838 23.2143 7.61228 23.1126 7.66464 23.0206C7.71648 22.9284 7.78578 22.8475 7.86855 22.7826C7.95132 22.7178 8.04591 22.6703 8.14686 22.6428C8.57113 22.5266 9.00839 22.7823 9.12278 23.2128L9.62438 25.1012C10.7389 29.2973 14.5032 32.2279 18.7783 32.2279C22.2973 32.2279 25.5086 30.2617 27.159 27.0963C27.2517 26.9186 27.2711 26.7107 27.213 26.5184C27.1549 26.3261 27.0241 26.1652 26.8493 26.071C26.6744 25.9768 26.4699 25.957 26.2808 26.0161C26.0916 26.0751 25.9333 26.2082 25.8407 26.3859C24.4497 29.0538 21.7436 30.7111 18.7783 30.7111C15.1759 30.7111 12.004 28.2416 11.0646 24.7058L10.563 22.8173C10.3024 21.8358 9.45725 21.1709 8.51099 21.1039L5.5989 10.1408C5.35195 9.21099 5.54076 8.23913 6.11669 7.47436C6.69261 6.70969 7.56634 6.27114 8.51369 6.27114H9.32308C9.65355 7.57033 10.8163 8.53285 12.1961 8.53285C13.8322 8.53285 15.1631 7.17962 15.1631 5.51642C15.1631 3.85323 13.8321 2.5 12.196 2.5C10.8189 2.5 9.65804 3.45896 9.32508 4.7544H8.51369C7.0981 4.7544 5.79271 5.40968 4.93217 6.55227C4.07143 7.69485 3.78961 9.1469 4.15855 10.5363L7.07063 21.4992C6.28632 22.041 5.88512 23.0481 6.14596 24.03L6.64756 25.9184C7.2984 28.3686 8.64096 30.5468 10.5304 32.2176C12.2376 33.7273 14.2868 34.7327 16.4906 35.1479V41.6579ZM12.196 4.01684C13.0094 4.01684 13.6711 4.6896 13.6711 5.51653C13.6711 6.34345 13.0095 7.01621 12.196 7.01621C11.3825 7.01621 10.721 6.34335 10.721 5.51642C10.721 4.6895 11.3826 4.01684 12.196 4.01684Z" fill="#02C898"/>
</svg>
