<svg width="40" height="40" viewBox="0 0 40 40" fill="none" xmlns="http://www.w3.org/2000/svg">
<path d="M32.937 20.6807C30.8243 20.6807 29.0187 22.0417 28.323 23.9465H26.52C23.015 23.9465 20.1635 26.8455 20.1635 30.4088V32.6483C20.1635 34.0825 19.0159 35.2492 17.6053 35.2492C16.1947 35.2492 15.047 34.0824 15.047 32.6483V24.7486C16.6213 24.4521 18.0849 23.7339 19.3044 22.6555C20.654 21.4621 21.613 19.9062 22.0779 18.1562L22.4361 16.8073C22.6225 16.106 22.3359 15.3866 21.7757 14.9996L23.8557 7.16891C24.1193 6.1765 23.9179 5.13932 23.3031 4.32319C22.6884 3.50705 21.756 3.03899 20.7449 3.03899H19.9982C19.7603 2.11368 18.9312 1.42871 17.9475 1.42871C16.7789 1.42871 15.8282 2.3953 15.8282 3.5833C15.8282 4.7713 16.779 5.73789 17.9475 5.73789C18.9331 5.73789 19.7636 5.05038 19.9997 4.12238H20.7449C21.4216 4.12238 22.0456 4.43563 22.4571 4.98182C22.8685 5.52802 23.0032 6.2222 22.8268 6.88635L20.7467 14.7176C20.4994 14.7342 20.2591 14.8081 20.0443 14.9337C19.8578 15.0419 19.6944 15.1867 19.5634 15.3596C19.4324 15.5325 19.3364 15.7301 19.281 15.941L19.1502 16.4334C19.1312 16.5023 19.1259 16.5744 19.1345 16.6454C19.143 16.7164 19.1653 16.785 19.2001 16.8472C19.2349 16.9094 19.2815 16.964 19.3372 17.0078C19.3928 17.0516 19.4565 17.0838 19.5244 17.1024C19.5924 17.1211 19.6633 17.1259 19.7331 17.1165C19.8028 17.1071 19.8701 17.0838 19.931 17.0479C19.9918 17.0119 20.0451 16.9641 20.0876 16.9071C20.1302 16.8501 20.1613 16.7851 20.179 16.7158L20.3098 16.2234C20.329 16.1501 20.3624 16.0813 20.408 16.0212C20.4536 15.961 20.5104 15.9107 20.5753 15.873C20.6399 15.835 20.7114 15.8104 20.7854 15.8007C20.8595 15.7909 20.9347 15.7962 21.0067 15.8162C21.3092 15.8993 21.489 16.2171 21.4072 16.5247L21.049 17.8736C20.214 21.0168 17.6216 23.323 14.4444 23.7489C14.3163 23.766 14.1987 23.83 14.1134 23.9288C14.0282 24.0276 13.9812 24.1545 13.9812 24.2859V32.6482C13.9812 34.6797 15.6069 36.3325 17.6052 36.3325C19.6035 36.3325 21.2291 34.6797 21.2291 32.6482V30.4087C21.2291 27.4427 23.6026 25.0298 26.5199 25.0298H28.0602C28.0318 25.2462 28.0174 25.4642 28.0169 25.6825C28.0169 25.8522 28.0255 26.02 28.0418 26.1855H26.52C24.2294 26.1855 22.3659 28.08 22.3659 30.4087V32.6482C22.3659 35.317 20.2303 37.4882 17.6052 37.4882C14.9801 37.4882 12.8445 35.317 12.8445 32.6482V31.7098C12.8445 31.5662 12.7883 31.4284 12.6884 31.3268C12.5885 31.2252 12.4529 31.1681 12.3116 31.1681C12.1703 31.1681 12.0348 31.2252 11.9349 31.3268C11.8349 31.4284 11.7788 31.5662 11.7788 31.7098V32.6482C11.7788 35.9144 14.3925 38.5716 17.6052 38.5716C20.8179 38.5716 23.4317 35.9143 23.4317 32.6482V30.4087C23.4317 28.6774 24.8171 27.269 26.52 27.269H28.2721C28.9262 29.2515 30.7695 30.6845 32.937 30.6845C35.6499 30.6845 37.857 28.4407 37.857 25.6826C37.857 22.9245 35.6499 20.6807 32.937 20.6807ZM17.9475 4.6545C17.3665 4.6545 16.8938 4.17396 16.8938 3.5833C16.8938 2.99264 17.3664 2.5121 17.9475 2.5121C18.5286 2.5121 19.0012 2.99264 19.0012 3.5833C19.0012 4.17396 18.5285 4.6545 17.9475 4.6545ZM32.937 29.6012C30.8118 29.6012 29.0827 27.8433 29.0827 25.6827C29.0827 23.5221 30.8118 21.7643 32.937 21.7643C35.0622 21.7643 36.7913 23.5221 36.7913 25.6827C36.7913 27.8433 35.0622 29.6012 32.937 29.6012Z" fill="#001C15"/>
<path d="M32.9369 22.9108C32.6666 22.9108 32.3993 22.9511 32.1427 23.0305C32.0102 23.0746 31.9001 23.1697 31.8358 23.2954C31.7715 23.4212 31.7582 23.5675 31.7987 23.7031C31.8393 23.8387 31.9305 23.9527 32.0528 24.0207C32.1751 24.0887 32.3187 24.1053 32.4529 24.067C32.6099 24.0186 32.773 23.9941 32.937 23.9943C33.8527 23.9943 34.5977 24.7517 34.5977 25.6826C34.5977 26.6136 33.8526 27.371 32.937 27.371C32.0213 27.371 31.2763 26.6136 31.2763 25.6826C31.2763 25.578 31.2857 25.4731 31.3044 25.3711C31.3172 25.3011 31.3164 25.2293 31.3019 25.1597C31.2874 25.0901 31.2595 25.0241 31.2199 24.9654C31.1803 24.9068 31.1297 24.8566 31.0711 24.8178C31.0124 24.779 30.9468 24.7524 30.878 24.7394C30.5891 24.6844 30.3105 24.8788 30.2567 25.1729C30.226 25.341 30.2106 25.5117 30.2106 25.6826C30.2106 27.211 31.4336 28.4544 32.937 28.4544C34.4403 28.4544 35.6634 27.211 35.6634 25.6826C35.6634 24.1543 34.4403 22.9108 32.9369 22.9108ZM11.7788 29.3986C11.7788 29.5423 11.8349 29.6801 11.9349 29.7816C12.0348 29.8832 12.1703 29.9403 12.3116 29.9403C12.4529 29.9403 12.5885 29.8832 12.6884 29.7816C12.7883 29.6801 12.8444 29.5423 12.8444 29.3986V24.2861C12.8444 24.1547 12.7975 24.0278 12.7123 23.929C12.627 23.8302 12.5094 23.7663 12.3813 23.7491C9.20416 23.3231 6.61175 21.017 5.7768 17.8738L5.41852 16.5249C5.39886 16.4517 5.39369 16.3752 5.40331 16.2999C5.41292 16.2246 5.43713 16.152 5.47453 16.0863C5.51156 16.0204 5.56106 15.9626 5.62019 15.9163C5.67931 15.87 5.74687 15.836 5.81897 15.8164C6.12203 15.7334 6.43436 15.916 6.51606 16.2236L6.87435 17.5725C7.67041 20.5697 10.3592 22.6629 13.4129 22.6629C15.9264 22.6629 18.2202 21.2585 19.3991 18.9975C19.4653 18.8706 19.4792 18.7221 19.4377 18.5847C19.3962 18.4474 19.3027 18.3324 19.1778 18.2651C19.053 18.1978 18.9069 18.1837 18.7718 18.2259C18.6367 18.2681 18.5236 18.3631 18.4574 18.4901C17.4638 20.3957 15.5309 21.5795 13.4129 21.5795C10.8397 21.5795 8.57408 19.8156 7.9031 17.29L7.54482 15.9411C7.35865 15.24 6.75497 14.765 6.07907 14.7172L3.99901 6.88642C3.82261 6.22227 3.95748 5.52809 4.36885 4.98182C4.78023 4.43563 5.40432 4.12238 6.081 4.12238H6.65913C6.89518 5.05038 7.72571 5.73789 8.71129 5.73789C9.87991 5.73789 10.8306 4.7713 10.8306 3.5833C10.8306 2.3953 9.87984 1.42871 8.71122 1.42871C7.72756 1.42871 6.89839 2.11368 6.66056 3.03899H6.081C5.06987 3.03899 4.13744 3.50705 3.52277 4.32319C2.90796 5.13932 2.70666 6.1765 2.97018 7.16891L5.05024 14.9996C4.49002 15.3866 4.20345 16.106 4.38976 16.8073L4.74804 18.1562C5.21294 19.9063 6.17191 21.4621 7.52149 22.6555C8.74091 23.7339 10.2047 24.4521 11.7788 24.7486V29.3986ZM8.71122 2.51217C9.29221 2.51217 9.76488 2.99271 9.76488 3.58337C9.76488 4.17403 9.29229 4.65457 8.71122 4.65457C8.13016 4.65457 7.65763 4.17396 7.65763 3.5833C7.65763 2.99264 8.13023 2.51217 8.71122 2.51217Z" fill="#001C15"/>
</svg>
