<svg width="32" height="32" viewBox="0 0 32 32" fill="none" xmlns="http://www.w3.org/2000/svg">
<rect width="32" height="32" fill="#02C898"/>
<path d="M24.9204 10.8512C24.8683 10.7663 24.7935 10.6976 24.7045 10.6528C24.6155 10.608 24.5158 10.5888 24.4166 10.5975L23.519 10.6757L24.377 8.94625C24.4268 8.8458 24.4439 8.73225 24.426 8.62156C24.408 8.51087 24.3558 8.40859 24.2767 8.32909C24.1976 8.24959 24.0956 8.19686 23.985 8.1783C23.8744 8.15974 23.7607 8.17629 23.66 8.22562L21.3894 9.33765C19.9865 8.59705 18.2339 8.81688 17.0279 9.91548C16.0214 10.8324 15.4923 12.2424 15.591 13.6485C12.9603 13.3848 10.7335 11.879 9.41671 9.446C9.37373 9.36658 9.3114 9.29929 9.23549 9.25036C9.15959 9.20142 9.07257 9.17243 8.98249 9.16606C8.89241 9.15969 8.80217 9.17615 8.72014 9.21392C8.63811 9.25169 8.56693 9.30954 8.5132 9.38212C7.69652 10.4854 7.63921 11.9981 8.27944 13.2426C8.10296 13.198 7.91516 13.1377 7.70689 13.0681C7.61915 13.0388 7.52531 13.0326 7.43449 13.0502C7.34366 13.0679 7.25894 13.1087 7.18853 13.1687C7.11812 13.2287 7.06442 13.3059 7.03265 13.3928C7.00087 13.4797 6.9921 13.5733 7.00718 13.6646C7.26051 15.2005 8.15615 16.3809 9.57098 17.0796C9.38677 17.1437 9.1986 17.1959 9.00764 17.2357C8.91436 17.2551 8.82794 17.299 8.75725 17.3629C8.68655 17.4268 8.63414 17.5083 8.60538 17.5991C8.57663 17.69 8.57257 17.7868 8.59362 17.8797C8.61468 17.9727 8.66009 18.0583 8.72519 18.1279C9.74405 19.2169 11.2158 19.753 12.2612 20.0101C11.0726 20.9409 9.78951 21.0967 7.92503 21.0327C7.70921 21.0262 7.51037 21.1477 7.41963 21.3434C7.37526 21.4391 7.36008 21.5458 7.37599 21.6501C7.39189 21.7544 7.43818 21.8517 7.50907 21.9298C8.2863 22.7865 11.118 23.7526 14.0947 23.825C14.2125 23.8278 14.3326 23.8294 14.4552 23.8294C16.5453 23.8293 19.3075 23.3813 21.2902 21.3986C22.791 19.8979 23.7296 18.1703 24.0801 16.2639C24.3632 14.7242 24.1843 13.4912 24.0983 12.8986C24.092 12.855 24.0852 12.8088 24.0798 12.7684L24.9193 11.4152C24.9718 11.3306 24.9998 11.233 24.9999 11.1333C25.0001 11.0337 24.9726 10.936 24.9204 10.8512ZM23.0359 13.0527C23.1952 14.1504 23.6798 17.4908 20.5312 20.6395C18.7009 22.4697 16.0351 22.7983 14.1208 22.7518C12.4874 22.7121 11.0264 22.3997 9.96751 22.0434C10.3974 21.9907 10.7806 21.9093 11.1422 21.7969C12.1392 21.487 12.9815 20.9294 13.7928 20.0421C13.8592 19.9695 13.9043 19.8802 13.9233 19.7837C13.9423 19.6873 13.9345 19.5875 13.9007 19.4952C13.8668 19.4029 13.8083 19.3216 13.7315 19.2603C13.6546 19.199 13.5624 19.16 13.4649 19.1475C12.9531 19.0819 11.4151 18.823 10.2041 17.9876C10.5531 17.8449 10.8897 17.6662 11.2111 17.453C11.2974 17.3958 11.3652 17.3148 11.4065 17.2198C11.4478 17.1248 11.4608 17.0199 11.4438 16.9177C11.4268 16.8156 11.3807 16.7205 11.3109 16.644C11.2411 16.5674 11.1506 16.5127 11.0504 16.4865C10.0592 16.2266 8.8629 15.6451 8.31126 14.347C8.66353 14.4088 9.04655 14.4237 9.45507 14.3321C9.54807 14.3113 9.63385 14.2661 9.70358 14.2011C9.77332 14.1361 9.8245 14.0538 9.85187 13.9625C9.87923 13.8712 9.8818 13.7742 9.8593 13.6816C9.8368 13.589 9.79004 13.5041 9.72384 13.4355C9.03745 12.7246 8.78077 11.7 9.00099 10.8234C9.72219 11.8774 10.6359 12.7644 11.6827 13.4203C13.0218 14.2593 14.5848 14.723 16.2027 14.761C16.2841 14.7628 16.3649 14.7461 16.4389 14.7122C16.5129 14.6782 16.5783 14.6279 16.6301 14.5651C16.6818 14.5022 16.7185 14.4283 16.7374 14.3491C16.7564 14.2698 16.757 14.1873 16.7393 14.1078C16.461 12.8564 16.858 11.5224 17.7508 10.7091C18.6768 9.86555 20.0454 9.73759 21.0789 10.3981C21.1565 10.4477 21.2456 10.4765 21.3376 10.4817C21.4296 10.4869 21.5214 10.4684 21.6041 10.4279L22.7129 9.88478L22.1326 11.0548C22.0902 11.1402 22.0713 11.2353 22.0779 11.3304C22.0845 11.4255 22.1163 11.5171 22.17 11.5958C22.2237 11.6746 22.2973 11.7376 22.3835 11.7785C22.4696 11.8193 22.5651 11.8364 22.66 11.8281L23.4419 11.76L23.0817 12.3406C22.9608 12.5355 22.9859 12.7084 23.0359 13.0527Z" fill="white"/>
</svg>
