<svg width="18" height="22" viewBox="0 0 18 22" fill="none" xmlns="http://www.w3.org/2000/svg">
<path d="M11.673 21.89C11.3216 21.8882 10.9746 21.8115 10.6551 21.6651C10.3356 21.5187 10.0509 21.306 9.82004 21.041C9.50104 20.734 9.35704 20.61 9.00704 20.61C8.65704 20.61 8.51304 20.734 8.19304 21.041C7.96314 21.3072 7.67858 21.5208 7.35875 21.6672C7.03891 21.8136 6.69129 21.8893 6.33954 21.8893C5.98779 21.8893 5.64017 21.8136 5.32033 21.6672C5.00049 21.5208 4.71594 21.3072 4.48604 21.041C4.16704 20.733 4.02204 20.609 3.67104 20.609C3.46595 20.6015 3.26582 20.6731 3.11204 20.809C2.85232 21.0204 2.53776 21.1534 2.20518 21.1926C1.87259 21.2317 1.53574 21.1753 1.23404 21.03C0.937735 20.8889 0.687789 20.6663 0.513507 20.3882C0.339226 20.1102 0.247831 19.7882 0.250039 19.46V2C0.250568 1.53603 0.435113 1.09122 0.763187 0.763148C1.09126 0.435074 1.53607 0.250529 2.00004 0.25H16C16.464 0.250529 16.9088 0.435074 17.2369 0.763148C17.565 1.09122 17.7495 1.53603 17.75 2V19.454C17.7521 19.7815 17.661 20.1028 17.4873 20.3805C17.3136 20.6581 17.0645 20.8806 16.769 21.022C16.4671 21.168 16.1298 21.2249 15.7967 21.1861C15.4636 21.1473 15.1484 21.0144 14.888 20.803C14.7364 20.6703 14.5394 20.6012 14.338 20.61C13.987 20.61 13.844 20.734 13.524 21.041C13.2935 21.3059 13.0092 21.5186 12.69 21.665C12.3709 21.8113 12.0242 21.8881 11.673 21.89ZM9.00704 19.11C9.35833 19.1119 9.70519 19.1885 10.0245 19.3349C10.3439 19.4813 10.6284 19.6941 10.859 19.959C11.179 20.266 11.322 20.39 11.673 20.39C12.024 20.39 12.166 20.266 12.485 19.959C12.7159 19.694 13.0006 19.4813 13.3201 19.3349C13.6396 19.1885 13.9866 19.1118 14.338 19.11C14.8792 19.1007 15.4059 19.2851 15.823 19.63C15.8628 19.665 15.912 19.6874 15.9645 19.6945C16.017 19.7016 16.0704 19.6931 16.118 19.67C16.1594 19.6517 16.1943 19.6213 16.2178 19.5827C16.2414 19.5441 16.2527 19.4992 16.25 19.454V2C16.25 1.9337 16.2237 1.87011 16.1768 1.82322C16.1299 1.77634 16.0663 1.75 16 1.75H2.00004C1.93374 1.75 1.87015 1.77634 1.82326 1.82322C1.77638 1.87011 1.75004 1.9337 1.75004 2V19.458C1.7475 19.5035 1.75886 19.5488 1.78262 19.5877C1.80637 19.6266 1.84139 19.6574 1.88304 19.676C1.93014 19.6983 1.98267 19.7064 2.0343 19.6995C2.08594 19.6926 2.13447 19.6709 2.17404 19.637C2.5943 19.2865 3.1269 19.0994 3.67404 19.11C4.02548 19.1121 4.37248 19.1888 4.69209 19.3349C5.01169 19.4811 5.29662 19.6935 5.52804 19.958C5.84804 20.266 5.99204 20.39 6.34404 20.39C6.69604 20.39 6.83804 20.266 7.15704 19.959C7.38759 19.6944 7.67177 19.4819 7.99072 19.3355C8.30967 19.1891 8.65611 19.1123 9.00704 19.11Z" fill="#001C15"/>
<path d="M13 5.75H7.5C7.30109 5.75 7.11032 5.67098 6.96967 5.53033C6.82902 5.38968 6.75 5.19891 6.75 5C6.75 4.80109 6.82902 4.61032 6.96967 4.46967C7.11032 4.32902 7.30109 4.25 7.5 4.25H13C13.1989 4.25 13.3897 4.32902 13.5303 4.46967C13.671 4.61032 13.75 4.80109 13.75 5C13.75 5.19891 13.671 5.38968 13.5303 5.53033C13.3897 5.67098 13.1989 5.75 13 5.75ZM13 10.75H7.5C7.30109 10.75 7.11032 10.671 6.96967 10.5303C6.82902 10.3897 6.75 10.1989 6.75 10C6.75 9.80109 6.82902 9.61032 6.96967 9.46967C7.11032 9.32902 7.30109 9.25 7.5 9.25H13C13.1989 9.25 13.3897 9.32902 13.5303 9.46967C13.671 9.61032 13.75 9.80109 13.75 10C13.75 10.1989 13.671 10.3897 13.5303 10.5303C13.3897 10.671 13.1989 10.75 13 10.75ZM13 15.75H7.5C7.30109 15.75 7.11032 15.671 6.96967 15.5303C6.82902 15.3897 6.75 15.1989 6.75 15C6.75 14.8011 6.82902 14.6103 6.96967 14.4697C7.11032 14.329 7.30109 14.25 7.5 14.25H13C13.1989 14.25 13.3897 14.329 13.5303 14.4697C13.671 14.6103 13.75 14.8011 13.75 15C13.75 15.1989 13.671 15.3897 13.5303 15.5303C13.3897 15.671 13.1989 15.75 13 15.75Z" fill="#001C15"/>
<path d="M5 11C5.55228 11 6 10.5523 6 10C6 9.44772 5.55228 9 5 9C4.44772 9 4 9.44772 4 10C4 10.5523 4.44772 11 5 11Z" fill="#001C15"/>
<path d="M5 6C5.55228 6 6 5.55228 6 5C6 4.44772 5.55228 4 5 4C4.44772 4 4 4.44772 4 5C4 5.55228 4.44772 6 5 6Z" fill="#001C15"/>
<path d="M5 16C5.55228 16 6 15.5523 6 15C6 14.4477 5.55228 14 5 14C4.44772 14 4 14.4477 4 15C4 15.5523 4.44772 16 5 16Z" fill="#001C15"/>
</svg>
